<?xml version="1.0" encoding="UTF-8" standalone="no"?>
<svg
   version="1.1"
   viewBox="-5.0 -10.0 110.0 135.0"
   id="svg8"
   sodipodi:docname="blockchain.svg"
   inkscape:version="1.1.2 (0a00cf5339, 2022-02-04)"
   xmlns:inkscape="http://www.inkscape.org/namespaces/inkscape"
   xmlns:sodipodi="http://sodipodi.sourceforge.net/DTD/sodipodi-0.dtd"
   xmlns="http://www.w3.org/2000/svg"
   xmlns:svg="http://www.w3.org/2000/svg">
  <defs
     id="defs12" />
  <sodipodi:namedview
     id="namedview10"
     pagecolor="#ffffff"
     bordercolor="#666666"
     borderopacity="1.0"
     inkscape:pageshadow="2"
     inkscape:pageopacity="0.0"
     inkscape:pagecheckerboard="0"
     showgrid="false"
     inkscape:zoom="1.7407407"
     inkscape:cx="29.297872"
     inkscape:cy="128.68085"
     inkscape:window-width="1360"
     inkscape:window-height="661"
     inkscape:window-x="0"
     inkscape:window-y="0"
     inkscape:window-maximized="1"
     inkscape:current-layer="svg8" />
  <path
     d="m 44.986897,15.752272 c -0.633952,0 -1.243522,-0.34455 -1.584848,-1.007134 -0.512045,-0.954116 -0.195063,-2.173331 0.658333,-2.703366 L 49.54649,8.5962755 c 0.877789,-0.5565765 1.999442,-0.212027 2.487069,0.715588 0.487626,0.9276145 0.195063,2.1733325 -0.658333,2.7033665 l -5.486108,3.445495 c -0.268207,0.212028 -0.585189,0.291533 -0.902172,0.291533 z m 7.290425,3.392437 2.340756,-1.457662 c 0.87779,-0.556577 1.170378,-1.775738 0.658333,-2.703366 -0.512045,-0.954116 -1.633661,-1.272164 -2.487069,-0.715587 l -2.340756,1.457662 c -0.877777,0.556577 -1.170378,1.775738 -0.658333,2.703366 0.341363,0.636082 0.950934,1.007133 1.584848,1.007133 0.292601,-0.0265 0.60957,-0.10602 0.902171,-0.291532 z m -12.557688,0.609581 8.924085,5.618691 v 11.210921 c 0,1.086638 0.829015,1.987697 1.828661,1.987697 0.999647,0 1.828661,-0.901113 1.828661,-1.987697 V 25.372981 l 8.924086,-5.618691 c 0.877778,-0.556577 1.170378,-1.775738 0.658333,-2.703366 -0.512045,-0.954116 -1.63366,-1.272164 -2.487069,-0.715587 l -8.924085,5.59223 -8.875399,-5.565769 c -0.2926,-0.185526 -0.60957,-0.318048 -0.975315,-0.318048 -0.999696,0 -1.828661,0.901113 -1.828661,1.987697 0,0.715587 0.341364,1.378144 0.926553,1.72268 z m 20.920741,75.985177 -2.706538,1.696219 c -0.877777,0.556577 -1.170378,1.775735 -0.658333,2.703364 0.341363,0.63608 0.950934,1.00713 1.584848,1.00713 0.316982,0 0.633952,-0.0795 0.902171,-0.26503 l 2.706538,-1.696219 c 0.877778,-0.55657 1.170378,-1.775733 0.658333,-2.703361 -0.512045,-0.980632 -1.63366,-1.298666 -2.487069,-0.742103 z m 0,-13.914422 -10.16762,6.36082 -10.143276,-6.36082 c -0.877778,-0.556577 -1.999443,-0.212028 -2.487069,0.715587 -0.512045,0.954116 -0.195063,2.173331 0.658333,2.703366 l 10.143276,6.36082 v 12.748102 c 0,1.08664 0.829015,1.9877 1.828661,1.9877 0.999646,0 1.828661,-0.90112 1.828661,-1.9877 V 91.604818 l 10.16762,-6.36082 c 0.877778,-0.556577 1.170378,-1.775738 0.658333,-2.703366 -0.512045,-0.927615 -1.63366,-1.245663 -2.487069,-0.715587 z m 41.596795,-33.71269 v 18.472502 c 0,1.643161 -0.82901,3.180479 -2.12129,4.028588 L 85.388472,79.86313 c -0.658333,0.424055 -1.389848,0.60958 -2.145756,0.60958 -0.731489,0 -1.487348,-0.212027 -2.145755,-0.60958 l -7.168582,-4.505564 -4.559543,4.95608 c 0.04876,0.291532 0.09754,0.60958 0.09754,0.927614 v 18.472501 c 0,1.643159 -0.829015,3.180479 -2.121287,4.028589 l -14.751133,9.27615 c -0.658333,0.42405 -1.389847,0.60958 -2.121286,0.60958 -0.73144,0 -1.487348,-0.21203 -2.145756,-0.60958 l -14.727413,-9.24969 c -1.316691,-0.82161 -2.145756,-2.35883 -2.145756,-4.028589 v -18.4725 c 0,-0.318047 0.02438,-0.636082 0.09754,-0.927614 l -4.559543,-4.95608 -7.168581,4.505564 c -0.658333,0.424055 -1.389847,0.60958 -2.121287,0.60958 -0.731439,0 -1.487348,-0.212027 -2.145755,-0.60958 L 0.85366964,70.613445 C -0.46302127,69.791837 -1.2920859,68.254615 -1.2920859,66.584857 V 48.112355 c 0,-1.643161 0.8290147,-3.180478 2.14575554,-4.028587 L 15.581083,34.834083 c 1.316691,-0.821608 2.950351,-0.821608 4.267042,0 l 7.168581,4.505564 4.559543,-4.95608 c -0.04876,-0.291533 -0.09754,-0.609581 -0.09754,-0.927615 V 14.98345 c 0,-1.643161 0.829015,-3.180478 2.145756,-4.028588 L 48.326912,1.7051764 c 1.316691,-0.82160767 2.950351,-0.82160767 4.267042,0 l 14.727413,9.2496856 c 1.316691,0.821608 2.145756,2.35883 2.145756,4.028588 v 18.472502 c 0,0.318048 -0.02438,0.636082 -0.09754,0.927615 l 4.559543,4.95608 7.168582,-4.505564 c 1.31669,-0.821608 2.950351,-0.821608 4.267042,0 l 14.72741,9.249685 c 1.3167,0.848109 2.14576,2.38529 2.14576,4.028587 z m -42.670422,24.277642 4.705856,-5.115118 c -0.02438,-0.212027 -0.04876,-0.424055 -0.04876,-0.636082 V 48.166295 c 0,-0.212027 0.02438,-0.424055 0.04876,-0.636082 l -4.705856,-5.115118 -6.973455,4.373124 c -0.658333,0.424055 -1.389848,0.60958 -2.145756,0.60958 -0.731489,0 -1.487347,-0.212027 -2.121287,-0.60958 l -6.973455,-4.373124 -4.705856,5.115118 c 0.02438,0.212027 0.04876,0.424055 0.04876,0.636082 v 18.472502 c 0,0.212027 -0.02438,0.424055 -0.04876,0.636082 l 4.705856,5.115118 6.973455,-4.373124 c 1.316691,-0.821608 2.950352,-0.821608 4.267043,0 z M 35.135497,33.457024 c 0,0.238529 0.121919,0.450557 0.316982,0.583079 l 14.727413,9.249685 c 0.195063,0.10602 0.414507,0.10602 0.60957,0 1.487348,-0.927615 13.264285,-8.322057 14.727413,-9.249685 0.195063,-0.106021 0.292601,-0.34455 0.292601,-0.583079 V 14.984522 c 0,-0.238529 -0.121919,-0.450556 -0.292601,-0.583078 L 50.765743,5.1517574 c -0.09754,-0.053007 -0.195063,-0.079511 -0.292601,-0.079511 -0.09754,0 -0.219444,0.026503 -0.316982,0.079511 L 35.428747,14.401444 c -0.195063,0.10602 -0.292601,0.344549 -0.292601,0.583078 z m -2.413913,33.71269 c 0.09754,-0.053 0.170682,-0.159024 0.243826,-0.265031 v -0.0265 c 0.04876,-0.0795 0.07314,-0.185526 0.07314,-0.291532 V 48.114146 c 0,-0.10602 -0.02438,-0.212027 -0.07314,-0.291532 v -0.0265 c -0.04876,-0.10602 -0.121919,-0.185525 -0.219444,-0.265031 l -6.315173,-3.975532 c -0.02438,0 -0.04876,-0.0265 -0.04876,-0.0265 L 18.01873,38.281357 c -0.09754,-0.053 -0.195063,-0.07951 -0.2926,-0.07951 -0.09754,0 -0.219445,0.0265 -0.316983,0.07951 L 2.6817314,47.557502 c -0.195063,0.106007 -0.2926007,0.344549 -0.2926007,0.583078 v 18.472502 c 0,0.238529 0.1219141,0.450557 0.3169821,0.583079 l 14.7274132,9.249685 c 0.195063,0.106021 0.414507,0.106021 0.60957,0 1.901818,-1.245662 12.557688,-7.924463 14.678725,-9.276146 z m 33.08768,14.100328 c 0,-0.238529 -0.121919,-0.450557 -0.292601,-0.583079 -1.463004,-0.927614 -13.239316,-8.322057 -14.727413,-9.249685 -0.09754,-0.053 -0.195063,-0.0795 -0.292601,-0.0795 -0.09754,0 -0.219444,0.0265 -0.2926,0.0795 -1.487348,0.927615 -13.264285,8.322057 -14.727414,9.249685 -0.195063,0.106021 -0.2926,0.34455 -0.2926,0.583079 v 18.472499 c 0,0.23853 0.121919,0.450559 0.316982,0.583079 l 14.727413,9.24969 c 0.195063,0.10602 0.414507,0.10602 0.60957,0 l 14.727413,-9.24969 c 0.195063,-0.10602 0.292601,-0.344549 0.292601,-0.583079 V 81.270042 Z m 32.770585,-33.15633 c 0,-0.238529 -0.121919,-0.450556 -0.2926,-0.583078 L 83.559835,38.280949 c -0.09754,-0.053 -0.195063,-0.07951 -0.2926,-0.07951 -0.09754,0 -0.219445,0.0265 -0.292601,0.07951 -3.169821,1.987697 -11.484311,7.20893 -14.727413,9.249685 -0.09754,0.053 -0.170682,0.159024 -0.219445,0.26503 v 0.0265 c -0.04876,0.0795 -0.07314,0.185526 -0.07314,0.291533 v 18.472504 c 0,0.10602 0.02438,0.212027 0.07314,0.291532 v 0.0265 c 0.04876,0.10602 0.12192,0.185526 0.243826,0.265031 3.389165,2.120273 11.581812,7.261988 14.727413,9.249685 0.195063,0.10602 0.414508,0.10602 0.609571,0 l 14.727413,-9.249685 c 0.195063,-0.106007 0.2926,-0.34455 0.2926,-0.583079 v -18.4725 z m -5.169138,0.583079 -10.143277,6.360821 -10.16762,-6.360821 c -0.877777,-0.556577 -1.999443,-0.212027 -2.487069,0.715587 -0.512045,0.954116 -0.195063,2.173331 0.658333,2.703366 l 10.16762,6.360821 v 12.748102 c 0,1.086639 0.829015,1.987697 1.828661,1.987697 0.999647,0 1.828662,-0.901112 1.828662,-1.987697 V 58.476565 l 10.143276,-6.360821 c 0.877777,-0.556577 1.170378,-1.775738 0.658333,-2.703366 -0.512045,-0.927614 -1.633661,-1.272164 -2.487069,-0.715587 z m -73.880504,9.806316 10.16762,-6.360821 c 0.877777,-0.556577 1.170378,-1.775737 0.658333,-2.703365 -0.512045,-0.954117 -1.633661,-1.272165 -2.487069,-0.715588 L 17.701471,55.084154 7.5581943,48.723333 c -0.8777773,-0.556577 -1.9994427,-0.212027 -2.487069,0.715588 -0.512045,0.954116 -0.195063,2.173331 0.658333,2.703365 L 15.872735,58.503107 V 71.25121 c 0,1.086638 0.829014,1.987697 1.828661,1.987697 0.999646,0 1.828661,-0.901113 1.828661,-1.987697 z"
     id="path2"
     style="stroke-width:1.30156;fill:#111111;fill-opacity:1" />
</svg>
