<?xml version="1.0" encoding="UTF-8" standalone="no"?>
<!-- Created with Inkscape (http://www.inkscape.org/) -->

<svg
   version="1.1"
   id="svg2"
   width="2048"
   height="2048"
   viewBox="0 0 2048 2048"
   sodipodi:docname="banner-course.svg"
   inkscape:version="1.1.2 (0a00cf5339, 2022-02-04)"
   xmlns:inkscape="http://www.inkscape.org/namespaces/inkscape"
   xmlns:sodipodi="http://sodipodi.sourceforge.net/DTD/sodipodi-0.dtd"
   xmlns="http://www.w3.org/2000/svg"
   xmlns:svg="http://www.w3.org/2000/svg">
  <defs
     id="defs6" />
  <sodipodi:namedview
     id="namedview4"
     pagecolor="#ffffff"
     bordercolor="#666666"
     borderopacity="1.0"
     inkscape:pageshadow="2"
     inkscape:pageopacity="0.0"
     inkscape:pagecheckerboard="0"
     showgrid="false"
     inkscape:zoom="0.24163055"
     inkscape:cx="767.70093"
     inkscape:cy="1434.0074"
     inkscape:window-width="1920"
     inkscape:window-height="946"
     inkscape:window-x="0"
     inkscape:window-y="0"
     inkscape:window-maximized="1"
     inkscape:current-layer="g8" />
  <g
     inkscape:groupmode="layer"
     inkscape:label="Image"
     id="g8">
    <path
       style="fill:#000000;stroke-width:1.71069"
       d="m 1024.2891,1981.5782 c -1.5267,-1.3098 -44.72251,-17.9411 -90.36131,-34.791 -10.52331,-3.8854 -35.96189,-13.2882 -56.53024,-20.8955 -20.56828,-7.6073 -44.05004,-16.1135 -52.18169,-18.9029 -8.13165,-2.7894 -17.13299,-6.1121 -20.00298,-7.3837 -2.86999,-1.2718 -22.82949,-8.7857 -44.35444,-16.6977 -21.52495,-7.912 -41.70668,-15.5064 -44.8483,-16.8764 -3.14162,-1.3699 -6.47672,-2.4907 -7.41137,-2.4907 -0.93462,0 -5.01737,-1.4915 -9.07277,-3.3147 -6.76444,-3.0409 -50.23584,-18.741 -60.42482,-21.8232 -2.39166,-0.7236 -8.2621,-2.9046 -13.04544,-4.847 -4.7833,-1.9422 -22.39464,-8.4243 -39.13627,-14.4045 -16.74162,-5.9803 -36.22173,-13.2029 -43.28913,-16.0501 -7.06738,-2.8474 -13.92686,-5.177 -15.24326,-5.177 -1.31639,0 -3.7526,-0.6935 -5.41378,-1.5409 -5.00407,-2.5532 -14.51317,-6.2802 -27.37179,-10.7278 -6.69665,-2.3163 -14.13254,-5.0125 -16.5242,-5.9915 -4.57792,-1.8741 -11.89948,-4.5647 -51.02828,-18.7537 -31.66277,-11.4813 -42.93548,-16.3571 -47.68208,-20.6237 l -3.91363,-3.5179 v -211.5066 -211.5065 l -6.52271,-2.8292 c -11.98022,-5.1964 -13.42341,-5.7936 -24.78631,-10.2577 -6.21831,-2.4429 -13.6542,-5.4452 -16.5242,-6.6713 -2.86999,-1.2264 -12.65406,-5.0453 -21.74237,-8.4868 -9.08831,-3.4413 -20.58336,-8.0442 -25.54454,-10.2286 -4.96119,-2.1843 -9.47038,-3.9716 -10.02045,-3.9716 -0.55006,0 -4.31815,-1.4661 -8.37356,-3.2581 -4.05538,-1.792 -13.24388,-5.4921 -20.41887,-8.2223 -37.48811,-14.2645 -50.20734,-19.2182 -56.53016,-22.0161 -3.82665,-1.6934 -8.91437,-3.6451 -11.30603,-4.3371 -2.39166,-0.692 -8.43694,-3.0426 -13.43395,-5.2236 -4.99702,-2.181 -11.07054,-4.4474 -13.49671,-5.0363 -2.42617,-0.589 -4.84138,-1.7442 -5.36715,-2.5671 -0.52574,-0.8229 -2.06241,-1.4961 -3.41478,-1.4961 -1.3524,0 -6.58959,-1.7935 -11.63822,-3.9856 -5.04866,-2.1921 -14.48738,-6.073 -20.97499,-8.6242 -6.487598,-2.5511 -12.945083,-6.2259 -14.34997,-8.166 -3.461003,-4.7796 -3.22088,-13.4277 0.489603,-17.6338 2.743192,-3.1094 88.427807,-87.3797 201.769207,-198.43851 23.19911,-22.73191 42.1802,-41.78361 42.1802,-42.33712 0,-0.55352 -7.63158,-3.54413 -16.95905,-6.64584 -9.32748,-3.10169 -19.30723,-6.63961 -22.17722,-7.86206 -2.86999,-1.22245 -13.04542,-4.95897 -22.61207,-8.30341 -9.56664,-3.34442 -23.26433,-8.2674 -30.43932,-10.93996 -7.17498,-2.67254 -17.74177,-6.51359 -23.48176,-8.53565 -5.73998,-2.02206 -13.71997,-5.0936 -17.73332,-6.82566 -4.01333,-1.73205 -7.83892,-3.14918 -8.50132,-3.14918 -1.70465,0 -49.66694,-16.76813 -53.31883,-18.64084 -1.66118,-0.85185 -3.8222,-1.54884 -4.80228,-1.54884 -0.98008,0 -5.09999,-1.42717 -9.1554,-3.17149 -4.05539,-1.74434 -11.67844,-4.7241 -16.94009,-6.62173 -19.455041,-7.01646 -47.950123,-16.90383 -51.701465,-17.93963 -5.002172,-1.38118 -10.916566,-8.68858 -10.916566,-13.48773 0,-4.77386 5.888495,-12.0815 10.916566,-13.54747 2.127534,-0.62031 6.216422,-2.10506 9.086415,-3.29945 4.306155,-1.79207 47.31218,-17.0009 83.06124,-29.3741 4.54711,-1.57382 8.78687,-3.36389 9.42168,-3.97794 0.63482,-0.61405 2.3783,-1.11646 3.8744,-1.11646 2.22306,0 17.83797,-5.36793 39.31507,-13.51532 1.91333,-0.72583 11.6974,-4.0882 21.74238,-7.47194 10.04497,-3.38374 19.82904,-6.78173 21.74237,-7.55111 16.83814,-6.77081 34.99516,-13.26625 54.79077,-19.60064 4.30499,-1.37756 9.39271,-3.16044 11.30604,-3.96195 1.91332,-0.80152 5.04423,-1.83656 6.95755,-2.30009 1.91333,-0.46354 8.95786,-2.86854 15.65451,-5.34445 6.69665,-2.47591 17.65481,-6.34953 24.35146,-8.60805 6.69665,-2.25852 13.74118,-4.76414 15.6545,-5.56804 1.91333,-0.8039 7.78377,-2.96036 13.04543,-4.79215 25.60884,-8.91541 49.92286,-17.56065 53.05138,-18.86322 1.91333,-0.79663 8.17513,-2.9653 13.91512,-4.81927 5.73999,-1.85398 24.5254,-8.41851 41.74535,-14.58783 17.21996,-6.16933 35.61401,-12.68288 40.87566,-14.47457 5.26165,-1.79168 11.1321,-3.91166 13.04542,-4.71107 1.91333,-0.79941 6.21832,-2.40057 9.56665,-3.55813 3.34832,-1.15756 8.43604,-3.06434 11.30603,-4.23729 2.86999,-1.17293 10.30588,-3.80491 16.5242,-5.84883 6.21832,-2.0439 12.08876,-4.29024 13.04542,-4.99183 0.95667,-0.70159 4.29131,-1.80347 7.41033,-2.44862 11.7319,-2.4267 10.91437,10.02841 10.80834,-164.66346 -0.0776,-127.79275 0.33793,-158.63618 2.14863,-159.50417 1.23464,-0.59182 9.68068,-4.57058 18.76899,-8.84168 9.08829,-4.27109 19.65509,-9.37622 23.48174,-11.34471 8.90194,-4.57932 7.61469,-3.93887 49.5669,-24.66115 19.61475,-9.6887 43.49045,-21.36018 53.0571,-25.93661 75.60813,-36.16891 252.71699,-123.330493 260.26999,-128.088138 3.8933,-2.452305 5.0166,-2.153969 20.6416,5.481528 9.0883,4.44124 34.9182,17.03431 57.3998,27.9846 22.4816,10.95031 41.267,20.33262 41.7454,20.8496 0.4783,0.51699 22.3946,11.42614 48.7029,24.2426 59.4321,28.9532 179.0369,87.5253 183.5981,89.91054 3.7404,1.95591 45.9735,22.44701 57.902,28.09341 l 7.5523,3.57486 0.275,141.9484 0.275,141.94837 8.6969,3.23222 c 17.5999,6.54096 21.2669,7.8593 40.8757,14.69515 11.0016,3.83531 21.5684,7.61102 23.4818,8.39047 1.9133,0.77948 14.4369,5.32791 27.8302,10.10766 13.3933,4.77976 26.3083,9.48629 28.6999,10.45899 7.5563,3.07312 10.9942,4.33664 23.4818,8.62984 21.94,7.54293 52.1109,18.10583 55.6605,19.48684 1.9133,0.74441 5.4356,2.12123 7.8272,3.05963 10.2078,4.00514 26.2733,9.76821 50.4423,18.09487 7.175,2.47191 18.9159,6.7044 26.0909,9.40555 7.1749,2.70116 13.7099,4.9071 14.522,4.90213 0.812,-0.005 3.9429,1.04378 6.9576,2.33055 7.5914,3.24044 18.6542,7.23842 34.1002,12.32335 7.2193,2.37672 13.9088,4.87241 14.8655,5.54599 0.9567,0.67358 4.8703,2.16987 8.697,3.32509 3.8266,1.15523 9.3057,3.04029 12.1757,4.18902 2.87,1.14872 7.5663,3.03427 10.4363,4.19011 2.87,1.15586 10.6999,3.84353 17.3995,5.97261 12.3236,3.91623 24.9406,8.3411 31.3034,10.97825 5.5974,2.31988 51.4547,18.52036 60.009,21.19994 7.5646,2.36956 9.7983,3.18153 19.1333,6.9548 2.3916,0.96673 11.9242,4.5129 21.1835,7.88037 19.3971,7.05449 25.78,11.24699 25.78,16.93343 0,10.51582 1.646,9.58801 -130.2262,73.406 -69.4836,33.62575 -132.5257,64.47144 -140.0936,68.54599 l -13.7598,7.40826 12.0204,11.00738 c 55.9799,51.26219 139.8532,129.80819 192.4821,180.25609 36.5317,35.0179 41.3105,40.2124 41.3105,44.9038 0,7.0136 -6.303,12.0536 -23.799,19.0303 -10.5263,4.1974 -88.5556,36.0752 -111.4385,45.5265 -5.0679,2.0934 -8.2223,3.3564 -29.1348,11.6666 -31.3309,12.4505 -30.4882,12.1041 -44.794,18.4166 -6.4599,2.8506 -12.1115,5.1828 -12.5589,5.1828 -0.4476,0 -5.3113,1.99 -10.8085,4.4222 -5.4973,2.4322 -13.9347,5.7394 -18.7501,7.3496 -4.8153,1.6101 -12.2773,4.4932 -16.5823,6.4068 -4.305,1.9135 -10.7624,4.6245 -14.3499,6.0242 l -6.5227,2.5449 v 217.9662 c 0,216.5349 -0.023,217.9884 -3.5181,221.369 -4.017,3.8855 -15.5305,9.0828 -41.7061,18.8265 -10.0449,3.7393 -19.0072,7.4597 -19.916,8.268 -0.9088,0.8083 -3.2961,1.4695 -5.3051,1.4695 -2.009,0 -4.3963,0.6025 -5.3052,1.339 -0.9088,0.7365 -4.7833,2.3059 -8.6099,3.4876 -3.8267,1.1816 -13.2194,4.4399 -20.8727,7.2406 -7.6533,2.8004 -18.2201,6.6417 -23.4818,8.5362 -5.2616,1.8943 -11.9148,4.3766 -14.7848,5.5159 -19.2705,7.6513 -33.7802,13.0126 -38.2666,14.1401 -2.87,0.7211 -13.4368,4.5107 -23.4817,8.4209 -10.045,3.9104 -20.2204,7.7577 -22.6121,8.5496 -4.6487,1.5392 -25.3309,9.1932 -52.1657,19.3054 -9.0796,3.4215 -20.0377,7.3238 -24.3514,8.6718 -4.3139,1.348 -9.4087,3.1281 -11.3221,3.9557 -1.9133,0.8276 -11.306,4.2307 -20.8726,7.5624 -9.5667,3.3318 -21.9463,7.9163 -27.5101,10.1878 -5.5639,2.2715 -11.2472,4.1302 -12.6295,4.1302 -1.3825,0 -6.2228,1.5896 -10.7566,3.5327 -4.5337,1.9429 -9.8085,4.1922 -11.7219,4.9982 -1.9133,0.8063 -16.3937,6.0571 -32.1787,11.6687 -48.4921,17.2386 -53.601,19.131 -59.5504,22.0585 -1.6613,0.8174 -4.2158,1.4862 -5.6767,1.4862 -1.4609,0 -4.0154,0.6687 -5.6767,1.4861 -4.2496,2.0911 -9.3584,4.0457 -28.2414,10.8045 -21.7187,7.774 -67.7673,24.6305 -72.1847,26.4242 -1.9133,0.7768 -12.0887,4.5296 -22.612,8.3395 -10.5233,3.81 -20.9313,7.6523 -23.1289,8.5384 -4.9362,1.9907 -13.0103,2.0934 -15.2247,0.1937 z m 37.1923,-38.8337 c 9.9168,-4.2065 34.7878,-13.7173 85.5217,-32.7041 6.2183,-2.3271 22.2642,-8.1049 35.6575,-12.8396 13.3933,-4.7348 28.4607,-10.0812 33.4832,-11.8809 5.0225,-1.7999 13.6325,-4.8605 19.1333,-6.8014 5.5008,-1.9409 11.5669,-4.1724 13.4803,-4.9589 5.7429,-2.3605 23.4195,-8.814 78.2725,-28.5757 28.6999,-10.3396 54.5299,-19.7685 57.3999,-20.9528 5.5662,-2.2973 20.7858,-7.823 53.0513,-19.2616 33.3448,-11.8211 38.8554,-13.8432 46.0939,-16.9144 3.8266,-1.6236 8.9143,-3.477 11.306,-4.1186 2.3917,-0.6415 5.9139,-1.7978 7.8273,-2.5694 12.778,-5.1538 22.2598,-8.6775 29.6988,-11.037 4.7122,-1.4948 10.9159,-3.7032 13.7859,-4.9077 2.87,-1.2044 14.2195,-5.3618 25.2211,-9.2386 11.0017,-3.8767 21.5685,-7.7405 23.4818,-8.5863 1.9133,-0.8456 7.7838,-3.0936 13.0454,-4.9953 5.2617,-1.9017 11.1321,-4.1979 13.0455,-5.1027 1.9133,-0.9047 10.9146,-4.1882 20.0029,-7.2966 l 16.5242,-5.6514 0.4418,-203.8074 c 0.4549,-209.8645 0.5135,-207.8043 -5.7469,-202.3741 -0.9088,0.7882 -9.0883,4.2595 -18.1766,7.714 -9.0883,3.4543 -18.8724,7.312 -21.7424,8.5727 -2.87,1.2608 -12.2627,5.0578 -20.8727,8.4377 -8.6099,3.3801 -18.0027,7.1807 -20.8726,8.4459 -7.5934,3.3474 -29.3229,12.0796 -44.3545,17.8243 -7.175,2.7421 -15.7849,6.2021 -19.1333,7.689 -3.3483,1.4868 -10.3928,4.3819 -15.6545,6.4335 -15.2732,5.9553 -76.8935,30.9079 -82.621,33.4566 -5.0307,2.2387 -21.1725,8.7178 -50.4423,20.2466 -15.7258,6.194 -33.3011,13.6736 -37.8081,16.09 -1.6613,0.8905 -5.8113,1.6192 -9.2226,1.6192 -6.7618,0 -4.0296,2.2096 -58.2024,-47.0669 -43.2892,-39.3766 -83.9975,-76.2355 -93.0573,-84.2579 -22.8552,-20.2378 -79.5651,-71.2494 -95.0564,-85.5052 -8.9122,-8.2012 -14.3935,-12.0724 -16.1637,-11.4152 -2.4,0.8908 -2.6809,38.4241 -2.7019,361.1018 -0.017,258.1489 0.5117,360.1078 1.8668,360.1078 1.0399,0 7.1095,-2.2138 13.4881,-4.9194 z m 388.2197,-193.5696 c -1.889,-1.8272 -3.8858,-5.0613 -4.4374,-7.1869 -0.5516,-2.1256 -0.7671,-29.381 -0.479,-60.5672 0.5004,-54.1742 0.6788,-56.8441 4.0025,-59.875 3.3271,-3.0342 20.0037,-10.0742 34.7878,-14.6855 10.2001,-3.1816 41.184,-13.9835 45.2241,-15.7665 1.9133,-0.8442 7.3924,-2.8548 12.1757,-4.4676 4.7834,-1.6128 9.4406,-3.5645 10.3494,-4.3369 0.9088,-0.7724 3.0719,-1.4044 4.807,-1.4044 1.7348,0 4.5135,-0.6688 6.1748,-1.4861 6.1312,-3.017 11.9905,-5.1899 23.0233,-8.538 6.2183,-1.8873 12.8715,-4.1189 14.7848,-4.9595 18.2265,-8.0067 27.0176,-8.7815 31.109,-2.7416 2.4499,3.6169 2.8091,11.6347 2.8091,62.7184 0,64.5058 0.127,63.7091 -10.802,67.6491 -3.1472,1.1345 -9.6359,3.6093 -14.4192,5.4992 -12.2105,4.8248 -13.57,5.3265 -33.0484,12.1966 -9.5666,3.3742 -18.753,6.8487 -20.4142,7.721 -1.6612,0.8724 -4.466,1.5861 -6.2329,1.5861 -1.7669,0 -3.7318,0.5024 -4.3665,1.1165 -0.6349,0.6139 -4.8747,2.4264 -9.4218,4.0276 -4.5471,1.6014 -16.0947,5.7093 -25.6614,9.1288 -56.3037,20.1254 -54.4707,19.6861 -59.9647,14.3719 z m 28.1619,-29.4176 c 11.1822,-4.8065 50.412,-19.4169 52.1358,-19.4169 0.9643,0 4.2197,-1.0387 7.2344,-2.3083 3.0146,-1.2695 15.6564,-5.8927 28.0931,-10.2737 12.4366,-4.3812 23.7861,-8.3876 25.2211,-8.9036 1.435,-0.516 6.1314,-2.1882 10.4364,-3.7164 l 7.8272,-2.7783 0.4653,-41.5313 c 0.3095,-27.6215 -0.1339,-41.5315 -1.3235,-41.5315 -0.9838,0 -5.1068,1.4392 -9.1622,3.198 -7.0599,3.0621 -62.4448,23.3724 -76.9491,28.2181 -7.2061,2.4075 -13.4639,4.913 -18.6747,7.4771 -1.6613,0.8174 -4.44,1.4861 -6.1749,1.4861 -1.735,0 -3.8981,0.6256 -4.807,1.3899 -0.9088,0.7645 -5.1746,2.4151 -9.4796,3.668 -4.305,1.2531 -8.8057,2.9916 -10.0015,3.8636 -1.635,1.1922 -2.1743,11.7555 -2.1743,42.5999 0,22.558 0.3648,41.0146 0.8108,41.0146 0.4458,0 3.381,-1.1049 6.5227,-2.4553 z m -460.0057,-130.8806 c 0.2415,-195.945 -0.2176,-356.2636 -1.0201,-356.2636 -0.8026,0 -9.5171,8.139 -19.36586,18.0866 -18.99465,19.1852 -34.94016,35.1418 -111.37677,111.4532 -26.30834,26.2651 -58.00872,57.9622 -70.44535,70.4377 -35.1135,35.2237 -35.47418,35.557 -38.70142,35.7625 -7.41041,0.4716 -15.85546,-2.1896 -38.06263,-11.9942 -3.95367,-1.7456 -11.38956,-4.6564 -16.52421,-6.4684 -9.6913,-3.4203 -40.23458,-15.4785 -49.3417,-19.4795 -2.86999,-1.2611 -19.30722,-7.7229 -36.52716,-14.3599 -17.21996,-6.6372 -33.65721,-13.0377 -36.5272,-14.2235 -2.87,-1.1858 -9.52316,-3.8932 -14.78482,-6.0165 -5.26165,-2.1233 -12.99089,-5.3111 -17.17607,-7.0841 -4.1852,-1.773 -11.62109,-4.7486 -16.5242,-6.6124 -4.90313,-1.8639 -11.26295,-4.3793 -14.13294,-5.5899 -2.87,-1.2103 -9.91453,-3.9319 -15.65451,-6.0478 -5.73999,-2.1159 -15.34798,-5.9876 -21.35108,-8.604 -6.00312,-2.6162 -11.57837,-4.7568 -12.38946,-4.7568 -1.46286,0 -11.63762,-4.0341 -25.8146,-10.2349 -4.0554,-1.7736 -7.85073,-3.2249 -8.43407,-3.2249 -0.58336,0 -3.91847,-1.2129 -7.41137,-2.6954 -21.29943,-9.0394 -34.84707,-14.1294 -37.60734,-14.1294 -2.37396,0 -2.6615,21.3362 -2.6615,197.4865 v 197.4864 l 5.21817,1.8865 c 2.87,1.0376 7.76203,2.7325 10.87119,3.7663 3.10916,1.0338 8.00119,2.8157 10.87118,3.9597 2.87,1.144 9.52316,3.6585 14.78482,5.588 68.56283,25.1413 85.11348,31.3091 89.41096,33.3193 2.7778,1.2994 6.115,2.3625 7.41601,2.3625 1.30099,0 3.72459,0.6688 5.38577,1.4862 3.97341,1.9552 8.31504,3.6052 29.11118,11.0637 9.56664,3.4311 19.35071,7.0334 21.74237,8.0054 5.65241,2.2969 9.11421,3.5781 21.74239,8.0468 5.73998,2.0311 12.00179,4.3063 13.91512,5.0558 1.91332,0.7495 13.26283,4.9054 25.22113,9.2351 11.9583,4.3298 24.48191,8.8927 27.83023,10.1396 3.34833,1.247 10.78422,3.9297 16.52421,5.9615 23.86588,8.448 32.28223,11.5519 37.73327,13.9151 3.16331,1.3715 14.36145,5.6655 24.88476,9.5423 10.5233,3.8767 24.221,8.922 30.43932,11.2115 6.21831,2.2895 12.87148,4.7915 14.78481,5.56 1.91333,0.7686 8.17513,3.0593 13.91512,5.0903 5.73998,2.0311 12.00178,4.3025 13.91511,5.0475 1.91333,0.745 8.17513,3.0163 13.91512,5.0474 5.73999,2.0311 12.00179,4.3024 13.91512,5.0474 1.91333,0.745 8.17513,3.0534 13.91518,5.1299 5.73999,2.0765 13.17588,4.8775 16.52421,6.2243 3.34832,1.3468 7.65331,3.0343 9.56664,3.75 1.91333,0.7159 5.68033,2.1583 8.37116,3.2055 2.69066,1.0472 12.47473,4.6278 21.74237,7.9567 9.26747,3.3291 19.19817,7.0223 22.06816,8.207 24.10812,9.9516 49.31568,19.0356 52.18168,18.8048 3.4654,-0.2793 3.4805,-1.6488 3.9176,-356.5438 z M 810.49784,1396.2606 c 21.96654,-21.9625 52.42954,-52.4362 67.69553,-67.7195 15.26595,-15.2834 37.27601,-37.2517 48.91131,-48.8187 11.63513,-11.567 25.93326,-25.9522 31.77343,-31.967 5.84035,-6.0149 19.23852,-19.6429 29.77383,-30.2845 10.53549,-10.6417 19.16526,-20.1569 19.17766,-21.145 0.023,-1.7725 -14.51488,-7.8758 -39.98372,-16.7871 -7.17498,-2.5104 -15.39359,-5.5242 -18.26359,-6.6972 -2.86999,-1.1732 -11.47997,-4.5223 -19.13328,-7.4426 -7.65332,-2.9204 -15.67625,-6.0269 -17.82875,-6.9033 -7.14698,-2.9104 -11.67913,-4.5986 -17.82874,-6.6413 -7.1195,-2.3647 -11.39805,-3.9292 -17.39397,-6.3603 -7.35134,-2.9807 -34.86697,-13.3425 -50.4423,-18.9955 -8.13165,-2.9513 -18.06845,-6.7819 -22.0818,-8.5123 -4.01332,-1.7304 -7.80866,-3.1462 -8.43407,-3.1462 -0.6254,0 -3.60356,-1.0562 -6.61813,-2.3472 -11.61742,-4.975 -37.36655,-14.4775 -39.22987,-14.4775 -1.07572,0 -3.31501,-0.6688 -4.9762,-1.4862 -1.66119,-0.8174 -4.97714,-2.2545 -7.3688,-3.1934 -2.39167,-0.939 -7.20631,-2.9201 -10.69922,-4.4025 -3.4929,-1.4824 -6.89687,-2.6953 -7.56438,-2.6953 -0.6675,0 -4.07147,-1.2128 -7.56438,-2.6952 -10.72855,-4.5532 -12.26895,-5.1417 -48.09609,-18.3756 -19.13328,-7.0674 -37.38383,-13.984 -40.55675,-15.3701 -3.17295,-1.3861 -12.17429,-4.6791 -20.003,-7.3176 -12.65492,-4.2651 -19.86585,-6.9153 -31.6279,-11.6241 -4.29734,-1.7203 -35.74646,-13.4734 -52.18169,-19.5012 -6.69665,-2.4561 -20.78571,-7.743 -31.30902,-11.74872 -10.5233,-4.00573 -25.78645,-9.70714 -33.91809,-12.66981 -8.13165,-2.96266 -17.37033,-6.49242 -20.5304,-7.8439 -5.46151,-2.33576 -14.18928,-5.4853 -31.6513,-11.42181 -4.30498,-1.46355 -9.3927,-3.32042 -11.30603,-4.12638 -1.91333,-0.80595 -6.23007,-2.62935 -9.59277,-4.05197 -17.27035,-7.3064 -12.00297,-10.18956 -51.06077,27.94875 -49.72971,48.55894 -170.42865,167.77934 -186.04152,183.76254 -7.23135,7.4028 -12.60492,13.9837 -11.94126,14.6242 0.66365,0.6403 11.66139,5.0279 24.43942,9.7501 12.77803,4.722 26.47572,9.9935 30.43931,11.7144 3.9636,1.7208 23.25243,9.3274 42.86405,16.9036 19.61161,7.5762 37.93024,14.8409 40.70805,16.1438 2.7778,1.3029 5.6882,2.369 6.46755,2.369 0.77937,0 8.68204,2.9885 17.56152,6.6412 8.87947,3.6526 31.799,12.8076 50.93229,20.3444 35.08152,13.819 38.83262,15.3307 53.05139,21.3792 4.30498,1.8312 10.95815,4.3003 14.78481,5.4866 3.82666,1.1863 10.87118,3.8225 15.65451,5.8579 4.78332,2.0357 17.69829,7.1699 28.69993,11.4094 31.69307,12.2131 76.30257,29.7142 89.57856,35.1432 6.69665,2.7383 13.74118,5.6162 15.65451,6.3949 1.91333,0.7788 7.1882,3.0055 11.72192,4.9485 4.53374,1.943 8.65157,3.5326 9.15076,3.5326 0.49919,0 4.22565,1.4419 8.28106,3.2043 4.05539,1.7624 11.28707,4.5427 16.07041,6.1784 4.78332,1.6357 9.47967,3.5002 10.43634,4.1431 0.95666,0.6429 6.43572,2.8412 12.17573,4.885 10.47297,3.7294 13.85156,5.0845 29.1158,11.6779 4.53373,1.9584 9.04502,3.5608 10.02509,3.5608 0.98008,0 3.1411,0.7108 4.80228,1.5798 3.6506,1.9093 40.99116,16.9552 54.33233,21.8922 5.26165,1.9473 11.13209,4.2763 13.04542,5.1758 6.84071,3.2159 24.38463,9.9081 26.15764,9.9779 0.99342,0.039 19.77882,-17.8981 41.74535,-39.8605 z m 513.68766,24.0766 c 4.4344,-2.2428 13.1503,-6.1251 19.3686,-8.6276 17.2375,-6.9368 21.0626,-8.5167 29.909,-12.3542 4.4918,-1.9483 8.595,-3.5425 9.1186,-3.5425 0.5235,0 10.9376,-4.0891 23.1424,-9.087 12.2047,-4.9978 31.1917,-12.6219 42.1934,-16.9425 11.0016,-4.3206 22.3511,-8.8586 25.2211,-10.0842 4.7527,-2.0301 9.411,-3.9236 19.1333,-7.7773 1.9133,-0.7583 8.8704,-3.6854 15.4602,-6.5048 6.5899,-2.8191 12.7463,-5.1258 13.681,-5.1258 0.9346,0 7.4408,-2.6007 14.4578,-5.7793 7.0173,-3.1787 23.5599,-10.083 36.7615,-15.3431 13.2016,-5.2601 28.9301,-11.7447 34.9522,-14.4104 6.0221,-2.6655 12.042,-4.8465 13.3776,-4.8465 1.3355,0 2.8585,-0.6731 3.3842,-1.496 0.5258,-0.8229 2.9926,-1.9906 5.4818,-2.5949 2.4893,-0.6043 8.5137,-2.9595 13.3874,-5.2338 4.8738,-2.2742 9.6154,-4.1351 10.5369,-4.1351 0.9214,0 5.6669,-1.8024 10.5456,-4.0052 4.8786,-2.2029 11.6099,-5.1514 14.9582,-6.5523 3.3483,-1.401 9.6101,-4.0438 13.9151,-5.8731 4.305,-1.8292 19.5682,-8.0328 33.9181,-13.7859 28.2878,-11.3405 29.0792,-11.6632 41.2991,-16.8378 4.5377,-1.9216 13.9304,-5.6526 20.8727,-8.2913 12.7809,-4.8579 55.6897,-22.5586 79.5886,-32.8316 7.1749,-3.0843 24.3949,-9.9599 38.2665,-15.2792 13.8717,-5.3191 25.8239,-10.2017 26.5605,-10.8499 0.7366,-0.6483 -5.9165,-7.9026 -14.7848,-16.1208 -8.8683,-8.2182 -40.0834,-37.515 -69.3669,-65.1039 -57.8994,-54.5491 -58.1314,-54.7653 -97.1028,-90.4892 -14.6374,-13.41774 -31.355,-29.12783 -37.1501,-34.91133 -5.7953,-5.7835 -11.5911,-10.51545 -12.8797,-10.51545 -1.2887,0 -7.9999,2.19456 -14.9138,4.87681 -6.9141,2.68225 -23.9205,9.21077 -37.7921,14.5078 -13.8716,5.29703 -27.5693,10.56002 -30.4393,11.69552 -2.87,1.1355 -7.9577,3.01164 -11.3061,4.1692 -3.3483,1.15756 -7.6533,2.73611 -9.5666,3.50787 -7.8737,3.17596 -35.6949,13.39948 -36.4641,13.39948 -0.4564,0 -4.9623,1.8283 -10.0131,4.063 -5.0508,2.2346 -14.271,5.7372 -20.4893,7.7834 -6.2183,2.0463 -15.2421,5.4308 -20.0527,7.5212 -4.8108,2.0904 -12.2467,4.9724 -16.5242,6.4045 -4.2777,1.4321 -17.1703,6.1212 -28.6502,10.4202 -11.48,4.299 -25.1777,9.2813 -30.4393,11.0717 -8.8245,3.0029 -24.7183,9.0345 -37.3969,14.1921 -2.87,1.1675 -10.6973,4.0193 -17.3939,6.3374 -12.8164,4.4364 -37.5861,13.6983 -43.4848,16.2597 -1.9133,0.8308 -8.5665,3.3633 -14.7848,5.6279 -6.2183,2.2645 -25.3951,9.451 -42.615,15.9701 -17.22,6.519 -39.919,14.9465 -50.4423,18.7277 -10.5233,3.7812 -20.6988,7.58 -22.6121,8.4418 -8.7938,3.9611 -35.4762,13.5543 -37.6995,13.5543 -1.3642,0 -3.224,0.6358 -4.1328,1.4129 -0.9088,0.777 -4.0006,2.2286 -6.8706,3.2258 -8.2811,2.8774 -47.6509,17.1976 -59.436,21.6191 -5.9031,2.2147 -11.3655,4.0267 -12.1387,4.0267 -3.723,0 -24.9614,8.9279 -24.9614,10.4929 0,1.7776 8.4111,9.7865 30.8458,29.3703 17.8894,15.6162 20.362,17.8232 46.5474,41.5513 13.388,12.1317 28.968,26.2217 34.6221,31.3112 5.6542,5.0894 11.9545,10.7678 14.0007,12.6185 4.5686,4.1321 36.4059,32.4678 43.5745,38.7818 9.8039,8.6353 57.2855,52.049 70.2918,64.2696 7.1402,6.7089 13.3163,12.198 13.7249,12.198 0.4084,0 4.3707,-1.8351 8.8053,-4.0778 z m -263.9147,-257.5467 c 7.6156,-3.2388 14.5998,-5.8887 15.5204,-5.8887 0.9209,0 4.9923,-1.44 9.0476,-3.2 4.0554,-1.7601 13.2439,-5.2278 20.4189,-7.7061 7.175,-2.4782 14.6109,-5.1116 16.5242,-5.852 1.9133,-0.7404 6.6097,-2.5059 10.4364,-3.9234 3.8266,-1.4175 15.1761,-5.6757 25.2211,-9.4625 10.045,-3.7868 18.8592,-6.8818 19.5871,-6.8777 0.7279,0 4.6416,-1.4457 8.6969,-3.2217 12.6131,-5.5237 63.3509,-24.4886 79.5582,-29.7374 4.305,-1.3942 9.3927,-3.1479 11.306,-3.8971 1.9133,-0.7492 10.1319,-3.7969 18.2636,-6.7726 17.0984,-6.2571 18.186,-6.6781 32.3961,-12.5388 5.8597,-2.4167 11.545,-4.394 12.6343,-4.394 1.0892,0 3.3394,-0.6966 5.0007,-1.548 1.6611,-0.8515 7.7166,-3.209 13.4566,-5.239 5.74,-2.03 12.9028,-4.7404 15.9173,-6.0231 3.0148,-1.2827 6.3519,-2.3322 7.4161,-2.3322 1.0642,0 3.2941,-0.7267 4.9553,-1.6148 1.6612,-0.8882 11.6303,-4.7678 22.1536,-8.6214 10.5233,-3.8536 21.4815,-7.9372 24.3515,-9.0747 2.87,-1.1375 9.5231,-3.6431 14.7848,-5.568 15.9589,-5.8382 81.6652,-30.68925 97.1449,-36.74142 7.988,-3.12319 15.2367,-5.67852 16.1083,-5.67852 0.8714,0 4.9025,-1.43893 8.9579,-3.19762 4.0554,-1.75871 13.2439,-5.26809 20.4188,-7.79867 7.175,-2.53057 16.3635,-6.01287 20.4189,-7.73845 4.0554,-1.72557 7.8507,-3.1374 8.4341,-3.1374 0.5832,0 3.527,-1.08463 6.5417,-2.41026 3.0145,-1.32566 9.0697,-3.5456 13.4561,-4.9332 11.0886,-3.5079 25.943,-9.90002 25.943,-11.16374 0,-1.62973 -13.1665,-6.83537 -59.2443,-23.42334 -23.3805,-8.41697 -44.2711,-16.05395 -46.4236,-16.97103 -2.1525,-0.9171 -5.6748,-2.34911 -7.8273,-3.18225 -2.1525,-0.83314 -7.623,-3.10448 -12.1568,-5.04742 -4.5337,-1.94293 -8.8387,-3.52855 -9.5666,-3.52357 -0.7279,0.005 -7.1939,-2.2024 -14.3689,-4.9053 -7.175,-2.70287 -25.2754,-9.52096 -40.2232,-15.1513 -14.9478,-5.63033 -27.6756,-10.23696 -28.2841,-10.23696 -0.6084,0 -4.4243,-1.43602 -8.4797,-3.19116 -12.076,-5.2264 -59.6184,-22.04643 -62.2959,-22.03964 -1.3626,0.003 -4.9953,1.49126 -8.0727,3.30625 -3.0773,1.81498 -37.1258,18.75696 -75.6634,37.64886 -68.6605,33.65884 -107.9846,53.0295 -195.3042,96.20472 -23.9167,11.82559 -45.5625,22.89948 -48.1018,24.60863 -2.5394,1.70918 -5.3787,3.10758 -6.3097,3.10758 -0.9311,0 -2.6671,1.13567 -3.8581,2.52371 -1.191,1.38804 -3.6638,2.52371 -5.4953,2.52371 -2.911,0 -30.5303,-13.20968 -51.0349,-24.40885 -3.82666,-2.09003 -23.78616,-12.08614 -44.35444,-22.21357 -39.18393,-19.29336 -97.65395,-48.33559 -133.06338,-66.09291 -11.47997,-5.75703 -32.2222,-16.05592 -46.09383,-22.88642 -13.87163,-6.83051 -34.22249,-16.96613 -45.22413,-22.52362 -20.68689,-10.45001 -26.64827,-11.78947 -34.51942,-7.75615 -2.53927,1.30116 -8.53047,3.66845 -13.3138,5.26064 -4.78332,1.59217 -11.04512,3.82155 -13.91511,4.95416 -2.87,1.13259 -9.91451,3.75277 -15.65449,5.82262 -5.73999,2.06986 -12.00181,4.41159 -13.91512,5.20387 -1.91333,0.79227 -8.95786,3.29842 -15.65453,5.56918 -6.69665,2.27079 -14.13254,4.92972 -16.5242,5.90875 -2.39166,0.97903 -9.82755,3.76096 -16.5242,6.18206 -6.69665,2.42109 -13.74118,5.04247 -15.65451,5.82527 -1.91333,0.78281 -12.48012,4.55818 -23.48176,8.38972 -11.00164,3.83153 -21.56843,7.64992 -23.48176,8.48532 -6.12488,2.6742 -39.73133,15.27855 -47.83322,17.94017 -4.30499,1.41427 -11.95976,4.38426 -17.0106,6.59996 -5.05082,2.21568 -9.93746,4.02852 -10.85917,4.02852 -3.12361,0 -33.16849,12.18373 -32.24579,13.07623 0.93549,0.90489 44.20813,17.01377 58.37617,21.73141 4.30499,1.43347 11.34952,4.10609 15.65451,5.93916 11.42769,4.86592 13.47069,5.64175 27.83024,10.56862 7.17498,2.4618 14.61087,5.15093 16.5242,5.97584 1.91333,0.82492 17.17647,6.48711 33.9181,12.58266 30.92111,11.25815 32.72613,11.94175 43.48474,16.46765 3.34833,1.4086 17.04604,6.5018 30.43934,11.3184 13.3933,4.8166 27.48234,10.0572 31.30899,11.6459 3.82666,1.5886 9.6971,3.8492 13.04543,5.0235 3.34832,1.1744 13.91511,5.1718 23.48176,8.8832 9.56664,3.7115 18.95935,7.3281 20.87267,8.037 1.91333,0.7089 10.52331,3.9325 19.13329,7.1636 8.60998,3.2312 18.39405,6.8365 21.74237,8.012 3.34833,1.1754 8.43604,3.0883 11.30604,4.2509 2.86999,1.1625 25.17766,9.4053 49.5726,18.3172 24.39494,8.912 45.71358,16.9326 47.37477,17.8236 1.66118,0.891 3.8222,1.62 4.80228,1.62 0.98007,0 5.09999,1.4691 9.15547,3.2646 4.05538,1.7955 14.02661,5.6489 22.15826,8.563 8.13164,2.9142 17.25126,6.3663 20.2658,7.6715 3.01454,1.3052 6.14544,2.3988 6.95756,2.4302 0.81212,0.031 4.60747,1.5199 8.43413,3.3078 3.82665,1.788 7.57017,3.2765 8.31915,3.3079 1.77661,0.074 37.10449,13.0349 43.86254,16.0915 11.05175,4.9984 23.98095,9.2807 25.01245,8.284 0.5931,-0.5732 1.3463,-32.757 1.6736,-71.5197 l 0.5954,-70.4775 6.3622,-0.9588 c 3.4993,-0.5274 8.4441,-1.2731 10.9883,-1.6571 3.1342,-0.4731 4.9737,0.1783 5.7043,2.0198 0.5931,1.495 1.0313,34.5861 0.9737,73.5357 -0.057,38.9496 -0.08,71.3853 -0.052,72.0793 0.096,2.273 3.6428,1.3451 17.6846,-4.6268 z M 1018.2882,732.99585 V 507.82013 l -9.1318,-4.57766 c -5.0225,-2.5177 -13.82816,-7.05496 -19.56814,-10.0828 -8.66008,-4.56815 -30.98027,-15.77112 -82.98489,-41.65163 -3.54836,-1.76589 -7.18177,-2.77418 -8.07425,-2.24065 -0.96571,0.57732 -1.27497,15.44932 -0.76412,36.73558 l 0.85874,35.76551 12.43385,20.18783 c 6.83859,11.10329 13.27938,21.70287 14.31292,23.55461 1.8034,3.23148 10.7616,18.12856 16.53307,27.49393 1.51675,2.46119 5.15399,8.63903 8.08277,13.72851 2.92896,5.08948 6.77562,11.72636 8.54841,14.74864 2.24051,3.81977 5.20443,6.01756 9.72162,7.20901 8.07286,2.12927 14.41311,7.67508 17.83744,15.60222 4.89308,11.32767 2.76789,21.3911 -6.37434,30.18483 -10.36137,9.96649 -32.8068,7.92116 -41.41626,-3.77406 -6.14665,-8.34964 -6.5328,-18.09937 -1.12886,-28.50609 l 4.51928,-8.70339 -7.19533,-11.2775 c -3.95764,-6.2026 -8.05303,-12.97508 -9.10119,-15.04992 -1.04815,-2.07484 -2.49272,-3.77835 -3.21021,-3.78556 -0.7175,-0.007 -1.30455,-0.84264 -1.30455,-1.8565 0,-1.01385 -1.44352,-3.85303 -3.20761,-6.30927 -1.76426,-2.45624 -5.94575,-9.38714 -9.29251,-15.40198 -3.34676,-6.01484 -11.10044,-18.88575 -17.23022,-28.60203 -6.12996,-9.71628 -12.12831,-19.55875 -13.32966,-21.87215 -1.55235,-2.98932 -2.30718,-17.07703 -2.60908,-48.69512 L 874.78847,436.15556 801.7341,400.6046 c -40.1799,-19.55301 -79.31617,-38.68144 -86.96949,-42.5076 -7.65331,-3.82617 -19.39419,-9.51259 -26.09084,-12.6365 -6.69665,-3.12392 -17.50327,-8.52046 -24.01473,-11.99231 -6.51144,-3.47187 -12.96892,-5.89308 -14.34996,-5.38047 -2.15867,0.80126 -2.51097,19.34272 -2.51097,132.15137 0,102.832 0.47037,131.63383 2.17424,133.13528 2.02573,1.78506 21.67967,11.93535 71.24356,36.7938 11.20153,5.61806 20.78991,10.21464 21.30752,10.21464 0.51761,0 0.94111,-23.96569 0.94111,-53.25711 v -53.25711 l -6.73783,-5.57862 c -19.39561,-16.05867 -7.9183,-48.38084 17.0612,-48.04737 8.62544,0.11508 14.92553,2.72111 20.9211,8.6538 4.52906,4.48155 8.72448,13.97272 8.75179,19.79887 0.0275,5.85228 -6.07144,15.71776 -12.29637,19.89049 l -6.82721,4.57643 v 86.57784 86.57785 l 13.00091,17.92727 c 7.15051,9.85999 13.82657,19.06293 14.83571,20.45097 13.32035,18.32186 24.34507,33.9516 24.34507,34.514 0,0.38692 9.78407,14.74665 21.74237,31.91052 l 21.74237,31.20702 0.0266,18.06252 c 0.0139,9.93438 0.60169,18.909 1.30454,19.94357 0.70285,1.03458 14.58424,8.47017 30.84762,16.52354 16.2633,8.05336 35.44007,17.67238 42.61505,21.37557 7.17498,3.7032 24.7863,12.63478 39.13627,19.84796 14.34996,7.21316 29.56857,15.06202 33.81917,17.44188 4.2505,2.37984 8.3598,3.94941 9.1317,3.48793 0.772,-0.46149 1.4036,-102.16812 1.4036,-226.01478 z m 38.2666,222.62413 c 4.305,-2.41568 25.4386,-13.07963 46.9635,-23.6977 21.525,-10.61805 39.919,-19.86228 40.8757,-20.54271 0.9566,-0.68044 4.4789,-2.25757 7.8272,-3.50476 3.3484,-1.24716 9.4145,-4.43888 13.4803,-7.09269 l 7.3924,-4.8251 v -57.48019 -57.48018 l -7.3924,-7.28583 c -7.2296,-7.12536 -7.3924,-7.53712 -7.3924,-18.69416 0,-13.72618 4.5711,-21.62206 15.0631,-26.01876 8.2308,-3.44917 13.6721,-3.54287 21.5213,-0.37059 12.5273,5.063 19.4697,17.198 17.4162,30.4432 -1.0877,7.01558 -4.5259,11.58878 -13.5194,17.98136 -2.7272,1.93863 -3.02,6.98301 -3.1829,54.85817 -0.099,28.99777 0.2842,53.17161 0.8507,53.71961 0.5665,0.54801 4.3471,-0.72591 8.4011,-2.83091 4.054,-2.105 14.0241,-7.27355 22.1558,-11.48566 8.1316,-4.21212 39.832,-19.93289 70.4453,-34.93505 52.0086,-25.48709 101.0107,-49.91824 113.0603,-56.36894 l 5.2182,-2.79354 0.4491,-96.17716 c 0.3,-64.26134 -0.1374,-96.17718 -1.3173,-96.17718 -0.9716,0 -5.4787,1.875 -10.0157,4.16666 -4.5372,2.29168 -13.6874,6.5156 -20.3338,9.38652 -13.4646,5.81599 -12.9146,5.29437 -26.5071,25.1437 -5.3862,7.86556 -15.5394,22.65632 -22.5628,32.86836 -12.6924,18.45479 -12.7698,18.63581 -12.7698,29.86196 0,10.8863 0.2498,11.54356 6.9087,18.18055 4.1651,4.15153 7.3585,9.20543 8.0414,12.72705 3.6943,19.0473 -7.4147,32.54753 -26.7823,32.54753 -16.2245,0 -27.2237,-11.9274 -25.9656,-28.15665 0.573,-7.39114 1.8495,-10.14649 7.9344,-17.12658 7.2465,-8.31269 7.2514,-8.32792 7.2514,-22.40139 v -14.08303 l 10.4998,-15.05839 c 5.7749,-8.28212 18.43,-26.56101 28.1224,-40.61977 l 17.6225,-25.56137 17.4459,-8.08808 c 9.5953,-4.44844 22.9659,-10.73798 29.7124,-13.97674 l 12.2664,-5.88866 0.4468,-115.67 c 0.2458,-63.6185 -0.1932,-115.67 -0.9756,-115.67 -0.7824,0 -18.5948,8.44963 -39.5831,18.77694 -20.9884,10.32732 -46.7706,23.00895 -57.294,28.18141 l -19.1332,9.40449 -0.8697,44.58553 c -0.7793,39.95092 -0.5716,44.84786 1.9978,47.10923 1.5773,1.38804 4.9025,4.30533 7.3893,6.48286 11.3043,9.89834 7.4856,32.76913 -6.6563,39.866 -12.915,6.48112 -26.628,3.61855 -35.2682,-7.36216 -4.6315,-5.8862 -5.7292,-8.82307 -5.7292,-15.32808 0,-8.36909 4.9179,-17.63562 12.5194,-23.58955 3.3824,-2.64921 3.6267,-4.92152 4.3179,-40.15561 0.6422,-32.74419 0.3973,-37.47192 -1.9867,-38.35683 -1.4956,-0.55512 -3.6935,-0.22715 -4.8843,0.72881 -1.1909,0.95598 -12.726,6.78671 -25.6339,12.9572 -12.9078,6.1705 -30.1218,14.45969 -38.2535,18.42042 l -14.7848,7.20135 -0.8819,56.16893 c -0.8606,54.81882 -0.9756,56.29631 -4.7833,61.46872 -2.1459,2.91489 -3.9014,5.82316 -3.9014,6.46282 0,0.63966 -1.7612,3.54806 -3.9137,6.46312 -2.1525,2.91505 -5.3815,7.95315 -7.1755,11.19579 -1.794,3.24263 -3.7668,6.27426 -4.3839,6.73694 -0.617,0.46268 -2.0788,2.73402 -3.2482,5.04742 -1.1694,2.3134 -3.1102,5.69172 -4.313,7.5074 -3.4634,5.22825 -9.9216,15.7688 -14.3158,23.36524 -2.2216,3.84064 -9.8319,16.06835 -16.9118,27.17267 l -12.8727,20.18967 -22.8496,10.93608 c -12.5675,6.01484 -27.7929,13.20741 -33.8341,15.98349 l -10.9844,5.04742 -0.4457,129.97102 c -0.2451,71.48406 0.1461,129.9619 0.8697,129.95074 0.7234,-0.0118 4.8376,-1.99671 9.1426,-4.41238 z m 719.2377,-70.25542 c 38.2666,-18.27916 71.141,-34.07428 73.0544,-35.10027 3.3582,-1.8008 46.8292,-22.7398 90.8831,-43.77629 11.7191,-5.59611 21.3075,-10.74427 21.3075,-11.44036 0,-0.69609 -5.6747,-3.27849 -12.6106,-5.73865 -6.9358,-2.46016 -14.3501,-5.15054 -16.4763,-5.97862 -2.1263,-0.82806 -9.9535,-3.48041 -17.3939,-5.89408 -7.4404,-2.41368 -15.8763,-5.38639 -18.7463,-6.60601 -2.87,-1.21963 -13.4368,-4.99835 -23.4818,-8.39716 -10.0449,-3.3988 -19.829,-6.84913 -21.7423,-7.6674 -1.9134,-0.81827 -7.2315,-2.66401 -11.8183,-4.10165 -4.5866,-1.43762 -25.0095,-8.66833 -45.3842,-16.06822 -20.3747,-7.39988 -37.804,-13.45435 -38.7322,-13.45435 -0.9281,0 -4.7698,-1.42242 -8.537,-3.16096 -3.7671,-1.73853 -18.1989,-7.11161 -32.0705,-11.94015 -13.8716,-4.82857 -26.7866,-9.40802 -28.6999,-10.17657 -1.9134,-0.76854 -15.611,-5.67152 -30.4393,-10.89548 -14.8283,-5.22396 -28.526,-10.13809 -30.4394,-10.92027 -1.9133,-0.78219 -12.4801,-4.56142 -23.4817,-8.39829 -22.8346,-7.96364 -36.4616,-12.80281 -45.2242,-16.05979 -3.3483,-1.24456 -13.9151,-4.9825 -23.4817,-8.30657 -9.5667,-3.32407 -18.9594,-6.6909 -20.8727,-7.48187 -3.5228,-1.4563 -11.1015,-4.33672 -44.706,-16.99149 -10.2382,-3.85552 -19.4352,-6.51969 -20.4378,-5.92037 -1.2308,0.73588 -1.8227,28.05626 -1.8227,84.14369 v 83.05402 l 4.5915,5.27802 c 2.6282,3.02133 3.9296,5.8862 3.0439,6.70043 -2.0892,1.92021 -13.3102,8.04505 -25.3817,13.85417 -10.6009,5.10138 -13.4317,7.66012 -9.7594,8.82079 8.1693,2.58182 43.2105,15.0751 47.5087,16.93827 2.87,1.24407 13.0454,5.03191 22.612,8.41741 9.5667,3.38551 27.178,9.8328 39.1363,14.3273 11.9583,4.49451 37.3969,13.95914 56.5302,21.03254 19.1333,7.07341 37.136,13.84371 40.0059,15.04513 2.87,1.20142 9.9146,3.7717 15.6546,5.71173 5.7399,1.94002 22.9599,8.38938 38.2665,14.3319 15.3067,5.94253 28.2216,10.63579 28.7,10.42945 0.4783,-0.20634 32.1787,-15.33082 70.4453,-33.60998 z M 371.23515,915.39708 c 4.30499,-1.39963 9.3927,-3.21098 11.30603,-4.02523 4.12317,-1.7547 44.58143,-16.83065 64.35742,-23.98151 15.54957,-5.62261 25.29483,-9.24332 33.04841,-12.2787 2.86999,-1.12356 7.9577,-3.00228 11.30603,-4.17494 3.34832,-1.17267 8.55434,-3.17902 11.56891,-4.45856 3.01457,-1.27955 6.35178,-2.32645 7.41601,-2.32645 1.06422,0 3.2941,-0.66878 4.95529,-1.48618 3.97886,-1.95783 10.30903,-4.43002 17.80514,-6.95364 3.34833,-1.12726 8.43604,-3.03693 11.30603,-4.24374 2.87,-1.20682 20.48132,-7.59232 39.13627,-14.19002 32.98817,-11.66693 42.24776,-15.06094 53.05141,-19.44547 2.86999,-1.16476 7.80347,-2.64511 10.9633,-3.28969 3.15983,-0.64457 5.46542,-1.9837 5.12353,-2.97582 -0.34191,-0.99214 -7.01708,-4.51946 -14.83373,-7.83849 -20.88566,-8.8683 -27.65694,-16.18155 -20.38639,-22.01812 3.71598,-2.98307 3.95723,-134.20302 0.24927,-135.57934 -1.2979,-0.48176 -6.58129,0.95565 -11.7409,3.19421 -5.15958,2.23856 -13.29469,5.39793 -18.07801,7.02081 -20.04174,6.79973 -34.03927,11.73846 -50.4423,17.79751 -16.0023,5.91102 -53.38794,19.34858 -72.18468,25.9454 -10.47469,3.67615 -37.27037,12.83264 -56.53016,19.31721 -8.60998,2.8989 -17.21996,5.94761 -19.13329,6.77491 -1.91333,0.82731 -11.30603,4.23472 -20.87267,7.57202 -9.56665,3.33732 -20.13344,7.08266 -23.48177,8.32298 -3.34832,1.24033 -12.34966,4.24885 -20.00298,6.68557 -7.65331,2.43674 -15.48056,5.11484 -17.39389,5.95133 -3.70059,1.61785 -9.26671,3.59718 -50.4423,17.93743 -14.34997,4.99767 -27.6563,9.79963 -29.56963,10.67105 -1.91333,0.8714 -7.00104,2.68691 -11.30603,4.03443 -4.30499,1.34753 -16.04587,5.47226 -26.09085,9.16608 -10.04497,3.69384 -22.95994,8.24499 -28.69992,10.11372 -15.46749,5.03559 -36.04211,12.12534 -40.00597,13.78552 -1.91333,0.80136 -5.283,1.94741 -7.48816,2.54678 -5.85466,1.5913 -3.82429,4.4761 4.98779,7.08674 4.24519,1.25768 10.06672,3.33291 12.93671,4.61162 2.87,1.27873 10.30589,3.98005 16.5242,6.00293 6.21832,2.02289 13.65421,4.67139 16.52421,5.88555 2.86999,1.21417 11.08861,4.17113 18.26359,6.57103 7.17498,2.39989 14.61087,5.0635 16.5242,5.9191 1.91332,0.85561 11.30603,4.30118 20.87267,7.6568 9.56665,3.35563 22.22375,7.94015 28.12691,10.18783 5.90314,2.24767 11.26392,4.08668 11.91285,4.08668 0.64892,0 3.64632,1.03283 6.66089,2.29519 6.61787,2.77125 16.12305,6.33767 28.9628,10.86711 5.26166,1.85614 21.69889,7.95599 36.52719,13.55525 14.82829,5.59925 27.74326,10.19561 28.69993,10.21415 0.95666,0.0185 5.26165,-1.11142 9.56664,-2.51104 z m 467.47778,-56.42573 c 0.45038,-9.09467 0.39961,-9.19264 -17.8054,-34.35777 -10.04137,-13.8804 -19.8412,-27.88699 -21.77738,-31.12575 -5.11353,-8.55365 -7.70134,-12.50609 -8.81267,-13.45978 -0.53915,-0.46268 -11.27967,-15.81356 -23.8678,-34.11306 l -22.88754,-33.27184 -0.48365,-22.91053 c -0.38564,-18.26846 -1.01229,-23.19629 -3.09272,-24.32082 -1.435,-0.77565 -6.91408,-3.79627 -12.17573,-6.71248 -5.26166,-2.91619 -21.69889,-11.38258 -36.52719,-18.81417 -14.82829,-7.4316 -29.70007,-15.16204 -33.0484,-17.17877 -3.34833,-2.01671 -7.06627,-3.34413 -8.2621,-2.94979 -1.69752,0.55976 -2.17424,17.84427 -2.17424,78.83339 v 78.11642 l 11.74088,5.62245 c 19.57974,9.37629 130.29121,63.97254 153.50114,75.69754 11.95831,6.04099 22.5251,10.77707 23.48176,10.52463 0.95667,-0.25246 1.94264,-4.56331 2.19104,-9.57967 z M 1071.452,663.94436 c 11.4182,-5.54835 21.3385,-10.09103 22.045,-10.09483 1.8535,-0.0101 8.2819,-5.55731 8.2819,-7.14681 0,-1.40046 8.7412,-14.94425 10.5941,-16.41474 0.5831,-0.46268 1.3731,-1.59845 1.7558,-2.52395 1.8044,-4.36485 40.0527,-65.51268 48.7038,-77.86332 l 5.0431,-7.19969 v -47.06006 c 0,-49.77893 -0.04,-50.00514 -7.875,-44.76582 -1.8871,1.26182 -22.9991,11.98555 -46.9157,23.83049 -23.9166,11.84495 -48.7682,24.15718 -55.2257,27.36053 l -11.7408,5.82426 v 83.07093 c 0,67.51353 0.4282,83.07092 2.2866,83.07092 1.2577,0 11.6288,-4.53957 23.0469,-10.08791 z m -25.8075,-187.03417 c 5.5224,-2.9261 20.216,-10.17697 32.6527,-16.11302 12.4366,-5.93607 25.3516,-12.26136 28.6999,-14.0562 3.3483,-1.79485 14.4867,-7.22563 24.7519,-12.0684 10.2651,-4.84276 18.6794,-9.62391 18.6984,-10.62474 0.019,-1.00084 -9.9453,-6.78114 -22.1428,-12.84513 -12.1974,-6.06397 -29.9342,-14.8983 -39.4151,-19.63181 l -17.238,-8.60641 h -39.34 c -30.4433,0 -40.11607,0.52034 -42.77108,2.30085 -1.88706,1.26547 -19.28113,10.00493 -38.65358,19.42104 -19.37246,9.41609 -35.22265,17.81274 -35.22265,18.65921 0,0.84648 5.2834,4.10108 11.74088,7.23244 39.66418,19.23396 91.25763,45.49235 96.92313,49.32898 5.2327,3.54344 10.3237,2.82768 21.3163,-2.99681 z M 897.92938,406.25204 c 13.4293,-7.20364 14.12993,-7.56043 22.08329,-11.24634 3.82666,-1.77344 20.13552,-9.69812 36.24192,-17.61042 l 29.28437,-14.386 47.24884,-0.36411 47.2488,-0.3641 27.8302,13.94635 c 15.3066,7.67051 31.3574,15.92055 35.6683,18.33346 4.3109,2.4129 13.7304,7.28389 20.9321,10.82444 l 13.0942,6.43734 20.8131,-9.93489 c 65.9064,-31.45944 198.3103,-96.70229 198.7618,-97.94097 0.2919,-0.80111 -7.144,-4.97852 -16.5242,-9.28315 -9.3803,-4.30462 -20.6069,-9.62823 -24.948,-11.83022 -4.3412,-2.202 -31.4374,-15.48445 -60.2139,-29.51656 l -52.3208,-25.51294 -23.3571,11.12261 -23.357,11.1226 H 1092.5226 988.63003 l -17.78457,-8.98544 c -9.78146,-4.94197 -26.39437,-13.38856 -36.91767,-18.77017 -10.52331,-5.3816 -25.959,-13.21047 -34.30146,-17.39749 l -15.168,-7.61273 -75.2802,36.74017 c -41.40412,20.2071 -89.36928,43.62538 -106.58924,52.04063 -18.99492,9.28264 -31.30902,16.26336 -31.30902,17.74871 0,1.55138 39.50627,21.6971 107.84216,54.99275 59.31319,28.89946 108.08018,52.59319 108.37101,52.65272 0.29082,0.0596 4.98718,-2.28329 10.43634,-5.20625 z m 270.81602,-76.80905 c -10.6422,-1.99939 -14.9218,-15.60707 -7.7009,-24.48659 2.7423,-3.37217 5.1357,-4.42413 10.0015,-4.39566 8.827,0.0516 14.2555,4.52585 15.3793,12.67618 1.4774,10.71305 -6.7544,18.25863 -17.6799,16.20607 z m 35.1757,-107.38404 c 7.2707,-3.29259 12.4069,-6.55737 11.5643,-7.35068 -0.8336,-0.78494 -26.9544,-13.84929 -58.046,-29.03185 -31.0916,-15.18259 -66.7056,-32.7734 -79.1422,-39.0907 -12.4367,-6.31731 -27.5349,-13.96939 -33.5518,-17.00464 l -10.9396,-5.51861 -62.11482,30.32912 c -34.16318,16.68101 -62.29468,30.50142 -62.51454,30.71203 -0.33431,0.32017 64.62929,32.86857 82.44186,41.30538 4.81793,2.282 17.6557,2.54428 102.3659,2.09133 l 96.8569,-0.5179 z M 50.014717,1665.876 c -5.552411,-3.7616 -7.584731,-10.9825 -4.857159,-17.2571 4.122962,-9.4847 15.296889,-11.814 22.633147,-4.7178 12.265568,11.8643 -3.653222,31.5433 -17.775988,21.9749 z m 106.326753,-1.6321 c -6.12074,-5.9205 -5.96701,-16.2066 0.31363,-20.9853 15.50334,-11.796 33.791,6.7627 19.9022,20.1969 -6.48728,6.2751 -14.23133,6.5769 -20.21583,0.7884 z m 60.95821,-1.224 c -3.64221,-4.1869 -4.42824,-6.461 -3.60664,-10.4345 2.416,-11.6848 14.7553,-16.5467 24.04875,-9.4756 11.71123,8.9106 4.13509,25.2637 -11.7043,25.2637 -2.45056,0 -5.94099,-2.1386 -8.73781,-5.3536 z M 263.44126,566.76026 c -20.43717,-9.91457 -7.85841,-39.87563 14.26101,-33.968 11.56553,3.08889 17.84596,15.43264 12.72538,25.01074 -5.35277,10.01239 -16.90649,13.84728 -26.98639,8.95726 z M 1786.767,517.8765 c -11.8692,-6.95716 -10.8766,-28.33454 1.5705,-33.82029 13.2969,-5.86022 28.1531,2.28601 28.2727,15.50306 0.1496,16.55427 -15.9703,26.44864 -29.8432,18.31723 z m -175.2206,-6.42975 c -4.6339,-5.69815 -4.8096,-15.86309 -0.342,-19.77393 5.4542,-4.77444 14.2809,-5.24732 19.7844,-1.05993 10.4304,7.93611 3.7108,25.26694 -9.7968,25.26694 -4.4541,0 -6.9875,-1.16434 -9.6456,-4.43308 z M 372.10485,451.68554 c -8.99415,-4.75844 -10.7083,-15.61307 -3.55784,-22.52953 11.74128,-11.35709 31.29627,2.0791 23.50926,16.15316 -1.88802,3.41234 -10.38344,8.35465 -14.21203,8.268 -1.24333,-0.0281 -3.82607,-0.87937 -5.73939,-1.89163 z m 66.3662,0.2013 c -15.56488,-4.46001 -11.43781,-26.86054 4.94877,-26.86054 12.47696,0 19.10977,13.71787 10.87119,22.48359 -4.72265,5.02484 -9.21825,6.26864 -15.81996,4.37695 z M 1611.4643,394.78459 c -11.4819,-11.10627 0.4651,-28.27971 16.098,-23.1401 9.306,3.05951 12.0601,15.76704 5.097,23.51792 -3.7863,4.21476 -16.6848,3.98484 -21.195,-0.37782 z m 124.9875,0.79415 c -5.761,-3.02837 -7.6749,-11.05745 -4.1895,-17.57669 6.6264,-12.39473 27.0471,-7.10472 26.9794,6.98905 -0.031,6.48695 -1.2066,8.54646 -6.3818,11.1813 -5.0186,2.55512 -10.8172,2.34533 -16.4081,-0.59366 z M 614.8085,140.22163 c -5.76535,-2.82189 -8.15459,-11.14287 -5.10989,-17.79622 6.3722,-13.92472 27.66318,-9.58345 27.66318,5.64059 0,11.37895 -11.48895,17.57119 -22.55329,12.15563 z M 432.92041,128.8455 c -19.64645,-9.99688 -20.52102,-36.491617 -1.53135,-46.392936 3.89926,-2.0331 8.08744,-2.577851 15.34409,-1.995766 8.49109,0.681116 10.85898,1.657471 15.8629,6.540882 17.02886,16.61866 8.62933,41.67714 -14.91427,44.49403 -5.87312,0.70271 -9.43462,0.0643 -14.76137,-2.64621 z m 1150.66949,1.64518 c -7.1969,-2.86118 -10.3551,-8.27807 -10.3977,-17.83415 -0.035,-7.72771 0.5748,-9.18273 5.5354,-13.220144 4.8504,-3.947855 6.6999,-4.43207 14.2485,-3.730479 11.0932,1.031019 16.6831,6.928923 16.6959,17.615763 0.017,13.06509 -13.6978,22.09241 -26.0821,17.16901 z"
       id="path827"
       sodipodi:nodetypes="ssssssssssssssssssscccssssssssssssssssssssssssssssssssssssssssssssssssssssssssssssssssssssssscccssssssssssssssssssssssssscsssssssssssscssssssssscssssssssssssssssssssssssssssssscssssssscssssssssssssssssssssssssssssssssssssssssssssssssscssssssssssssssssssssssssssssssssssscssscssssssssssssssssssssssscsssssssssssssssssssssssssssssssssssssssssssssssssssssssssssssssssssssssssssssssssssssssssssssssssssssssssssssssssssssssssssssssssssssssscsssssssssssssssssssssssssssssssssssssssssssssssssssssssssssssssssssssssssssssssssssssscsssscssscssssscsssssssssscsscsssssscsssssssssscssssscccssssccsssssssssssscccsssssssssssscsssssssscsssscsscsscsssscsssssssssssscsssssssssscsscscsssssssssssssssssssssssssscsssssssssssssssssssssssssssssssssssssssssssssssssssssssssssssssssscssssssscsssssssssscsssscsssssssssscsssssssssscccssscssssscccccssscsssssssssssssssscsssscssssssssssssssssssssssssssssssssssssssssssssssssssssssssssscs" />
  </g>
</svg>
