<?xml version="1.0" encoding="UTF-8" standalone="no"?>
<svg
   version="1.1"
   viewBox="-5 -10 137 135"
   id="svg8"
   sodipodi:docname="banner-course.svg"
   inkscape:version="1.1.2 (0a00cf5339, 2022-02-04)"
   width="137"
   height="135"
   xmlns:inkscape="http://www.inkscape.org/namespaces/inkscape"
   xmlns:sodipodi="http://sodipodi.sourceforge.net/DTD/sodipodi-0.dtd"
   xmlns="http://www.w3.org/2000/svg"
   xmlns:svg="http://www.w3.org/2000/svg">
  <defs
     id="defs12" />
  <sodipodi:namedview
     id="namedview10"
     pagecolor="#ffffff"
     bordercolor="#666666"
     borderopacity="1.0"
     inkscape:pageshadow="2"
     inkscape:pageopacity="0.0"
     inkscape:pagecheckerboard="0"
     showgrid="false"
     inkscape:zoom="2.8962963"
     inkscape:cx="44.367008"
     inkscape:cy="89.424552"
     inkscape:window-width="1360"
     inkscape:window-height="661"
     inkscape:window-x="0"
     inkscape:window-y="0"
     inkscape:window-maximized="1"
     inkscape:current-layer="svg8"
     fit-margin-left="3.4"
     showguides="false" />
  <path
     d="M 127.89055,45.888123 109.86842,35.172826 c -0.40732,-0.249596 -0.91376,-0.249596 -1.3266,0 l -8.22938,4.895355 -17.686734,-14.527346 c 0.280738,-0.260939 0.451378,-0.623976 0.451378,-1.015375 V 3.0771478 c 0,-0.4934997 -0.253219,-0.9416342 -0.660559,-1.1741973 L 64.388781,-8.8180091 c -0.407341,-0.2495963 -0.913773,-0.2495963 -1.326624,0 L 45.040049,1.8972871 C 44.63271,2.146883 44.379493,2.595005 44.379493,3.0714842 V 24.519799 c 0,0.391396 0.170637,0.754435 0.451376,1.015373 L 27.144148,40.062518 18.91477,35.167162 c -0.407339,-0.249597 -0.913773,-0.249597 -1.326624,0 L -0.43396266,45.888123 C -0.8413027,46.132042 -1.0945196,46.58584 -1.0945196,47.07934 v 21.448311 c 0,0.4935 0.2532169,0.941635 0.66055694,1.174197 L 17.588146,80.417144 c 0.209181,0.113442 0.434861,0.187197 0.660558,0.187197 0.225694,0 0.451376,-0.05673 0.660557,-0.187197 l 15.798408,-9.393692 17.658538,14.504549 -7.326652,4.356462 c -0.40734,0.249594 -0.660556,0.697715 -0.660556,1.174194 v 21.448323 c 0,0.49348 0.253216,0.94162 0.660556,1.1742 l 18.022107,10.71529 c 0.214677,0.1418 0.440375,0.19853 0.666069,0.19853 0.225696,0 0.451376,-0.0567 0.660557,-0.18719 l 18.022108,-10.7153 c 0.40734,-0.24961 0.660558,-0.69771 0.660558,-1.17419 l 0.0054,-21.452677 c 0,-0.4935 -0.253216,-0.941635 -0.660555,-1.174198 l -7.326652,-4.35646 17.658538,-14.504548 15.798415,9.393694 c 0.20918,0.113441 0.43486,0.187195 0.66055,0.187195 0.2257,0 0.45139,-0.05673 0.66055,-0.187195 l 18.02213,-10.715299 c 0.40733,-0.249594 0.66056,-0.697716 0.66056,-1.174197 V 47.081969 c 0,-0.493502 -0.25323,-0.947301 -0.66056,-1.191215 z m -18.68866,-7.958528 10.41475,6.199969 -2.71932,1.61102 -5.84587,-3.471518 c -0.40734,-0.249596 -0.91378,-0.249596 -1.32663,0 l -3.45138,2.064817 c -0.42386,-0.277956 -0.91378,-0.436778 -1.45316,-0.436778 -1.53574,0 -2.7909,1.293316 -2.7909,2.87599 0,1.582673 1.25506,2.875992 2.7909,2.875992 1.53585,0 2.7909,-1.293319 2.7909,-2.875992 0,-0.02837 -0.0165,-0.05673 -0.0165,-0.07375 l 2.79089,-1.656326 5.84588,3.471518 c 0.20918,0.113442 0.43488,0.187198 0.66055,0.187198 0.22571,0 0.45139,-0.05673 0.66057,-0.187198 l 4.70641,-2.802216 2.3119,1.378413 -15.37424,9.149729 -15.374248,-9.149729 z M 73.564921,18.093173 c -0.577991,-0.465138 -1.409187,-0.380058 -1.86055,0.21556 -0.451378,0.595615 -0.368813,1.452154 0.209179,1.917277 l 6.060637,4.969126 -12.924934,7.680586 V 14.57568 L 80.423497,5.4259486 V 23.725993 Z m -9.836839,-4.282689 z m 0,-19.8814393 L 74.14283,0.12901535 71.423519,1.740035 65.577642,-1.7314831 c -0.40734,-0.2495834 -0.913773,-0.2495834 -1.326624,0 l -3.451382,2.06481525 c -0.423856,-0.2779546 -0.913775,-0.4367776 -1.453155,-0.4367776 -1.535734,0 -2.7909,1.29331605 -2.7909,2.87599085 0,1.5826725 1.255053,2.8759898 2.7909,2.8759898 1.535845,0 2.790896,-1.2933173 2.790896,-2.8759898 0,-0.028363 -0.0165,-0.056726 -0.0165,-0.073745 l 2.790897,-1.6563252 5.845875,3.4715193 c 0.209182,0.1134418 0.434863,0.1871978 0.660558,0.1871978 0.225697,0 0.451377,-0.056726 0.660558,-0.1871978 l 4.7064,-2.8022206 2.311913,1.3784141 -15.368607,9.13841 L 48.354227,3.0788668 Z M 47.026385,5.4441873 62.400627,14.59392 v 18.30004 l -12.924932,-7.680585 6.060636,-4.969126 c 0.577994,-0.465137 0.660557,-1.321692 0.20918,-1.917278 -0.451378,-0.595614 -1.282586,-0.680697 -1.860551,-0.215556 l -6.864298,5.632758 z M 18.25358,37.93032 33.627823,47.080051 18.25358,56.229782 2.8793346,47.080051 l 2.311914,-1.378414 4.706406,2.802221 c 0.2091804,0.113441 0.4348634,0.187198 0.6605584,0.187198 0.225696,0 0.451377,-0.05673 0.660557,-0.187198 l 5.845877,-3.471518 2.790897,1.656328 c 0,0.02837 -0.0165,0.05673 -0.0165,0.07376 0,1.582559 1.25505,2.875992 2.790898,2.875992 1.535732,0 2.790895,-1.293318 2.790895,-2.875992 0,-1.582674 -1.255049,-2.875992 -2.790895,-2.875992 -0.533956,0 -1.029371,0.158839 -1.453157,0.436779 l -3.451387,-2.064816 c -0.407341,-0.249597 -0.913776,-0.249597 -1.326624,0 L 10.552891,45.729905 7.8335792,44.118886 Z M 1.5518794,49.428475 16.926124,58.578205 V 76.878244 L 14.5701,75.471472 v -5.853923 c 0,-0.493497 -0.253214,-0.941633 -0.660556,-1.174195 L 9.3461696,65.726229 v -3.09149 c 0.8752334,-0.493503 1.4642894,-1.423795 1.4642894,-2.512953 0,-1.582558 -1.2550534,-2.875991 -2.7909001,-2.875991 -1.5358455,0 -2.7908964,1.293317 -2.7908964,2.875991 0,1.089115 0.5945089,2.030691 1.4642873,2.512953 v 3.880009 c 0,0.4935 0.2532175,0.941634 0.6605575,1.174198 l 4.5633737,2.717122 v 3.482846 L 1.5461018,67.717262 Z M 19.579625,76.877083 v -18.30004 l 15.374244,-9.149731 v 18.300043 l -6.864298,-5.632759 c -0.577992,-0.46514 -1.409187,-0.38006 -1.86055,0.215556 -0.451362,0.595615 -0.368813,1.452155 0.20918,1.917279 l 6.060636,4.969127 z m 59.521292,14.186819 -15.374242,9.149728 -15.374245,-9.149728 2.311914,-1.378416 4.706409,2.80222 c 0.209178,0.113443 0.434859,0.187199 0.660555,0.187199 0.225695,0 0.451376,-0.05673 0.660557,-0.187199 l 5.845877,-3.471517 2.790897,1.656328 c 0,0.02836 -0.0165,0.05673 -0.0165,0.07376 0,1.582557 1.25505,2.875989 2.790897,2.875989 1.535733,0 2.790897,-1.293317 2.790897,-2.875989 0,-1.582675 -1.255065,-2.875991 -2.790897,-2.875991 -0.533955,0 -1.02937,0.158822 -1.453154,0.436778 l -3.451385,-2.064822 c -0.407341,-0.249598 -0.913775,-0.249598 -1.326624,0 L 56.025995,89.713759 53.306686,88.10274 63.72693,81.914096 Z m -32.075941,2.365412 15.374243,9.149716 v 18.30004 l -2.356022,-1.40677 v -5.89369 c 0,-0.49353 -0.253218,-0.94164 -0.66056,-1.17421 l -4.563372,-2.71712 v -3.0915 c 0.875233,-0.49348 1.464288,-1.42379 1.464288,-2.51295 0,-1.58255 -1.255052,-2.87597 -2.790897,-2.87597 -1.535734,0 -2.790898,1.2933 -2.790898,2.87597 0,1.08913 0.594509,2.03068 1.464287,2.51295 v 3.88003 c 0,0.49349 0.253219,0.94163 0.66056,1.17419 l 4.563373,2.71712 v 3.52829 l -10.370781,-6.17164 z m 18.027745,27.432646 v -18.30005 l 15.374243,-9.149733 v 12.371643 l -4.678929,2.81919 -2.66421,-1.56556 v -0.0568 c 0,-1.58256 -1.255052,-2.87598 -2.790898,-2.87598 -1.535846,0 -2.790896,1.29331 -2.790896,2.87598 0,1.58268 1.25505,2.87601 2.790896,2.87601 0.533956,0 1.040374,-0.15884 1.464288,-0.4368 l 3.324839,1.96272 c 0.198158,0.11346 0.423854,0.17586 0.660556,0.17586 0.225695,0 0.462384,-0.0567 0.660557,-0.1872 l 4.001814,-2.41087 v 2.75676 z M 64.386654,79.157547 c -0.407341,-0.249597 -0.913776,-0.249597 -1.326624,0 L 54.830652,84.052903 37.149568,69.525556 c 0.280738,-0.260937 0.451377,-0.623977 0.451377,-1.015376 V 47.079296 c 0,-0.4935 -0.253218,-0.941635 -0.660558,-1.174198 l -7.326651,-4.35646 17.658537,-14.504549 15.79841,9.393694 c 0.20918,0.113442 0.434861,0.187197 0.660557,0.187197 0.225694,0 0.451376,-0.05673 0.660556,-0.187197 l 15.79841,-9.393694 17.65854,14.504549 -7.326655,4.35646 c -0.407339,0.249597 -0.660556,0.697717 -0.660556,1.174198 v 21.44831 c 0,0.3914 0.170639,0.754437 0.451377,1.015376 L 72.614917,84.064519 Z M 101.22424,62.309659 c -0.45137,-0.595617 -1.282583,-0.680697 -1.860543,-0.215557 l -6.864301,5.632759 V 49.426819 l 15.374244,9.149729 v 18.300041 l -12.924935,-7.680586 6.060645,-4.969125 c 0.58349,-0.476495 0.68257,-1.333033 0.21467,-1.917278 z m 14.30609,11.588911 v -3.482844 l 4.56337,-2.717124 c 0.40734,-0.249583 0.66056,-0.697717 0.66056,-1.174196 v -3.880011 c 0.87523,-0.4935 1.4643,-1.423792 1.4643,-2.512953 0,-1.582555 -1.25506,-2.87599 -2.7909,-2.87599 -1.53585,0 -2.7909,1.293317 -2.7909,2.87599 0,1.089116 0.5945,2.030693 1.46428,2.512953 v 3.09149 l -4.56337,2.717123 c -0.40735,0.249598 -0.66056,0.697718 -0.66056,1.1742 v 5.853922 l -2.35601,1.406773 V 58.587862 l 15.37422,-9.149731 v 18.300041 z"
     fill-rule="evenodd"
     id="path2"
     style="stroke-width:1.43052" />
</svg>
