<?xml version="1.0" encoding="UTF-8" standalone="no"?>
<svg
   version="1.1"
   viewBox="-5.0 -10.0 110.0 135.0"
   id="svg8"
   sodipodi:docname="banner-course.svg"
   inkscape:version="1.1.2 (0a00cf5339, 2022-02-04)"
   xmlns:inkscape="http://www.inkscape.org/namespaces/inkscape"
   xmlns:sodipodi="http://sodipodi.sourceforge.net/DTD/sodipodi-0.dtd"
   xmlns="http://www.w3.org/2000/svg"
   xmlns:svg="http://www.w3.org/2000/svg">
  <defs
     id="defs12" />
  <sodipodi:namedview
     id="namedview10"
     pagecolor="#ffffff"
     bordercolor="#666666"
     borderopacity="1.0"
     inkscape:pageshadow="2"
     inkscape:pageopacity="0.0"
     inkscape:pagecheckerboard="0"
     showgrid="false"
     inkscape:zoom="3.7080512"
     inkscape:cx="44.767451"
     inkscape:cy="71.870636"
     inkscape:window-width="1920"
     inkscape:window-height="946"
     inkscape:window-x="0"
     inkscape:window-y="0"
     inkscape:window-maximized="1"
     inkscape:current-layer="svg8" />
  <path
     d="m 94.108493,47.012797 c 0.710361,0 1.289738,0.553395 1.289738,1.2319 V 63.02751 c 0,0.678507 -0.579377,1.231902 -1.289738,1.231902 -0.710362,0 -1.289737,-0.553395 -1.289737,-1.231902 V 48.244697 c 0,-0.678505 0.579375,-1.2319 1.289737,-1.2319 z m -31.508284,-26.36022 18.056323,8.117982 c 0.181376,0.07218 0.362739,0.125112 0.544115,0.125112 0.488694,0 0.952187,-0.259857 1.173867,-0.702565 0.307319,-0.615951 0.02519,-1.357063 -0.61968,-1.636088 L 63.698511,18.439036 c -0.644869,-0.293538 -1.420775,-0.02406 -1.712901,0.591892 -0.302288,0.596708 -0.03022,1.337721 0.614638,1.621674 z m -43.296484,8.238339 c 0.181363,0 0.372812,-0.0385 0.544115,-0.125112 l 18.056323,-8.117982 c 0.644869,-0.293538 0.916926,-1.020162 0.61968,-1.636088 -0.297246,-0.61595 -1.068057,-0.885428 -1.7129,-0.591891 L 18.75462,26.537824 c -0.644869,0.293538 -0.916926,1.020163 -0.619681,1.636088 0.226711,0.457147 0.690216,0.717004 1.168826,0.717004 z M 5.1166142,48.245314 v 14.782813 c 0,0.678506 0.5793757,1.231901 1.2897376,1.231901 0.7103618,0 1.2897374,-0.553395 1.2897374,-1.231901 V 48.245314 c 0,-0.678507 -0.5793756,-1.231901 -1.2897374,-1.231901 -0.7103619,0 -1.2897376,0.553394 -1.2897376,1.231901 z M 37.914636,90.611624 19.858313,82.493642 c -0.644869,-0.293538 -1.420776,-0.02406 -1.712901,0.591891 -0.307318,0.615951 -0.02519,1.357063 0.619681,1.636088 l 18.056323,8.117981 c 0.181363,0.0722 0.362739,0.12511 0.544114,0.12511 0.488694,0 0.952187,-0.25985 1.173868,-0.70256 0.292202,-0.630391 0.02015,-1.366673 -0.62471,-1.650504 z m 42.743186,-8.117982 -18.056323,8.117982 c -0.644869,0.293537 -0.916927,1.020162 -0.61968,1.636088 0.22168,0.44272 0.685173,0.70257 1.173867,0.70257 0.181363,0 0.372811,-0.0385 0.544115,-0.12512 l 18.056323,-8.117979 c 0.644868,-0.293537 0.916925,-1.020161 0.61968,-1.636088 -0.297246,-0.61595 -1.0731,-0.875807 -1.717931,-0.577453 z M 74.672667,42.885558 c 0.01512,0.0385 0.02519,0.06256 0.0403,0.09625 0.02519,0.115491 0.05039,0.226164 0.05039,0.336851 V 67.95668 c 0,0.490839 -0.297245,0.923926 -0.760738,1.121227 l -23.215272,9.85521 c -0.01512,0.01444 -0.04031,0 -0.06549,0.01444 -0.156175,0.05774 -0.307319,0.09624 -0.463507,0.09624 -0.156186,0 -0.307318,-0.0385 -0.463505,-0.09624 -0.02519,-0.01444 -0.04031,0 -0.06549,-0.01444 L 26.514066,69.077899 C 26.050561,68.880598 25.753328,68.44751 25.753328,67.956672 V 43.318651 c 0,-0.110685 0.02519,-0.22136 0.05038,-0.332035 0.01512,-0.0385 0.02519,-0.06256 0.0403,-0.09625 0.02519,-0.07218 0.05038,-0.134746 0.100759,-0.197301 0.02519,-0.0385 0.05038,-0.07218 0.07557,-0.09625 0.0403,-0.04812 0.09069,-0.110673 0.141071,-0.14917 0.0403,-0.0385 0.06549,-0.06256 0.10076,-0.08662 0.02519,-0.02406 0.05038,-0.0385 0.07557,-0.06256 0.0403,-0.02406 0.07557,-0.0385 0.10076,-0.04812 0.02519,-0.01444 0.0403,-0.0385 0.06549,-0.0385 l 23.215273,-9.855208 c 0.33755,-0.149172 0.710361,-0.149172 1.042869,0 l 23.215273,9.855208 c 0.02519,0.01444 0.05039,0.02406 0.06549,0.0385 0.0403,0.01444 0.07557,0.02406 0.100759,0.04812 0.02519,0.01444 0.05039,0.0385 0.07557,0.06256 0.0403,0.02406 0.07557,0.06256 0.100759,0.08662 0.05038,0.04812 0.09068,0.09624 0.141073,0.14917 0.02519,0.0385 0.05039,0.06256 0.07557,0.09625 0.07054,0.05774 0.110834,0.120302 0.136029,0.192484 z m -44.455958,0.433087 20.041229,8.512683 20.04123,-8.512683 -20.04123,-8.512682 z m -1.884177,23.83975 20.635798,8.758078 V 53.973851 L 28.332532,45.215773 Z M 72.183603,45.215773 51.547804,53.973851 V 75.912777 L 72.183603,67.154699 Z M 42.096609,17.425317 C 41.527306,16.30409 41.23006,15.033704 41.23006,13.753636 c 0,-4.7543998 4.050549,-8.6233078 9.028161,-8.6233078 4.977613,0 9.028163,3.868908 9.028163,8.6233078 0,1.280068 -0.297246,2.550405 -0.866549,3.671681 -1.289738,2.622594 -3.909452,4.446424 -6.87185,4.855415 v 3.791914 c 0,0.678507 -0.579376,1.231901 -1.289738,1.231901 -0.710361,0 -1.289736,-0.553394 -1.289736,-1.231901 v -3.782305 c -2.967428,-0.41865 -5.582113,-2.24243 -6.87185,-4.865024 z m 1.712901,-3.671681 c 0,0.909487 0.206564,1.809416 0.604564,2.612985 1.0731,2.155827 3.35538,3.54652 5.844058,3.54652 2.488677,0 4.770996,-1.390693 5.828968,-3.54652 0.413115,-0.803619 0.619679,-1.703473 0.619679,-2.612985 0,-3.402141 -2.886819,-6.1595058 -6.448686,-6.1595058 -3.561868,0 -6.448687,2.7573648 -6.448687,6.1595058 z m 14.610144,80.111756 c 0.569304,1.12123 0.866549,2.36279 0.866549,3.65727 0,4.754398 -4.05055,8.623308 -9.028162,8.623308 -4.977612,0 -9.028161,-3.86891 -9.028161,-8.623308 0,-1.29448 0.297246,-2.53599 0.876621,-3.68129 1.274622,-2.622594 3.894362,-4.436815 6.86179,-4.855415 v -3.782305 c 0,-0.678507 0.579376,-1.231901 1.289738,-1.231901 0.710362,0 1.289737,0.553394 1.289737,1.231901 v 3.782305 c 2.967427,0.41865 5.582113,2.24243 6.871849,4.879435 z m -1.7129,3.65727 c 0,-0.92392 -0.206565,-1.79968 -0.61968,-2.59857 -1.057985,-2.17024 -3.340162,-3.560935 -5.828968,-3.560935 -2.488806,0 -4.770997,1.390695 -5.818908,3.536915 -0.423189,0.82287 -0.629753,1.69867 -0.629753,2.62259 0,3.402138 2.886819,6.159508 6.448687,6.159508 3.561867,0 6.448687,-2.75737 6.448687,-6.159508 z M -2.6211648,33.463807 c 0,-4.7544 4.0505497,-8.623308 9.0281621,-8.623308 3.4812588,0 6.6955417,1.944063 8.1615857,4.96604 0.569304,1.121226 0.866549,2.362786 0.866549,3.657268 0,1.135665 -0.231752,2.203994 -0.644869,3.190377 l 5.289988,2.920961 c 0.619679,0.346472 0.826243,1.097155 0.478608,1.689059 -0.246868,0.394591 -0.670057,0.615951 -1.123477,0.615951 -0.221668,0 -0.438305,-0.04812 -0.644869,-0.158805 l -5.300046,-2.92096 c -1.652412,1.99223 -4.2067367,3.286711 -7.0834954,3.286711 -4.9776125,0 -9.0281622,-3.868908 -9.0281622,-8.623306 z m 2.57947518,0 c 0,3.402141 2.88681922,6.159505 6.44868692,6.159505 3.5618675,0 6.4486857,-2.757364 6.4486857,-6.159505 0,-0.923926 -0.206565,-1.799684 -0.61968,-2.598572 -1.057985,-2.17024 -3.3401616,-3.560934 -5.8289676,-3.560934 -3.5618677,0 -6.44868692,2.757364 -6.44868692,6.159506 z M 103.1373,77.812246 c 0,4.754398 -4.05055,8.623306 -9.028162,8.623306 -3.481259,0 -6.680453,-1.944062 -8.161587,-4.951626 -0.569303,-1.121227 -0.866549,-2.391612 -0.866549,-3.67168 0,-1.135665 0.231753,-2.203995 0.644869,-3.190378 l -5.289987,-2.92096 c -0.61968,-0.346473 -0.826245,-1.097156 -0.478608,-1.68906 0.362737,-0.591891 1.148665,-0.789181 1.768358,-0.457147 l 5.300047,2.920961 c 1.652412,-1.99223 4.206737,-3.286712 7.083496,-3.286712 4.977612,0 9.028163,3.868908 9.028163,8.623308 z m -2.57947,0 c 0,-3.402142 -2.886825,-6.159507 -6.448692,-6.159507 -3.561868,0 -6.448687,2.757365 -6.448687,6.159507 0,0.909488 0.206564,1.809416 0.604565,2.612985 1.073099,2.155827 3.355381,3.54652 5.844058,3.54652 3.561868,0 6.448686,-2.757364 6.448686,-6.159505 z M 85.725846,36.654431 c -0.413117,-0.986482 -0.644869,-2.054812 -0.644869,-3.190378 0,-1.294481 0.297245,-2.535992 0.876621,-3.68129 1.455985,-2.997954 4.670268,-4.942017 8.151527,-4.942017 4.977613,0 9.028165,3.868908 9.028165,8.623307 0,4.754399 -4.050552,8.623307 -9.028165,8.623307 -2.87676,0 -5.430955,-1.294482 -7.078465,-3.301125 l -4.912094,2.709197 c -0.206564,0.110685 -0.423189,0.158804 -0.644869,0.158804 -0.45342,0 -0.876621,-0.22136 -1.123477,-0.615951 -0.362739,-0.591891 -0.141072,-1.342525 0.478608,-1.689059 z m 1.934605,-3.190378 c 0,3.402141 2.886819,6.159506 6.448687,6.159506 3.561867,0 6.448692,-2.757365 6.448692,-6.159506 0,-3.402141 -2.886825,-6.159506 -6.448692,-6.159506 -2.488806,0 -4.770997,1.390694 -5.818908,3.536912 -0.423189,0.822873 -0.629753,1.698669 -0.629753,2.622594 z M 14.790289,74.621868 c 0.413116,0.986482 0.644869,2.069224 0.644869,3.190378 0,1.280068 -0.297246,2.550405 -0.866549,3.67168 -1.481135,3.007564 -4.6803271,4.951626 -8.1615859,4.951626 -4.9776125,0 -9.0281621,-3.868908 -9.0281621,-8.623306 0,-4.7544 4.0505496,-8.623308 9.0281621,-8.623308 2.8767588,0 5.4309539,1.294482 7.0784639,3.301126 l 4.912095,-2.709198 c 0.61968,-0.346471 1.405556,-0.134745 1.768358,0.457147 0.362739,0.591891 0.141072,1.342526 -0.478608,1.689059 z m -1.934606,3.190378 c 0,-3.402142 -2.8868182,-6.159507 -6.4486857,-6.159507 -3.5618677,0 -6.44868692,2.757365 -6.44868692,6.159507 0,3.402141 2.88681922,6.159505 6.44868692,6.159505 2.488806,0 4.7709947,-1.390693 5.8289667,-3.54652 0.413116,-0.803618 0.619681,-1.703473 0.619681,-2.612985 z"
     id="path2"
     style="stroke-width:1.26049" />
</svg>
