<?xml version="1.0" encoding="UTF-8" standalone="no"?>
<!-- Created with Inkscape (http://www.inkscape.org/) -->

<svg
   version="1.1"
   id="svg2"
   width="2048"
   height="2048"
   viewBox="0 0 2048 2048"
   sodipodi:docname="banner-course.svg"
   inkscape:version="1.1.2 (0a00cf5339, 2022-02-04)"
   xmlns:inkscape="http://www.inkscape.org/namespaces/inkscape"
   xmlns:sodipodi="http://sodipodi.sourceforge.net/DTD/sodipodi-0.dtd"
   xmlns="http://www.w3.org/2000/svg"
   xmlns:svg="http://www.w3.org/2000/svg">
  <defs
     id="defs6" />
  <sodipodi:namedview
     id="namedview4"
     pagecolor="#ffffff"
     bordercolor="#666666"
     borderopacity="1.0"
     inkscape:pageshadow="2"
     inkscape:pageopacity="0.0"
     inkscape:pagecheckerboard="0"
     showgrid="false"
     inkscape:zoom="0.20285034"
     inkscape:cx="855.31037"
     inkscape:cy="786.29397"
     inkscape:window-width="1920"
     inkscape:window-height="946"
     inkscape:window-x="0"
     inkscape:window-y="0"
     inkscape:window-maximized="1"
     inkscape:current-layer="g8" />
  <g
     inkscape:groupmode="layer"
     inkscape:label="Image"
     id="g8">
    <path
       style="fill:#000000;stroke-width:1.71981"
       d="m 962.20165,1887.8247 c -22.62946,-9.8185 -47.31614,-20.5529 -54.8593,-23.8545 -7.54315,-3.3015 -25.67243,-11.0501 -40.28729,-17.2191 -63.16793,-26.6644 -171.05096,-72.5289 -266.58189,-113.3326 -31.41911,-13.4201 -68.47599,-29.1314 -108.00424,-45.792 -103.493,-43.6206 -106.24078,-44.8907 -108.65947,-50.2331 -1.37908,-3.0462 -1.91629,-63.9102 -1.91629,-217.1123 0,-121.3244 -0.66085,-214.6288 -1.53658,-216.9468 -1.18567,-3.1384 -6.56887,-6.1826 -23.57235,-13.3303 -12.11969,-5.0946 -25.89308,-11.0242 -30.60755,-13.1767 -4.71446,-2.1527 -29.40115,-12.8336 -54.85929,-23.7356 -25.45815,-10.9022 -56.3165,-24.1456 -68.57412,-29.4302 -25.25307,-10.8869 -30.00118,-14.9134 -30.00118,-25.4416 0,-7.5942 -2.8767,-4.0413 39.5441,-48.8399 9.0202,-9.5259 27.53521,-29.3376 41.14448,-44.0258 13.60926,-14.68839 39.52927,-42.30955 57.60001,-61.38035 18.07072,-19.07079 38.72907,-40.95725 45.90745,-48.63656 L 369.98971,881.37488 257.60794,843.97292 C 152.0255,808.83385 145.07319,806.27326 142.69777,801.65042 c -6.35866,-12.37473 -1.82999,-20.17426 16.0279,-27.60422 7.23759,-3.01128 57.90386,-24.7418 112.59173,-48.29007 54.68786,-23.54824 143.01989,-61.54515 196.29342,-84.43757 53.27352,-22.89239 119.85046,-51.84491 147.94878,-64.33893 l 51.08784,-22.71637 -0.24169,-127.72514 c -0.13286,-70.24884 0.27893,-129.03723 0.91527,-130.64091 0.63635,-1.60365 2.82799,-3.99971 4.87034,-5.32458 4.86569,-3.15636 89.09964,-43.89269 164.00534,-79.31457 16.84944,-7.96784 103.36053,-50.07977 142.2913,-69.26464 14.61486,-7.20212 28.3705,-13.10074 30.5681,-13.10804 3.7426,-0.0121 29.0652,11.79123 107.4373,50.08018 39.5281,19.31149 99.3162,48.10468 174.6057,84.08776 40.4329,19.32413 57.1134,28.14059 59.1452,31.26135 2.5661,3.94143 2.8299,16.28671 2.8299,132.44465 0,126.42403 0.044,128.11861 3.4287,129.66963 1.8858,0.86435 41.2302,17.91522 87.432,37.89079 46.2019,19.97557 97.5039,42.25847 114.0045,49.51759 41.7255,18.35622 102.1201,44.43404 169.7209,73.28374 31.5869,13.48025 74.7886,32.11884 96.0037,41.41911 21.2151,9.30026 40.2749,17.43046 42.355,18.06709 2.08,0.63663 5.7445,3.50472 8.1432,6.37353 8.3622,10.0014 3.9898,23.37878 -8.9519,27.38843 -3.5211,1.09091 -26.0743,8.46236 -50.1181,16.38098 -24.0437,7.91862 -71.3539,23.45746 -105.1335,34.53078 l -61.4173,20.13327 11.7011,12.32282 c 6.4357,6.77753 12.9589,13.49962 14.4962,14.93795 1.5372,1.43831 17.7379,18.56604 36.0014,38.06158 76.3355,81.48479 120.9641,128.64129 126.0197,133.15819 10.989,9.8177 13.2021,22.8916 5.1432,30.3822 -2.0168,1.8747 -17.939,9.5969 -35.3825,17.1606 -17.4435,7.5635 -46.759,20.3952 -65.1455,28.5147 -18.3863,8.1195 -49.2447,21.651 -68.574,30.0701 l -35.1442,15.3073 -0.8572,217.683 -0.8572,217.683 -4.2858,4.1167 c -3.5541,3.4137 -53.2869,25.5665 -120.8619,53.8364 -114.7683,48.013 -139.3425,58.3789 -169.7209,71.5909 -10.3718,4.511 -25.4154,10.9528 -33.4299,14.315 -8.0147,3.362 -35.4014,15.0052 -60.8596,25.8735 -25.4581,10.8682 -55.9308,23.8003 -67.7169,28.7377 -11.7862,4.9376 -39.5587,16.7845 -61.7168,26.3267 -91.6167,39.4538 -103.8145,44.421 -108.8007,44.3049 -2.8621,-0.067 -23.71879,-8.1546 -46.34825,-17.9728 z m 29.93689,-362.7634 -0.0651,-337.7251 -5.50719,6.303 c -3.02909,3.4666 -16.28139,18.9942 -29.44948,34.5058 -13.16818,15.5114 -28.33496,33.2491 -33.70398,39.4171 -5.36902,6.1678 -28.41412,32.953 -51.21132,59.5224 -55.83019,65.0684 -52.0737,61.2477 -60.21922,61.2477 -3.72963,0 -9.68183,-1.4892 -13.22711,-3.3094 -3.54528,-1.8202 -16.8222,-7.7286 -29.50429,-13.1297 -12.68208,-5.4011 -43.06965,-18.7383 -67.52793,-29.6381 -24.4583,-10.8999 -46.29755,-20.5173 -48.53169,-21.372 -2.23415,-0.855 -8.45241,-3.5881 -13.81839,-6.0739 -13.26024,-6.1427 -49.04803,-21.8855 -68.90149,-30.3092 -8.9575,-3.8007 -25.15814,-10.8158 -36.00141,-15.5894 -10.84329,-4.7736 -29.3583,-12.9076 -41.14447,-18.0754 -11.78619,-5.1678 -29.91546,-13.1649 -40.2873,-17.7712 -10.37184,-4.6062 -23.29378,-10.3312 -28.71542,-12.7223 l -9.85753,-4.3474 v 200.5548 200.5547 l 27.85824,12.2608 c 15.32203,6.7433 49.45909,21.3469 75.86012,32.452 26.40104,11.1054 70.37419,29.7232 97.71812,41.3728 27.34393,11.6498 72.08855,30.6794 99.43248,42.2881 27.34393,11.6084 60.90238,25.9881 74.57435,31.9549 13.67196,5.9667 34.50136,14.8827 46.28753,19.8132 38.3115,16.0269 70.36686,29.6347 112.29012,47.6681 22.62946,9.7343 41.72306,17.7379 42.43023,17.7857 0.70718,0.048 1.2568,-151.8893 1.22149,-337.638 z m -399.7192,108.3796 c -19.5159,-8.3014 -39.95956,-17.0786 -45.43035,-19.5048 -5.47079,-2.4265 -24.43696,-10.8066 -42.14704,-18.6225 -20.96718,-9.2533 -33.37671,-15.7162 -35.57283,-18.526 -3.08398,-3.9455 -3.37266,-7.1082 -3.37266,-36.9484 0,-34.5113 1.14896,-40.5413 8.4768,-44.4881 8.12905,-4.3782 10.49855,-3.543 121.21439,42.7261 45.89482,19.1798 48.55425,20.4368 51.54712,24.3596 1.48356,1.9447 2.1042,13.1556 2.14295,38.7097 l 0.0545,35.9722 -5.8288,5.866 c -4.05803,4.084 -7.31312,5.818 -10.7147,5.708 -2.68725,-0.087 -20.85348,-6.9502 -40.36939,-15.2518 z m 23.99714,-39.2864 -0.51413,-9.8385 -12.85765,-5.5078 c -59.71016,-25.5783 -99.32252,-42.1012 -100.9345,-42.1012 -1.20506,0 -1.92668,3.7566 -1.92668,10.0299 v 10.0298 l 25.28671,10.624 c 13.90769,5.8432 38.78723,16.4099 55.28788,23.4817 16.50065,7.0718 31.38974,12.9169 33.08684,12.9894 2.68279,0.1138 3.01855,-1.1532 2.57153,-9.7073 z m 447.84662,252.92 c 20.2407,-8.6414 44.9015,-19.0366 54.8019,-23.1002 9.9004,-4.0638 33.8157,-14.1338 53.145,-22.3781 19.3293,-8.2444 52.1163,-22.2304 72.86,-31.0803 20.7437,-8.8499 54.3021,-23.1028 74.5743,-31.6733 20.2722,-8.5706 50.7449,-21.5199 67.717,-28.7761 50.8632,-21.7462 116.1393,-49.4697 142.2912,-60.4329 7.5433,-3.162 27.2154,-11.5508 43.7161,-18.6418 l 30.0011,-12.8923 0.4358,-200.2854 c 0.2397,-110.157 0.1149,-200.2854 -0.2767,-200.2854 -0.3918,0 -7.1452,2.8002 -15.0077,6.2228 -7.8624,3.4225 -26.6387,11.4896 -41.725,17.9268 -15.0863,6.4372 -43.6303,18.858 -63.4311,27.602 -40.8117,18.0222 -93.5902,41.0909 -111.4329,48.7054 -17.1131,7.3031 -56.0364,24.4704 -111.2235,49.0556 -54.2614,24.1729 -57.851,25.0134 -66.8121,15.6456 -2.9701,-3.1048 -25.438,-29.3076 -49.9287,-58.2284 -24.4907,-28.9207 -55.349,-65.02 -68.5742,-80.2204 -21.5325,-24.7487 -33.282,-38.4292 -44.9846,-52.3779 l -3.7959,-4.524 -0.061,337.7251 c -0.035,185.7487 0.1578,337.725 0.4244,337.725 0.2673,0 17.0465,-7.0702 37.2871,-15.7118 z m 381.8148,-231.1425 c -1.6501,-0.9672 -4.2257,-4.1435 -5.7235,-7.0583 -8.692,-16.9158 12.6858,-33.5389 26.8002,-20.8394 4.3426,3.9073 5.2914,6.0987 5.3769,12.4179 0.088,6.4901 -0.7255,8.4193 -5.2731,12.5084 -5.7022,5.1274 -15.2237,6.4632 -21.1805,2.9714 z m 54.4307,-22.4812 c -6.246,-3.6144 -9.3516,-9.0827 -9.3909,-16.5347 -0.076,-14.2855 13.9068,-21.9518 25.5538,-14.0114 9.8282,6.7005 11.0643,17.1888 3.1113,26.4 -4.3916,5.0862 -14.0571,7.1653 -19.2742,4.1461 z M 843.93,1308.5376 c 19.74911,-23.0109 54.14534,-63.1887 76.43606,-89.2835 22.2907,-26.095 45.66774,-53.4224 51.94891,-60.7276 12.85438,-14.9498 13.26137,-13.2445 -4.97026,-20.8297 -9.87709,-4.1092 -104.99105,-45.4384 -189.43601,-82.3142 -22.15801,-9.6762 -91.20358,-39.596 -153.43459,-66.48894 -62.23102,-26.8928 -136.55448,-59.08626 -165.16323,-71.541 -28.60877,-12.45475 -52.99042,-22.40763 -54.18143,-22.11753 -2.30795,0.56214 -11.43364,10.10766 -98.66782,103.2071 -30.64406,32.70437 -62.85246,66.89217 -71.57423,75.97287 -8.72177,9.0805 -15.85487,17.2405 -15.85134,18.1329 0.003,0.8925 3.66796,3.0924 8.14318,4.889 10.43061,4.1871 48.10649,20.3823 76.71086,32.9745 12.25763,5.396 30.38691,13.3153 40.28729,17.5983 9.90039,4.283 38.8301,16.9435 64.28825,28.1344 25.45813,11.191 64.03107,28.1126 85.71765,37.6037 38.56438,16.8777 101.04384,44.3812 173.14964,76.2204 19.80079,8.7433 51.04487,22.4941 69.4313,30.557 18.38643,8.063 41.14447,18.0491 50.57342,22.1914 9.42894,4.1422 17.94032,7.5602 18.9142,7.5954 0.97386,0.034 17.92904,-18.7634 37.67815,-41.7745 z m 412.5128,23.0514 c 23.9176,-10.3325 53.5154,-23.2296 65.7731,-28.6599 12.2576,-5.4301 34.6299,-15.2657 49.7162,-21.8565 15.0863,-6.5907 29.744,-13.0128 32.5727,-14.271 7.86,-3.4965 36.16,-15.9422 90.8608,-39.9582 27.3439,-12.0053 62.8309,-27.6405 78.8602,-34.7451 16.0292,-7.1045 52.6734,-23.1723 81.4316,-35.7062 28.7583,-12.5337 73.289,-31.9915 98.9569,-43.2393 l 46.6693,-20.4505 -8.0183,-8.7548 c -17.4454,-19.048 -63.4488,-67.7945 -104.2687,-110.4859 -23.622,-24.70518 -49.8122,-52.29417 -58.2001,-61.3088 -8.388,-9.01463 -16.2459,-16.63954 -17.4619,-16.94424 -1.2159,-0.3047 -11.6701,3.71441 -23.2313,8.93135 -21.7252,9.80331 -129.3818,56.59614 -232.7432,101.16169 -32.5298,14.0257 -95.7894,41.4244 -140.577,60.8861 -44.7874,19.4616 -99.1752,42.934 -120.8618,52.1607 -21.6866,9.2269 -44.3272,18.9098 -50.3126,21.5175 l -10.8826,4.7414 16.0257,18.6942 c 8.814,10.2819 21.4257,24.9924 28.0259,32.6899 6.6003,7.6976 19.0578,22.0976 27.6834,31.9999 22.3397,25.6471 68.4345,80.203 86.8916,102.8419 8.6438,10.6019 16.5907,19.3361 17.6597,19.4095 1.0693,0.074 21.513,-8.3209 45.4304,-18.6537 z m -237.6675,-216.7757 c 2.8287,-1.2535 11.3148,-4.9325 18.8579,-8.1755 7.5432,-3.243 22.5866,-9.8647 33.4299,-14.7151 10.8433,-4.8503 60.2167,-26.2624 109.7187,-47.5825 49.5018,-21.3202 132.4337,-57.15423 184.2929,-79.63134 51.8591,-22.47717 100.0973,-43.30336 107.1957,-46.28046 44.7786,-18.78026 101.0716,-43.5354 101.0837,-44.45211 0.017,-1.19036 -7.7042,-4.64615 -88.2747,-39.51463 -30.1726,-13.0578 -79.1603,-34.30411 -108.8615,-47.21399 l -54.002,-23.47252 -14.572,7.14388 c -8.0147,3.92914 -36.5586,17.80608 -63.4311,30.83766 -26.8724,13.03158 -62.7453,30.48753 -79.7174,38.79099 -34.4193,16.83931 -94.2282,45.66142 -129.4013,62.35893 -12.7113,6.03431 -24.1539,10.97149 -25.428,10.97149 -4.8184,0 -51.56299,-22.26954 -183.75551,-87.54261 -25.92959,-12.80333 -57.17367,-27.90552 -69.4313,-33.56042 -12.25762,-5.65492 -30.67761,-14.55653 -40.93329,-19.78138 l -18.64672,-9.49975 -31.06953,13.78211 c -17.08824,7.58013 -71.95684,31.40177 -121.93023,52.93696 -49.97339,21.5352 -92.64255,40.09321 -94.82036,41.24005 -3.7031,1.95004 -2.81441,2.60601 13.71482,10.12361 9.72097,4.42115 52.77586,23.13836 95.67754,41.59383 75.78433,32.6009 111.7336,48.23438 156.00612,67.84365 11.78618,5.22035 26.82963,11.66985 33.42988,14.33215 6.60026,2.6623 22.8009,9.6056 36.00142,15.429 13.20051,5.8238 56.40221,24.6408 96.00377,41.8155 39.60155,17.1748 84.73189,36.7854 100.28965,43.5792 15.55774,6.7941 29.44404,12.0308 30.85834,11.6377 1.4143,-0.3933 4.8859,-1.7408 7.7146,-2.9944 z m -15.4292,-102.5615 c -2.8287,-0.6898 -17.87211,-7.646 -33.42987,-15.45823 -15.55774,-7.81213 -41.40161,-20.45661 -57.43081,-28.0986 -16.02921,-7.64198 -41.76021,-19.99656 -57.18,-27.45457 -15.4198,-7.458 -28.2329,-13.56 -28.47354,-13.56 -0.24066,0 -18.48281,-8.79692 -40.53812,-19.54869 -22.05532,-10.75177 -53.60112,-26.05264 -70.10176,-34.00191 -35.88865,-17.28953 -38.84023,-19.18214 -40.29244,-25.83619 -2.52879,-11.58696 5.01172,-22.37992 15.64888,-22.39874 5.08172,-0.009 5.4068,0.14457 192.65015,90.99677 12.72907,6.17627 43.97315,21.30064 69.4313,33.60975 25.45814,12.30915 48.22151,23.52334 50.58541,24.92048 4.1138,2.43179 6.7554,1.34608 61.7167,-25.36463 31.5804,-15.34779 61.1691,-29.40127 65.7527,-31.22992 8.044,-3.20919 8.5507,-3.21806 14.5721,-0.25514 8.2854,4.07717 12.3022,14.3685 8.6387,22.13449 -2.5708,5.45031 -22.7762,16.14158 -101.8331,53.88312 -38.6409,18.44701 -41.8385,19.58311 -49.7163,17.66201 z m 198.5199,-95.81416 c -6.8263,-2.88862 -10.7982,-8.8144 -10.7982,-16.1107 0,-4.50992 1.4285,-7.23789 6.1223,-11.69312 3.3674,-3.19601 6.7766,-5.81091 7.5762,-5.81091 0.7993,0 26.7812,-12.49965 57.7371,-27.77699 30.956,-15.27736 58.4968,-28.44807 61.2019,-29.26823 9.2877,-2.81616 19.9399,6.82348 19.9399,18.04437 0,9.34805 -4.2658,11.85974 -97.7181,57.53572 -35.6229,17.41115 -37.2421,17.96532 -44.0611,15.07986 z M 992.20283,670.06763 V 471.11466 l -62.1453,-30.41084 C 797.00085,375.59247 703.42055,330.73079 700.65663,330.73079 c -0.99198,0 -1.60816,75.92031 -1.60816,198.14348 v 198.14349 l 21.858,10.50204 c 12.0219,5.77615 42.30165,20.54527 67.28836,32.82032 77.9647,38.30114 202.42068,98.61807 203.5794,98.66364 0.23573,0.009 0.4286,-89.512 0.4286,-198.93613 z m 119.14757,158.3555 c 42.4303,-20.61234 91.4179,-44.27609 108.8615,-52.58615 17.4435,-8.31004 46.8977,-22.5018 65.4534,-31.53726 l 33.738,-16.42807 0.5491,-49.76436 c 0.9497,-86.06565 -0.5238,-347.3765 -1.9586,-347.3765 -0.7544,0 -18.2423,8.24752 -38.8621,18.32781 -53.9532,26.3759 -82.9394,40.41235 -118.9222,57.58741 -58.9076,28.11747 -65.9328,31.48567 -99.4325,47.67109 l -33.4299,16.15179 -0.4358,199.23589 -0.4358,199.23592 3.8645,-1.52032 c 2.1254,-0.83615 38.5802,-18.38492 81.0104,-38.99725 z m -696.88453,21.47382 c 6.12881,-2.92526 32.35841,-14.50522 58.288,-25.73326 63.34286,-27.42871 144.92334,-62.91357 172.51041,-75.03637 17.20535,-7.5607 22.35718,-10.55486 21.87877,-12.71558 -0.34415,-1.55444 -0.83883,-34.02177 -1.09927,-72.14962 -0.26045,-38.12786 -1.01857,-69.87188 -1.68472,-70.54228 -0.66612,-0.67039 -32.28507,12.42169 -70.2643,29.09353 -37.97921,16.67184 -82.55365,36.1355 -99.05429,43.25259 -16.50066,7.11709 -51.60204,22.37848 -78.00307,33.91423 -26.40103,11.53574 -72.38084,31.33605 -102.17736,44.00068 -29.7965,12.66463 -61.81204,26.44759 -71.14565,30.62883 -9.33358,4.18122 -21.47609,9.44952 -26.98333,11.70733 l -10.01315,4.10512 6.66628,2.84923 c 3.66645,1.56707 40.18792,13.84908 81.1588,27.29333 40.97089,13.44426 80.6642,26.6978 88.20735,29.4523 7.54315,2.75453 15.25774,5.05104 17.14353,5.1034 1.88579,0.0523 8.44319,-2.29822 14.572,-5.22346 z m 1299.36693,-25.8955 c 52.3925,-17.16929 96.2732,-31.7853 97.5128,-32.48006 1.3776,-0.77219 -10.6165,-6.67097 -30.8585,-15.17612 -18.2115,-7.65212 -52.0125,-22.05558 -75.1134,-32.00768 -23.1009,-9.95209 -73.6314,-31.69871 -112.2901,-48.32579 -66.4023,-28.55969 -161.7864,-69.96158 -213.7016,-92.75828 -12.8746,-5.65343 -24.0608,-10.27631 -24.8582,-10.27309 -0.7973,0.003 -1.7057,32.88394 -2.0187,73.06823 l -0.5694,73.06231 7.4942,3.54511 c 4.1217,1.94981 15.564,7.04302 25.4273,11.31823 9.8633,4.27523 28.7337,12.52773 41.9342,18.33892 13.2005,5.81119 52.9307,23.04053 88.2892,38.28744 35.3585,15.24691 72.7743,31.45107 83.1461,36.00928 10.3718,4.55819 19.1928,8.35979 19.6024,8.44799 0.4096,0.0882 43.6112,-13.88722 96.0037,-31.05649 z M 1060.8531,416.84002 c 27.7736,-13.37005 67.4694,-32.50801 88.2131,-42.5288 20.7437,-10.02077 46.2018,-22.26497 56.5736,-27.20934 47.4286,-22.60967 89.2066,-42.75032 89.8311,-43.30635 0.7528,-0.67031 -46.5195,-23.88023 -115.5463,-56.73141 -24.5153,-11.66728 -62.3167,-29.89707 -84.0033,-40.51064 -21.6866,-10.61357 -50.0995,-24.38363 -63.1399,-30.60014 l -23.7097,-11.30272 -30.29243,14.77255 c -118.69266,57.88215 -151.5301,73.79393 -173.44092,84.04293 -61.9765,28.99014 -81.95139,38.88594 -80.83548,40.04685 0.66052,0.68718 15.06856,7.77092 32.01786,15.74164 16.94931,7.97074 47.01756,22.39038 66.81833,32.04369 19.80077,9.65329 57.20967,27.8019 83.13089,40.33021 25.92121,12.52832 59.09395,28.74488 73.71715,36.03679 14.62326,7.29191 27.3935,13.30886 28.3782,13.37099 0.9847,0.0621 24.5142,-10.82618 52.2878,-24.19625 z"
       id="path827" />
  </g>
</svg>
