<?xml version="1.0" encoding="UTF-8" standalone="no"?>
<svg
   version="1.1"
   viewBox="-5.0 -10.0 110.0 135.0"
   id="svg8"
   sodipodi:docname="banner-course.svg"
   inkscape:version="1.1.2 (0a00cf5339, 2022-02-04)"
   xmlns:inkscape="http://www.inkscape.org/namespaces/inkscape"
   xmlns:sodipodi="http://sodipodi.sourceforge.net/DTD/sodipodi-0.dtd"
   xmlns="http://www.w3.org/2000/svg"
   xmlns:svg="http://www.w3.org/2000/svg">
  <defs
     id="defs12" />
  <sodipodi:namedview
     id="namedview10"
     pagecolor="#ffffff"
     bordercolor="#666666"
     borderopacity="1.0"
     inkscape:pageshadow="2"
     inkscape:pageopacity="0.0"
     inkscape:pagecheckerboard="0"
     showgrid="false"
     inkscape:zoom="2.8962963"
     inkscape:cx="44.194373"
     inkscape:cy="61.803069"
     inkscape:window-width="1360"
     inkscape:window-height="661"
     inkscape:window-x="0"
     inkscape:window-y="0"
     inkscape:window-maximized="1"
     inkscape:current-layer="svg8" />
  <path
     d="M 99.125419,49.827447 85.307492,41.708435 c -0.312316,-0.189119 -0.700609,-0.189119 -1.01715,0 L 77.980709,45.41766 64.419934,34.410248 c 0.215248,-0.197713 0.34608,-0.472788 0.34608,-0.769352 V 17.389449 c 0,-0.373926 -0.194147,-0.713479 -0.506463,-0.889692 L 50.437307,8.3764543 c -0.312316,-0.1891197 -0.700609,-0.1891197 -1.01715,0 L 35.602235,16.495465 c -0.312316,0.18912 -0.506463,0.528662 -0.506463,0.889693 v 16.251447 c 0,0.296564 0.130832,0.571639 0.34608,0.769352 L 21.881078,45.413369 15.571444,41.704144 c -0.312316,-0.18912 -0.700609,-0.18912 -1.01715,0 L 0.73637155,49.827447 c -0.312316,0.184818 -0.5064627,0.528662 -0.5064627,0.902588 v 16.251447 c 0,0.373926 0.1941467,0.713479 0.5064627,0.889692 L 14.554294,75.990186 c 0.160383,0.08596 0.333417,0.14184 0.506463,0.14184 0.173045,0 0.34608,-0.04298 0.506463,-0.14184 l 12.112966,-7.117628 13.539165,10.990138 -5.617494,3.300903 c -0.312316,0.189119 -0.506463,0.528661 -0.506463,0.889692 v 16.251449 c 0,0.37392 0.194147,0.71348 0.506463,0.88969 l 13.817922,8.11901 c 0.164596,0.10745 0.337642,0.15043 0.510687,0.15043 0.173046,0 0.34608,-0.043 0.506463,-0.14184 l 13.817922,-8.11901 c 0.312316,-0.18912 0.506463,-0.52866 0.506463,-0.88969 l 0.0042,-16.254746 c 0,-0.373927 -0.194146,-0.71348 -0.506462,-0.889693 l -5.617495,-3.300903 13.539165,-10.990137 12.112967,7.117627 c 0.160382,0.08596 0.333417,0.14184 0.506463,0.14184 0.173045,0 0.34608,-0.04298 0.506462,-0.14184 l 13.817925,-8.119011 c 0.31231,-0.18912 0.50646,-0.528662 0.50646,-0.889693 V 50.732027 c 0,-0.373927 -0.19415,-0.717771 -0.50646,-0.902588 z m -14.328982,-6.0302 7.985202,4.697735 -2.084952,1.220674 -4.482154,-2.630379 c -0.312316,-0.18912 -0.70061,-0.18912 -1.01715,0 l -2.646247,1.564518 c -0.324979,-0.210609 -0.70061,-0.330949 -1.114164,-0.330949 -1.177479,0 -2.139839,0.97995 -2.139839,2.179146 0,1.199197 0.962274,2.179147 2.139839,2.179147 1.177565,0 2.139838,-0.97995 2.139838,-2.179147 0,-0.02149 -0.01266,-0.04298 -0.01266,-0.05587 l 2.139838,-1.255003 4.482154,2.630379 c 0.160383,0.08596 0.333418,0.14184 0.506463,0.14184 0.173045,0 0.34608,-0.04298 0.506463,-0.14184 l 3.608499,-2.123251 1.772592,1.044428 -11.78775,6.932777 -11.78775,-6.932777 z M 57.472844,28.767134 c -0.443159,-0.352437 -1.080454,-0.287971 -1.426523,0.163329 -0.346081,0.451299 -0.282777,1.100301 0.160382,1.452727 l 4.646815,3.765121 -9.909813,5.819602 V 26.101919 l 11.78775,-6.932777 v 13.865994 z m -7.542108,-3.245008 z m 0,-15.064221 7.985202,4.697735 -2.084952,1.220674 -4.482154,-2.630379 c -0.312316,-0.189109 -0.700609,-0.189109 -1.01715,0 l -2.646247,1.564517 c -0.324979,-0.210608 -0.70061,-0.330948 -1.114164,-0.330948 -1.177479,0 -2.139839,0.97995 -2.139839,2.179146 0,1.199196 0.962274,2.179146 2.139839,2.179146 1.177565,0 2.139838,-0.97995 2.139838,-2.179146 0,-0.02149 -0.01266,-0.04298 -0.01266,-0.05588 l 2.139838,-1.255003 4.482154,2.63038 c 0.160383,0.08596 0.333418,0.14184 0.506463,0.14184 0.173046,0 0.34608,-0.04298 0.506463,-0.14184 l 3.608499,-2.123251 1.772592,1.044428 -11.783429,6.924199 -11.78775,-6.932777 z m -12.805537,8.725057 11.78775,6.932777 v 13.865994 l -9.909813,-5.819602 4.646815,-3.765121 c 0.443159,-0.352437 0.506463,-1.00145 0.160383,-1.452727 -0.346081,-0.4513 -0.983386,-0.515766 -1.426524,-0.163329 l -5.262998,4.267958 z m -22.060704,24.614835 11.78775,6.932777 -11.78775,6.932777 -11.78775,-6.932777 1.7725924,-1.044428 3.6084994,2.123251 c 0.160382,0.08596 0.333417,0.14184 0.506463,0.14184 0.173045,0 0.34608,-0.04298 0.506462,-0.14184 l 4.4821542,-2.630379 2.139839,1.255003 c 0,0.02149 -0.01266,0.04298 -0.01266,0.05588 0,1.199109 0.962274,2.179147 2.139839,2.179147 1.177478,0 2.139838,-0.97995 2.139838,-2.179147 0,-1.199196 -0.962273,-2.179146 -2.139838,-2.179146 -0.409395,0 -0.789239,0.120351 -1.114164,0.330949 l -2.646247,-1.564518 c -0.312316,-0.18912 -0.70061,-0.18912 -1.01715,0 L 9.1602188,49.707565 7.0752668,48.486891 Z M 2.2589576,52.509981 14.046708,59.442758 v 13.865994 l -1.806411,-1.065916 v -4.435534 c 0,-0.373926 -0.194146,-0.713479 -0.506462,-0.889693 L 8.2350008,64.858836 v -2.342431 c 0.671059,-0.373926 1.1227,-1.078812 1.1227,-1.904071 0,-1.199108 -0.962274,-2.179146 -2.139839,-2.179146 -1.1775647,0 -2.1398384,0.97995 -2.1398384,2.179146 0,0.825226 0.4558219,1.538661 1.1226995,1.904071 V 65.4563 c 0,0.373926 0.1941469,0.713479 0.5064629,0.889692 l 3.4988332,2.058773 v 2.638962 L 2.2545278,66.367448 Z M 16.081202,73.307872 V 59.441878 l 11.78775,-6.932777 V 66.375095 L 22.605954,62.107137 C 22.162795,61.7547 21.5255,61.819166 21.179431,62.270466 c -0.346069,0.451299 -0.282776,1.100301 0.160383,1.452727 l 4.646815,3.765121 z m 45.636204,10.749391 -11.78775,6.932777 -11.78775,-6.932777 1.772592,-1.044428 3.6085,2.123251 c 0.160382,0.08596 0.333417,0.14184 0.506462,0.14184 0.173046,0 0.34608,-0.04298 0.506463,-0.14184 l 4.482154,-2.630379 2.139839,1.255003 c 0,0.02149 -0.01266,0.04298 -0.01266,0.05588 0,1.199108 0.962274,2.179146 2.139838,2.179146 1.177479,0 2.139839,-0.97995 2.139839,-2.179146 0,-1.199197 -0.962284,-2.179147 -2.139839,-2.179147 -0.409394,0 -0.789239,0.12034 -1.114163,0.330949 l -2.646248,-1.564518 c -0.312316,-0.18912 -0.700609,-0.18912 -1.01715,0 l -4.482154,2.630379 -2.084951,-1.220674 7.989415,-4.689153 z m -24.593287,1.792281 11.78775,6.932777 v 13.865989 l -1.806411,-1.06592 v -4.46567 c 0,-0.37393 -0.194147,-0.71348 -0.506463,-0.8897 l -3.498833,-2.05877 v -2.342431 c 0.671059,-0.373926 1.1227,-1.078812 1.1227,-1.904071 0,-1.199108 -0.962274,-2.179146 -2.139839,-2.179146 -1.177478,0 -2.139839,0.97995 -2.139839,2.179146 0,0.825226 0.455822,1.538662 1.1227,1.904071 v 2.939895 c 0,0.373926 0.194147,0.713479 0.506463,0.889692 l 3.498833,2.058774 v 2.6734 L 37.119689,99.711302 Z M 50.946363,106.63533 V 92.769337 l 11.78775,-6.932777 v 9.374015 L 59.146682,97.3467 57.103977,96.160465 v -0.04298 c 0,-1.199108 -0.962274,-2.179146 -2.139839,-2.179146 -1.177565,0 -2.139839,0.97995 -2.139839,2.179146 0,1.199196 0.962274,2.179146 2.139839,2.179146 0.409395,0 0.797677,-0.12034 1.1227,-0.330948 l 2.549222,1.487167 c 0.151933,0.08596 0.324979,0.133235 0.506463,0.133235 0.173045,0 0.354518,-0.04298 0.506462,-0.14184 l 3.068273,-1.826719 v 2.088811 z M 50.435676,75.035785 c -0.312316,-0.18912 -0.70061,-0.18912 -1.01715,0 L 43.108892,78.74501 29.552439,67.737598 c 0.215248,-0.197713 0.346081,-0.472789 0.346081,-0.769353 V 50.730002 c 0,-0.373926 -0.194147,-0.713479 -0.506463,-0.889692 l -5.617495,-3.300904 13.539165,-10.990137 12.112967,7.117628 c 0.160383,0.08596 0.333417,0.141839 0.506463,0.141839 0.173045,0 0.34608,-0.04298 0.506462,-0.141839 l 12.112967,-7.117628 13.539165,10.990137 -5.617495,3.300904 c -0.312316,0.189119 -0.506462,0.528661 -0.506462,0.889692 v 16.251447 c 0,0.296564 0.130832,0.571639 0.34608,0.769352 L 56.744456,78.753812 Z m 28.24414,-12.765693 c -0.34608,-0.4513 -0.983386,-0.515766 -1.426523,-0.163329 l -5.262998,4.267958 V 52.508727 l 11.78775,6.932777 v 13.865994 l -9.909813,-5.819603 4.646815,-3.76512 c 0.447373,-0.361042 0.52335,-1.010043 0.164596,-1.452727 z m 10.968766,8.780952 v -2.638962 l 3.498833,-2.058773 c 0.312316,-0.189109 0.506463,-0.528662 0.506463,-0.889692 v -2.939895 c 0.671059,-0.373926 1.1227,-1.078812 1.1227,-1.904071 0,-1.199108 -0.962274,-2.179146 -2.139839,-2.179146 -1.177565,0 -2.139839,0.97995 -2.139839,2.179146 0,0.825226 0.455822,1.538661 1.1227,1.904071 v 2.342431 l -3.498833,2.058773 c -0.312316,0.18912 -0.506463,0.528662 -0.506463,0.889693 v 4.435534 l -1.806411,1.065916 V 59.450075 l 11.787746,-6.932777 v 13.865994 z"
     fill-rule="evenodd"
     id="path2"
     style="stroke-width:1.09033" />
</svg>
