<?xml version="1.0" encoding="UTF-8" standalone="no"?>
<!-- Created with Inkscape (http://www.inkscape.org/) -->

<svg
   version="1.1"
   id="svg2"
   width="2048"
   height="2048"
   viewBox="0 0 2048 2048"
   sodipodi:docname="banner-course.svg"
   inkscape:version="1.1.2 (0a00cf5339, 2022-02-04)"
   xmlns:inkscape="http://www.inkscape.org/namespaces/inkscape"
   xmlns:sodipodi="http://sodipodi.sourceforge.net/DTD/sodipodi-0.dtd"
   xmlns="http://www.w3.org/2000/svg"
   xmlns:svg="http://www.w3.org/2000/svg">
  <defs
     id="defs6" />
  <sodipodi:namedview
     id="namedview4"
     pagecolor="#ffffff"
     bordercolor="#666666"
     borderopacity="1.0"
     inkscape:pageshadow="2"
     inkscape:pageopacity="0.0"
     inkscape:pagecheckerboard="0"
     showgrid="false"
     inkscape:zoom="0.19091797"
     inkscape:cx="1016.1432"
     inkscape:cy="1202.087"
     inkscape:window-width="1920"
     inkscape:window-height="946"
     inkscape:window-x="0"
     inkscape:window-y="0"
     inkscape:window-maximized="1"
     inkscape:current-layer="g8" />
  <g
     inkscape:groupmode="layer"
     inkscape:label="Image"
     id="g8">
    <path
       style="fill:#11111f;stroke-width:1.65525;fill-opacity:1"
       d="m 1003.0998,1855.9755 c -23.11735,-9.2513 -54.19005,-22.0756 -68.23085,-28.1601 -6.108,-2.6469 -13.7964,-5.7318 -17.0853,-6.8553 -3.2889,-1.1235 -10.5929,-3.9725 -16.2311,-6.3311 -5.6382,-2.3587 -11.7889,-4.9186 -13.6683,-5.6885 -1.8794,-0.7699 -8.4145,-3.5589 -14.5225,-6.1978 -6.108,-2.6388 -19.5627,-8.1439 -29.8994,-12.2334 -10.3366,-4.0896 -21.1003,-8.4134 -23.9194,-9.6086 -2.8191,-1.195 -9.7387,-4.0931 -15.3768,-6.4401 -16.4879,-6.8632 -19.8708,-8.288 -32.07794,-13.5092 -6.36651,-2.7231 -11.9213,-4.9512 -12.34399,-4.9512 -0.42286,0 -5.97765,-2.243 -12.34416,-4.9844 -6.36651,-2.7414 -15.40636,-6.4051 -20.08843,-8.1417 -4.68224,-1.7366 -12.58575,-4.906 -17.56322,-7.0428 -4.97747,-2.137 -9.33611,-3.8854 -9.68602,-3.8854 -0.34974,0 -7.43879,-2.9426 -15.7532,-6.5391 -8.31458,-3.5966 -16.65496,-7.1465 -18.53435,-7.8888 -1.87939,-0.7422 -7.7904,-3.2119 -13.13538,-5.4879 -5.34515,-2.2762 -10.14716,-4.1385 -10.67116,-4.1385 -0.52401,0 -6.53019,-2.4072 -13.3469,-5.3495 -6.81671,-2.9422 -16.23825,-6.6746 -20.93672,-8.2942 -4.69847,-1.6197 -9.31151,-3.4781 -10.25121,-4.13 -0.93969,-0.652 -10.93462,-4.9329 -22.21094,-9.5132 -11.27633,-4.5802 -25.36131,-10.4172 -31.30001,-12.9712 -5.93869,-2.5537 -11.07472,-4.6432 -11.41335,-4.6432 -3.20487,0 -23.4064,-10.4308 -24.7435,-12.7759 -1.14797,-2.013 -1.73878,-60.4983 -1.73878,-172.0782 v -169.0287 l -13.24114,-5.7292 c -7.28262,-3.1511 -17.85418,-7.6761 -23.49234,-10.0557 -5.63817,-2.3794 -15.11011,-6.4124 -21.0488,-8.9618 -5.9387,-2.5496 -11.27001,-4.6356 -11.84749,-4.6356 -0.57749,0 -4.17583,-1.3788 -7.99628,-3.0639 -25.80844,-11.3833 -40.31304,-17.5952 -59.01414,-25.274 -11.72277,-4.8134 -22.10211,-9.306 -23.06521,-9.9835 -0.9631,-0.6773 -4.44202,-2.2019 -7.73095,-3.3881 -6.03215,-2.1753 -21.15627,-8.2307 -29.04508,-11.6293 -8.4077,-3.6219 -11.95974,-7.8345 -11.95974,-14.1835 0,-4.7684 0.98036,-6.6594 4.69847,-9.0622 5.6913,-3.6784 27.37208,-15.2979 44.84902,-24.0365 7.04771,-3.524 15.50495,-7.8255 18.79388,-9.5591 3.28893,-1.7335 13.66827,-6.988 23.06521,-11.6767 9.39694,-4.6887 25.92701,-13.247 36.73349,-19.0186 10.80647,-5.7716 23.87676,-12.5104 29.04508,-14.9752 5.16831,-2.4648 14.77882,-7.3454 21.35667,-10.8458 6.57786,-3.5003 14.45847,-7.4392 17.51248,-8.753 9.76615,-4.2013 13.97,-0.9914 -54.17574,-41.3663 -17.42295,-10.3228 -37.82883,-22.433 -45.34638,-26.9116 -7.51755,-4.4785 -15.20595,-9.0201 -17.08534,-10.0924 -1.87939,-1.0722 -5.86454,-3.575 -8.85584,-5.5617 -2.99131,-1.9867 -5.89923,-3.6122 -6.46219,-3.6122 -0.56279,0 -6.57256,-3.3643 -13.3551,-7.4762 -6.78254,-4.112 -16.56031,-9.97853 -21.72863,-13.03683 -22.20599,-13.13998 -22.21094,-13.14436 -22.21094,-19.49321 0,-7.44402 3.9315,-11.48673 14.71714,-15.13327 10.99647,-3.71775 18.44209,-6.38412 28.97725,-10.37705 4.76835,-1.80721 12.45675,-4.45144 17.08534,-5.87605 4.62877,-1.42459 10.72242,-3.56346 13.5415,-4.75304 2.81909,-1.18959 10.12307,-3.72712 16.23108,-5.63899 6.10801,-1.91187 13.41199,-4.4346 16.23107,-5.60609 2.81909,-1.17149 9.73865,-3.65518 15.37681,-5.51932 5.63817,-1.86413 11.78889,-4.0262 13.66828,-4.80458 5.77894,-2.39349 26.91214,-9.90382 35.02495,-12.44715 4.22862,-1.32568 9.99492,-3.36428 12.814,-4.53022 2.81909,-1.16595 13.58285,-5.0016 23.91948,-8.52367 10.33663,-3.52208 34.93953,-12.19388 54.6731,-19.27067 19.73357,-7.07679 47.41182,-16.9177 61.50723,-21.8687 26.18192,-9.19644 36.66087,-12.9746 42.71335,-15.40017 1.87939,-0.75319 7.08786,-2.68302 11.57447,-4.28848 l 8.15757,-2.91905 -0.0632,-187.256 -0.0632,-187.25602 4.71915,-4.3626 c 2.59543,-2.39945 16.63616,-10.73995 31.20142,-18.53448 14.56525,-7.79452 31.6142,-16.96982 37.8864,-20.38955 6.27237,-3.41974 11.83143,-6.2177 12.35373,-6.2177 0.5223,0 5.00087,-2.40987 9.95247,-5.35526 4.9515,-2.94538 13.2316,-7.52968 18.3999,-10.18731 10.5977,-5.44953 17.866,-9.33339 29.0451,-15.52063 4.2286,-2.34037 10.5716,-5.49918 14.0954,-7.01956 3.5239,-1.52037 6.407,-3.31572 6.407,-3.98964 0,-0.67394 0.8003,-1.22533 1.7784,-1.22533 0.9782,0 15.7784,-7.46733 32.8893,-16.59406 17.1112,-9.12675 34.5708,-18.4059 38.7995,-20.62034 7.1312,-3.73457 10.1869,-5.36168 26.4822,-14.10142 14.3622,-7.70301 19.5698,-10.45745 32.243,-17.05392 7.3969,-3.85021 13.70135,-7.00038 14.00975,-7.00038 0.3084,0 3.9783,-2.16488 8.1553,-4.81086 12.8822,-8.16022 17.0753,-6.9294 60.6585,17.80587 11.1608,6.33422 53.1091,28.62044 60.0583,31.90756 4.2286,2.00027 8.0728,4.08115 8.5426,4.62415 0.4699,0.54302 2.392,1.77386 4.2714,2.7352 9.4816,4.85009 21.6274,11.24304 31.6078,16.63695 6.1081,3.30106 15.3341,8.19566 20.5025,10.87688 5.1683,2.68123 18.8449,10.00312 30.3926,16.27086 11.5476,6.26775 21.4239,11.3959 21.9473,11.3959 0.5233,0 2.9921,1.33314 5.4864,2.96253 2.4943,1.62939 8.7638,5.11561 13.9321,7.74713 5.1683,2.63153 18.2386,9.47796 29.0451,15.21428 10.8064,5.73632 25.03,13.16111 31.6079,16.49954 6.5778,3.33844 13.1734,7.06575 14.657,8.28292 1.4835,1.21718 3.5095,2.21305 4.5019,2.21305 0.9927,0 3.059,1.79663 4.5919,3.9925 2.5435,3.64358 2.7473,20.32299 2.3321,190.86174 l -0.4549,186.86926 15.3768,5.51197 c 75.2763,26.98356 99.506,35.60218 112.7632,40.11026 8.4573,2.87587 24.6029,8.62299 35.8792,12.77137 11.2764,4.14841 23.9622,8.64048 28.1909,9.98242 4.2286,1.34193 9.9949,3.40195 12.814,4.57784 2.8191,1.17587 8.9698,3.3213 13.6682,4.76761 4.6985,1.4463 10.8492,3.59074 13.6683,4.76544 4.5283,1.8869 29.4997,10.78792 57.2359,20.40159 5.1683,1.7914 12.4723,4.51178 16.2311,6.04529 3.7588,1.53353 10.6783,4.05259 15.3768,5.59793 4.6985,1.54533 10.0803,3.39714 11.9597,4.11513 1.8794,0.71797 9.1834,3.28004 16.2311,5.69348 28.9053,9.89845 37.5878,15.02774 37.5878,22.20576 0,4.86507 -6.7547,12.54485 -14.0756,16.00317 -3.065,1.44779 -12.8766,6.97069 -21.8037,12.27292 -8.927,5.3022 -18.441,10.8788 -21.1422,12.3925 -2.7012,1.5137 -12.6961,7.4872 -22.211,13.2745 -9.5148,5.7872 -21.5283,12.9597 -26.6967,15.9389 -11.9932,6.9132 -21.39,12.4846 -47.8389,28.3638 -11.7462,7.052 -25.334,15.1405 -30.1951,17.9743 -13.6638,7.9653 -13.916,8.765 -4.2601,13.504 12.0278,5.9029 23.3668,11.7495 53.0639,27.3606 14.4634,7.6031 26.588,13.8239 26.9434,13.8239 0.3553,0 3.5141,1.6944 7.0193,3.7654 6.3541,3.7541 18.8123,10.2178 43.1065,22.3646 44.2087,22.104 59.7987,32.077 59.7987,38.2539 0,4.327 -3.2971,10.1445 -6.9698,12.2972 -1.8203,1.0668 -9.1562,4.1198 -16.3023,6.7842 -14.0459,5.237 -63.9028,25.7914 -83.8897,34.585 -6.7862,2.9856 -12.7219,5.4284 -13.1906,5.4284 -0.4688,0 -4.9115,1.7337 -9.8728,3.8525 -4.9612,2.119 -13.6334,5.6568 -19.2715,7.8618 -19.7321,7.7172 -49.3851,20.3669 -50.5395,21.5598 -0.6407,0.662 -1.5924,80.9436 -2.1148,178.4037 l -0.9502,177.1999 -9.0771,4.4156 c -10.2766,4.9993 -56.6165,23.7093 -72.6231,29.3223 -5.8199,2.0408 -13.1239,4.7777 -16.2311,6.0821 -3.1071,1.3044 -15.2599,6.1404 -27.0061,10.7468 -11.7461,4.6066 -23.6632,9.2917 -26.4822,10.4115 -2.8191,1.1198 -12.0452,4.7287 -20.5025,8.02 -8.4572,3.2911 -18.8365,7.4103 -23.0652,9.1535 -4.2286,1.7433 -10.3793,4.2614 -13.6682,5.596 -3.289,1.3345 -8.4026,3.4232 -11.3637,4.6415 -2.9612,1.2184 -5.8035,2.2152 -6.3166,2.2152 -0.5129,0 -6.5474,2.4462 -13.4099,5.4361 -6.8627,2.9898 -16.7061,6.9974 -21.8744,8.9059 -5.1683,1.9083 -10.9346,4.1141 -12.814,4.9016 -1.8794,0.7876 -9.1834,3.544 -16.2311,6.1255 -7.0477,2.5815 -16.6582,6.3122 -21.3567,8.2906 -13.7514,5.7898 -18.2434,7.5816 -28.1908,11.2441 -5.1683,1.9028 -14.3122,5.5918 -20.3197,8.1975 -6.0074,2.6059 -19.4621,7.98 -29.8994,11.9427 -22.4517,8.5242 -23.5477,8.9559 -33.4991,13.1949 -4.2286,1.8011 -19.221,7.7746 -33.3164,13.2742 -14.0954,5.4997 -27.9462,10.9263 -30.7793,12.0591 -27.4998,10.9952 -26.7474,10.9502 -47.0696,2.8176 z m 5.5453,-255.9273 c 0.3004,-221.5483 0,-285.112 -1.3869,-286.5301 -0.3665,-0.3767 -2.7728,1.1427 -5.3471,3.3766 -3.98135,3.4545 -29.51435,22.0696 -44.58775,32.5071 -2.4831,1.7194 -10.2811,7.1169 -17.3288,11.9943 -7.0477,4.8774 -21.2712,15.0518 -31.6079,22.6097 -28.1296,20.5678 -74.0102,53.2937 -79.1746,56.4738 -4.833,2.9761 -13.1166,3.76 -14.6779,1.3889 -0.5163,-0.7844 -2.879,-1.883 -5.2503,-2.4417 -2.3713,-0.5586 -12.5658,-4.6793 -22.6541,-9.1571 -18.51935,-8.2196 -24.95301,-11.0353 -48.24221,-21.1123 -13.27701,-5.7448 -49.11882,-21.0625 -76.88403,-32.8583 -4.22863,-1.7965 -16.04639,-6.9414 -26.26171,-11.4333 -10.21516,-4.4917 -18.91211,-8.1669 -19.32626,-8.1669 -0.76593,0 -4.49959,-1.6458 -52.41954,-23.106 -14.90679,-6.6759 -27.78486,-11.7425 -28.61794,-11.2594 -0.85581,0.4965 -1.51462,46.915 -1.51462,106.7046 v 105.8263 l 6.407,2.4897 c 8.99116,3.4939 19.4544,7.8938 36.30636,15.2667 16.24576,7.1079 20.01411,8.6476 24.3613,9.9529 1.65267,0.4962 3.90041,2.7473 4.99524,5.0025 1.67898,3.4587 1.44764,4.7834 -1.4772,8.4641 -5.9879,7.5347 -4.29901,7.9529 -51.50359,-12.753 -9.70447,-4.2568 -17.96951,-7.7395 -18.36674,-7.7395 -0.39741,0 -0.72237,17.7204 -0.72237,39.3788 v 39.3789 l 8.11554,3.2457 c 4.46354,1.7852 12.17296,4.992 17.13198,7.1262 4.95902,2.1341 9.42838,3.8803 9.93171,3.8803 0.50334,0 5.67199,2.0738 11.48596,4.6086 23.82312,10.3864 30.4167,13.0312 32.48659,13.0312 1.19597,0 2.90485,0.6423 3.79756,1.4271 0.8927,0.7849 7.38941,3.7513 14.43711,6.592 7.0477,2.8406 17.67291,7.2499 23.61143,9.7982 5.93869,2.5484 11.21704,4.6334 11.72977,4.6334 0.51256,0 6.67832,2.5257 13.70125,5.6126 7.0231,3.087 13.15298,5.6127 13.62197,5.6127 0.46916,0 5.97475,2.2406 12.23464,4.9791 6.26007,2.7385 19.45474,8.177 29.32153,12.0855 16.80668,6.6574 26.51952,10.6827 55.21927,22.8833 6.4086,2.7244 11.9816,4.9535 12.3847,4.9535 0.6677,0 17.568,6.9693 41.7422,17.2134 5.1683,2.1902 18.2386,7.4169 29.0451,11.615 10.8065,4.198 23.8768,9.4747 29.0451,11.7258 18.1774,7.9174 32.7094,13.9688 33.545,13.9688 0.4645,0 4.8317,1.7207 9.7048,3.8239 4.8733,2.1031 14.0693,6.0721 20.4358,8.8199 6.3665,2.7478 11.923,4.996 12.3479,4.996 0.4249,0 6.3643,2.5174 13.1984,5.5941 6.8343,3.0769 13.38685,5.6026 14.56145,5.6127 1.6973,0.016 2.1993,-46.8169 2.4449,-228.0963 z m -323.22212,18.5414 c -3.3518,-1.1113 -43.14869,-17.5116 -52.67359,-21.7066 -8.8239,-3.8864 -11.98383,-9.0266 -9.14459,-14.8755 2.87461,-5.9217 10.95119,-5.24 28.50177,2.4054 8.09862,3.528 15.44805,6.4145 16.33222,6.4145 0.88399,0 1.60739,0.7216 1.60739,1.6036 0,0.882 1.00923,1.6036 2.24296,1.6036 1.23373,0 6.22744,1.8041 11.0971,4.0091 4.86966,2.205 9.50748,4.009 10.30622,4.009 2.63781,0 7.10733,5.8058 7.10733,9.2325 0,6.521 -7.29236,9.985 -15.37681,7.3044 z m 360.09092,206.1762 c 9.8308,-4.2034 48.6764,-19.3951 56.7914,-22.2098 3.2889,-1.1408 9.0552,-3.3745 12.814,-4.9638 3.7588,-1.5892 17.9824,-7.3364 31.6079,-12.7716 13.6256,-5.435 27.9991,-11.2564 31.9412,-12.9367 3.9423,-1.6801 7.6703,-3.0547 8.2845,-3.0547 1.1965,0 5.9051,-1.8726 22.1358,-8.8028 5.6382,-2.4073 14.0954,-5.7613 18.7939,-7.4531 4.6985,-1.6919 10.0803,-3.7366 11.9597,-4.544 11.2396,-4.8285 23.2942,-9.6689 24.0796,-9.6689 0.5023,0 5.2847,-1.8888 10.6278,-4.1972 5.3429,-2.3082 12.6139,-5.1681 16.1574,-6.3551 3.5437,-1.187 8.9256,-3.2151 11.9597,-4.507 13.234,-5.6343 21.6248,-8.995 22.4579,-8.995 0.4936,0 4.9566,-1.7306 9.9178,-3.846 4.9613,-2.1153 14.0179,-5.7557 20.1259,-8.0899 6.108,-2.3341 12.6431,-4.9008 14.5225,-5.7039 1.8794,-0.8031 8.4146,-3.3424 14.5226,-5.643 6.108,-2.3006 14.1808,-5.4602 17.9396,-7.0211 3.7588,-1.561 12.216,-4.8564 18.7939,-7.3233 6.5778,-2.4667 15.0351,-5.7674 18.7938,-7.3348 6.5707,-2.7399 30.2877,-11.8813 57.2359,-22.0606 l 12.814,-4.8404 0.4403,-160.9128 c 0.2423,-88.5021 0.106,-161.7388 -0.3043,-162.7483 -0.6304,-1.5536 -39.4475,13.387 -73.6029,28.3297 -8.4257,3.6861 -15.498,6.5862 -46.9847,19.2667 -13.6256,5.4872 -29.5983,12.0489 -35.4948,14.5813 -5.8967,2.5323 -11.0327,4.6043 -11.4135,4.6043 -0.3807,0 -5.9357,2.2233 -12.344,4.9408 -14.7006,6.2334 -31.3296,13.0236 -52.6567,21.5016 -2.8191,1.1206 -9.5675,3.9283 -14.9963,6.2392 -5.4291,2.3108 -10.2195,4.2017 -10.6456,4.2017 -0.4261,0 -7.3395,2.8865 -15.3629,6.4144 -19.9058,8.7528 -23.1158,8.5206 -38.7949,-2.8063 -7.0202,-5.0714 -15.3163,-11.0249 -18.4359,-13.2298 -3.1194,-2.205 -6.6484,-4.9111 -7.842,-6.0136 -1.1936,-1.1025 -2.93,-2.0045 -3.8584,-2.0045 -0.9286,0 -1.9445,-0.6012 -2.2578,-1.3359 -0.3132,-0.7347 -7.8735,-6.4184 -16.8005,-12.6307 -19.3892,-13.4924 -47.0154,-33.1004 -52.9647,-37.5922 -2.3492,-1.7737 -10.7145,-7.6765 -18.5897,-13.1172 -7.8751,-5.4408 -19.7921,-14.0407 -26.4822,-19.1112 -6.6902,-5.0703 -12.7406,-9.2197 -13.4454,-9.2208 -0.7047,-10e-4 -1.2814,116.1803 -1.2814,258.1808 0,142.0005 0.4267,258.1828 0.9481,258.1828 0.5213,0 4.5234,-1.5287 8.8934,-3.3973 z m 54.6021,-100.4507 c -3.942,-4.0883 -3.7134,-11.0196 0.4744,-14.385 4.4747,-3.5961 42.0862,-18.0747 46.9533,-18.0747 4.9365,0 9.4347,4.7867 9.4347,10.0396 0,5.3403 -5.1722,8.7149 -23.9195,15.6066 -7.9874,2.9364 -15.2913,5.8797 -16.2311,6.5407 -0.9397,0.6612 -4.4235,1.6782 -7.742,2.2602 -4.7154,0.8268 -6.6751,0.3927 -8.9698,-1.9874 z m 73.0158,-28.3777 c -7.5359,-7.0732 -4.6457,-13.2117 8.7984,-18.6881 4.6006,-1.874 13.2235,-5.488 19.1622,-8.0312 5.9386,-2.5434 11.4248,-4.6242 12.1916,-4.6242 0.7666,0 3.5961,-1.078 6.2878,-2.3955 2.6916,-1.3177 6.5045,-2.4001 8.4731,-2.4054 7.9966,-0.023 12.3208,11.3493 6.2447,16.4215 -4.1253,3.4438 -51.5287,23.659 -55.4787,23.659 -0.817,0 -3.3726,-1.7712 -5.6791,-3.9361 z M 823.72065,1410.6406 c 4.3021,-3.7342 46.7554,-34.215 60.5151,-43.4491 3.886,-2.6077 13.9852,-9.7953 22.4424,-15.9723 23.7278,-17.33 75.9425,-54.1975 85.0348,-60.0408 8.75905,-5.6293 9.07175,-7.2864 1.6894,-8.9586 -5.7019,-1.2916 -31.7531,-9.9458 -38.8852,-12.918 -2.8191,-1.1746 -10.5075,-4.0668 -17.0854,-6.427 -6.5778,-2.3602 -13.4974,-4.8795 -15.3768,-5.5984 -1.8794,-0.719 -6.8768,-2.516 -11.1055,-3.9934 -4.2286,-1.4775 -9.9949,-3.6438 -12.814,-4.8143 -2.819,-1.1703 -15.8893,-5.8944 -29.045,-10.4981 -13.1558,-4.6035 -26.226,-9.275 -29.0451,-10.3808 -6.8663,-2.6938 -61.0072,-22.5506 -89.69807,-32.8981 -12.68586,-4.5752 -25.37173,-9.2332 -28.19081,-10.3511 -2.81908,-1.118 -11.27633,-4.1811 -18.79388,-6.8069 -17.82223,-6.2251 -69.0733,-24.4868 -73.46697,-26.1778 -9.17944,-3.5324 -62.54653,-22.4757 -70.00104,-24.8475 -4.67164,-1.4864 -12.50288,-4.4238 -17.40295,-6.5275 -4.90008,-2.1037 -9.91958,-3.8171 -11.15451,-3.8076 -1.23476,0.01 -9.86354,3.9784 -19.17488,8.8199 -9.31134,4.8414 -17.20716,8.8026 -17.54631,8.8026 -0.33931,0 -3.48455,1.6942 -6.98978,3.765 -3.50523,2.0707 -19.05887,10.2638 -34.56382,18.2065 -15.50495,7.9429 -31.65059,16.2449 -35.87922,18.4489 -4.22862,2.204 -15.3768,7.8423 -24.77374,12.5295 -9.39694,4.6872 -23.13748,11.6494 -30.53441,15.4713 -7.3971,3.8219 -14.18852,6.9489 -15.09217,6.9489 -5.77724,0 3.02257,4.779 26.53713,14.4118 25.6005,10.4872 34.02614,14.0279 49.84306,20.9453 14.22218,6.2201 34.27269,14.6481 42.60589,17.9091 4.75759,1.8616 9.38054,3.9885 10.27325,4.7263 0.89271,0.7379 2.58484,1.3415 3.76014,1.3415 1.17547,0 9.28674,3.1718 18.02504,7.0483 15.32743,6.7999 55.69291,24.2622 67.99829,29.4164 10.35628,4.3379 27.63742,11.8368 43.56762,18.9055 8.45725,3.7526 19.22101,8.4248 23.91948,10.3823 4.69847,1.9576 13.92455,5.9042 20.50241,8.7702 6.57786,2.8662 15.80394,6.8531 20.50241,8.8599 18.45901,7.8845 34.70255,14.9556 46.13043,20.0815 13.62453,6.1114 37.38204,16.3467 48.57311,20.9263 4.16267,1.7035 16.0797,7.1732 26.4823,12.1548 10.4027,4.9817 20.025,9.131 21.3831,9.2208 1.3582,0.09 4.4335,-1.5415 6.8342,-3.6253 z m 405.02985,-8.0444 c 4.2211,-2.0983 18.0541,-7.9344 30.74,-12.9691 12.6858,-5.0347 28.6687,-11.6168 35.5173,-14.6266 6.8485,-3.01 12.7843,-5.4727 13.1904,-5.4727 0.6913,0 8.6954,-3.3255 29.0306,-12.0615 19.3705,-8.3219 29.4103,-12.4594 35.8792,-14.7865 3.7588,-1.3522 12.4767,-4.885 19.3732,-7.8504 6.8967,-2.9656 13.0587,-5.392 13.6936,-5.392 0.6351,0 4.0948,-1.4792 7.6886,-3.2871 3.5937,-1.8078 10.502,-4.7427 15.3515,-6.5218 4.8495,-1.7792 12.6616,-4.9037 17.3601,-6.9435 4.6984,-2.0398 12.7713,-5.3338 17.9396,-7.32 9.3317,-3.5863 18.2707,-7.299 38.9884,-16.1934 5.9385,-2.5496 11.1109,-4.6355 11.4938,-4.6355 0.5978,0 20.8165,-8.5802 55.0664,-23.3685 4.9592,-2.1411 9.4275,-3.8931 9.93,-3.8931 0.5023,0 4.9021,-1.7356 9.7773,-3.8568 16.6356,-7.2381 28.6123,-12.1794 29.5214,-12.1794 0.4994,0 7.4415,-2.8865 15.4272,-6.4145 7.9855,-3.5279 14.8127,-6.4144 15.1713,-6.4144 0.3586,0 7.4249,-2.9577 15.7029,-6.5726 8.2781,-3.6149 17.934,-7.6621 21.4579,-8.9939 3.5238,-1.332 6.407,-2.9382 6.407,-3.5695 0,-0.6314 -4.6324,-3.1551 -10.2943,-5.6085 -5.6619,-2.4534 -21.1171,-10.1572 -34.3449,-17.1196 -13.228,-6.9625 -24.4106,-12.659 -24.8503,-12.659 -0.4398,0 -6.7043,-3.3729 -13.9212,-7.4952 -7.2168,-4.1224 -16.9657,-9.4227 -21.6642,-11.7785 -12.9695,-6.503 -29.0129,-14.728 -46.9847,-24.0874 -28.3107,-14.7437 -24.7802,-13.833 -37.5102,-9.6747 -6.1505,2.0093 -17.7181,6.0434 -25.7055,8.9648 -7.9874,2.9215 -22.5954,8.191 -32.4622,11.7103 -61.8156,22.0477 -100.3988,35.9148 -103.3663,37.1506 -1.8794,0.7827 -5.3392,1.9094 -7.6884,2.504 -2.3493,0.5945 -6.5779,2.0169 -9.397,3.1609 -2.819,1.144 -13.5828,5.1051 -23.9194,8.8024 -10.3367,3.6973 -21.1004,7.6357 -23.9195,8.7519 -2.8191,1.1162 -10.8919,3.9892 -17.9396,6.3845 -7.0477,2.3954 -14.3517,4.9555 -16.2311,5.6892 -20.0033,7.8095 -83.4872,30.4765 -85.3558,30.4765 -0.5293,0 -4.2216,1.4156 -8.2051,3.1458 -3.9834,1.7303 -13.7778,5.4401 -21.7652,8.2444 -7.9874,2.804 -19.3982,6.8128 -25.3574,8.9081 -5.9592,2.0953 -14.032,5.1561 -17.9396,6.8019 -3.9076,1.6456 -13.8321,5.0296 -22.0544,7.52 -8.6056,2.6063 -14.9497,5.4082 -14.9497,6.6026 0,1.1413 0.5766,2.0895 1.2814,2.1071 1.1266,0.029 29.2549,18.3435 33.7435,21.9715 0.9397,0.7595 6.3216,4.5944 11.9598,8.522 5.6381,3.9276 10.6356,7.5168 11.1054,7.9759 0.4699,0.4591 23.5352,16.8613 51.2561,36.449 27.721,19.5878 52.7083,37.4116 55.5274,39.6081 6.3679,4.9617 6.8374,4.9702 16.2447,0.2942 z m -163.1787,-153.3666 c 7.5175,-2.8388 19.4346,-7.1821 26.4823,-9.6513 7.0477,-2.4693 20.8868,-7.3433 30.7536,-10.8312 9.8668,-3.488 30.6255,-10.8131 46.1305,-16.2779 27.7901,-9.795 36.9017,-13.0757 46.9847,-16.9169 2.819,-1.0739 9.3542,-3.4508 14.5225,-5.282 18.4868,-6.5496 50.4633,-18.1135 53.8188,-19.4629 1.8794,-0.7558 14.1809,-5.1412 27.3366,-9.7454 13.1557,-4.6042 26.3422,-9.3752 29.3032,-10.6023 2.9612,-1.2273 6.4595,-2.2313 7.7738,-2.2313 1.3146,0 3.1205,-0.6078 4.0132,-1.3506 0.8927,-0.7428 9.6959,-4.1093 19.5627,-7.4812 9.8668,-3.3718 18.7085,-6.642 19.6482,-7.2673 0.9397,-0.6252 7.8592,-3.1403 15.3768,-5.589 7.5175,-2.4487 16.7436,-5.7286 20.5024,-7.2888 6.4077,-2.6595 33.9703,-12.7595 40.5777,-14.8692 3.2512,-1.038 4.1668,-5.8661 1.1124,-5.8661 -1.0325,0 -4.3,-1.025 -7.2613,-2.2779 -2.961,-1.2528 -12.6877,-4.8998 -21.6148,-8.1045 -8.9271,-3.2047 -18.1532,-6.5833 -20.5024,-7.5081 -2.3492,-0.9247 -9.6532,-3.4522 -16.2311,-5.6165 -6.5778,-2.1644 -13.4974,-4.5792 -15.3768,-5.3663 -10.427,-4.367 -103.7167,-38.5262 -124.723,-45.6689 -19.1914,-6.5257 -32.0704,-11.2948 -41.4133,-15.3354 -3.9835,-1.7228 -8.0303,-3.1323 -8.9931,-3.1323 -0.9625,0 -3.0852,-0.6758 -4.7171,-1.5017 -1.6316,-0.8259 -8.733,-3.4639 -15.7807,-5.86233 -16.5613,-5.63577 -66.3155,-23.74686 -79.1323,-28.80503 -10.4496,-4.12388 -16.4898,-4.89704 -19.1939,-2.45684 -0.8927,0.80556 -5.5489,3.51167 -10.3473,6.01357 -4.7983,2.50191 -18.0601,9.60031 -29.4704,15.77425 l -20.7462,11.22535 v 129.22493 c -9e-4,71.0739 0.4666,129.6647 1.039,130.2018 1.0234,0.9607 3.2484,0.2262 30.5672,-10.0907 z m -57.653,-120.5163 -0.4372,-130.16503 -7.58015,-3.7622 c -4.169,-2.0692 -11.0886,-5.8526 -15.3768,-8.40745 -12.6251,-7.52201 -38.0624,-20.96289 -39.6729,-20.96289 -0.8177,0 -2.8216,0.63744 -4.4533,1.41653 -5.5273,2.63909 -11.4776,4.90531 -21.7605,8.28773 -5.6382,1.85455 -12.5578,4.36374 -15.3769,5.57593 -2.819,1.21221 -12.814,4.8355 -22.2109,8.05179 -19.9943,6.84346 -45.665,16.12859 -52.9646,19.15749 -2.819,1.1697 -10.123,3.9228 -16.231,6.118 -29.9725,10.7719 -35.40069,12.694 -40.15059,14.2173 -2.81908,0.904 -6.66328,2.2372 -8.54267,2.9625 -1.87939,0.7253 -13.79641,5.0285 -26.48228,9.5628 -34.42303,12.3037 -45.68108,16.3687 -79.73063,28.789 -17.07048,6.2269 -31.4946,11.3216 -32.05364,11.3216 -0.55886,0 -4.27543,1.3603 -8.25888,3.0228 -3.98345,1.6626 -11.85569,4.6006 -17.49385,6.5289 -5.63817,1.9282 -14.09541,5.1871 -18.79388,7.2418 -7.19207,3.1452 -8.00243,3.9148 -5.1256,4.8673 4.63918,1.5361 21.41118,7.3431 25.62801,8.8733 1.87939,0.682 13.79641,4.9942 26.48228,9.5827 12.68587,4.5885 25.37173,9.266 28.19082,10.3943 2.81908,1.1283 7.0477,2.5862 9.39693,3.2395 2.34924,0.6534 21.95467,7.631 43.56763,15.5059 21.61295,7.8748 45.44701,16.5216 52.96456,19.2148 7.51755,2.6932 15.97479,5.8109 18.79389,6.9283 5.1647,2.047 14.4793,5.4823 42.7133,15.7532 46.7611,17.0107 60.6771,21.9486 61.8806,21.9575 0.7343,0 3.3422,0.9928 5.7952,2.1943 2.4531,1.2014 12.0636,4.8694 21.3566,8.151 18.1105,6.3954 20.4893,7.2713 29.7108,10.9409 3.2889,1.3087 9.0552,3.2855 12.814,4.3928 3.7587,1.1073 9.9095,3.2827 13.6682,4.8344 15.4609,6.3822 36.01815,14.069 38.02495,14.2183 1.7091,0.1267 2.0567,-26.3322 1.7085,-130.0051 z m -464.08734,-47.734 c 45.29187,-16.927 92.42538,-33.7789 94.47716,-33.7789 0.56159,0 4.28022,-1.4004 8.26383,-3.1118 3.98345,-1.7115 19.15968,-7.1822 33.72493,-12.157 14.56526,-4.9749 33.61832,-11.8733 42.34038,-15.3298 8.7219,-3.4566 16.61294,-6.2847 17.53554,-6.2847 0.92278,0 3.01266,-0.6602 4.64431,-1.4672 1.63182,-0.807 9.50202,-3.751 17.48941,-6.5423 7.9874,-2.79133 19.52003,-6.90263 25.62803,-9.13623 6.108,-2.23371 25.329,-9.0808 42.7133,-15.21578 32.8861,-11.60557 58.7003,-21.02267 67.4871,-24.61935 2.8191,-1.15393 6.8555,-2.56489 8.9698,-3.13544 2.1144,-0.57057 3.8442,-1.54462 3.8442,-2.16457 0,-1.03497 -39.6885,-23.82598 -54.2264,-31.13937 -13.7819,-6.9331 -49.7924,-26.07468 -59.9928,-31.88967 -5.9693,-3.4028 -11.2324,-6.18691 -11.6961,-6.18691 -0.4637,0 -2.8839,-1.34887 -5.3782,-2.99747 -2.49425,-1.64862 -11.45448,-6.445 -19.91173,-10.65864 -8.45724,-4.21363 -19.30063,-10.08105 -24.09648,-13.03872 -10.96725,-6.76384 -11.1499,-6.76664 -27.15954,-0.4154 -1.87939,0.74557 -9.5678,3.56399 -17.08535,6.26317 -7.51755,2.69918 -15.20595,5.53963 -17.08534,6.31211 -1.87939,0.77248 -10.72105,3.9025 -19.64814,6.95562 -8.92709,3.0531 -27.76368,9.69238 -41.85909,14.75399 -14.09541,5.06158 -28.70337,10.30654 -32.46215,11.65544 -3.75877,1.3489 -9.14066,3.33126 -11.95974,4.40524 -2.81908,1.07397 -9.73864,3.57201 -15.37681,5.5512 -5.63816,1.97919 -11.78888,4.21176 -13.66827,4.96129 -1.87939,0.74952 -17.2562,6.20252 -34.17068,12.11777 -16.91449,5.91526 -39.59528,13.88246 -50.40176,17.70488 -10.80648,3.82243 -20.23315,6.95863 -20.94817,6.96933 -0.71502,0.0112 -4.55922,1.39482 -8.54267,3.07583 -7.84935,3.31236 -62.89883,23.15508 -69.17701,24.93504 -5.67627,1.60923 -4.80645,2.96435 5.1256,7.98604 4.93339,2.49436 16.47642,9.13077 25.65108,14.7477 9.17483,5.6168 17.15573,10.2124 17.73561,10.2124 0.5797,0 4.79978,2.5257 9.37763,5.6127 4.57802,3.0869 8.58863,5.6126 8.9124,5.6126 0.71604,0 28.46811,17.0465 31.36612,19.2664 1.13498,0.8694 2.53188,1.5807 3.10407,1.5807 0.57219,0 3.4878,1.6255 6.4791,3.6122 2.9913,1.9867 6.97646,4.4814 8.85585,5.5439 12.86321,7.2721 19.2181,11.1481 35.87921,21.8836 10.33664,6.6605 19.66028,12.1433 20.71923,12.184 1.05895,0.041 7.59409,-2.0445 14.52254,-4.6339 z m 982.77384,-2.5084 c 6.049,-3.9689 11.4022,-7.2162 11.896,-7.2162 0.4938,0 7.2479,-4.0123 15.0093,-8.9162 7.7615,-4.9039 17.6297,-10.8227 21.9294,-13.1529 4.2997,-2.3302 8.2021,-4.6751 8.672,-5.211 0.4698,-0.5359 7.005,-4.5135 14.5225,-8.839 7.5176,-4.3256 14.0527,-8.2515 14.5226,-8.7244 0.8224,-0.8278 5.6364,-3.5239 12.814,-7.1766 1.8794,-0.9564 8.2766,-4.7974 14.2162,-8.5354 5.9395,-3.7381 11.1171,-6.7966 11.5056,-6.7966 2.2438,0 38.3482,-23.29158 38.3482,-24.73916 0,-0.96208 -5.1897,-3.45879 -11.5326,-5.54824 -6.3429,-2.08944 -13.8391,-4.72866 -16.6582,-5.86495 -2.8191,-1.13628 -15.8894,-5.8125 -29.0451,-10.3916 -13.1557,-4.5791 -38.5274,-13.70652 -56.3816,-20.28316 -17.8542,-6.57662 -38.2285,-14.00389 -45.2762,-16.50503 -15.5784,-5.52855 -96.4493,-34.06816 -140.9541,-49.74314 -17.8541,-6.28841 -33.9998,-12.09215 -35.8792,-12.89722 -8.9957,-3.85351 -30.2605,-11.18221 -32.4459,-11.18221 -2.1671,0 -15.8916,6.43728 -20.5186,9.62394 -0.9397,0.64718 -6.1294,3.43712 -11.5326,6.1999 -25.967,13.27733 -29.7634,15.28827 -33.7436,17.87362 -2.3492,1.52596 -8.1155,4.66715 -12.814,6.98043 -8.1278,4.00167 -12.1711,6.11911 -29.8993,15.65763 -4.2287,2.27518 -18.8366,10.11579 -32.4622,17.4236 -43.2874,23.21634 -46.0701,24.82688 -46.1005,26.68105 -0.017,0.99968 1.7,2.19834 3.8143,2.66371 2.1143,0.46537 12.3014,4.12066 22.6381,8.12288 10.3366,4.00222 34.1706,12.80755 52.9645,19.56741 18.7939,6.75987 36.4772,13.23575 39.2963,14.39084 2.8191,1.15507 22.8089,8.3485 44.4219,15.9853 21.613,7.6368 41.6028,14.8108 44.4219,15.9423 2.8191,1.1315 8.5854,3.3357 12.814,4.8982 4.2286,1.5626 9.9949,3.7417 12.814,4.8426 2.8191,1.1008 15.8894,5.7282 29.0451,10.2831 21.4942,7.442 68.7627,24.6233 82.0096,29.8092 19.5,7.6338 31.1577,11.7403 33.6617,11.8575 1.5994,0.075 7.8574,-3.1112 13.9065,-7.0802 z M 1053.1248,959.56576 c 19.7759,-11.2906 56.1228,-31.03328 57.1334,-31.03328 0.4146,0 4.9605,-2.5257 10.1021,-5.61267 5.1413,-3.08696 9.8451,-5.61266 10.4528,-5.61266 0.6075,0 6.5512,-3.15487 13.208,-7.01082 6.6566,-3.85595 22.098,-12.2645 34.314,-18.68565 12.216,-6.42116 24.133,-12.81539 26.4823,-14.20938 2.3492,-1.394 5.809,-3.31973 7.6884,-4.2794 10.0163,-5.11462 23.6792,-12.42341 35.5013,-18.99085 7.3096,-4.06074 13.629,-7.38316 14.0429,-7.38316 0.414,0 7.2611,-3.60815 15.2157,-8.0181 7.9548,-4.40996 14.8516,-8.0181 15.3264,-8.0181 0.4748,0 7.2526,-3.60676 15.0616,-8.01503 7.809,-4.40827 15.1593,-8.01642 16.3339,-8.0181 1.6949,-0.003 2.1357,-34.42907 2.1357,-166.7795 0,-91.72704 -0.4176,-166.77643 -0.9279,-166.77643 -0.5105,0 -14.9263,7.50975 -32.035,16.68832 -17.1089,9.17857 -63.7828,34.17945 -103.7198,55.55751 -39.937,21.37806 -77.4966,41.65102 -83.4657,45.05103 -5.9691,3.40001 -11.1742,6.18184 -11.5666,6.18184 -0.3925,0 -3.5815,1.68273 -7.0867,3.7394 -3.5051,2.05666 -10.6016,5.93232 -15.7699,8.61256 -17.5593,9.10609 -31.6016,16.7845 -33.7436,18.45131 -1.6834,1.30987 -2.1357,36.77288 -2.1357,167.4401 0,91.17805 0.3575,165.77827 0.7942,165.77827 0.4368,0 7.933,-4.07574 16.6582,-9.05721 z m 125.3323,-126.56319 c -1.4767,-1.38597 -2.6848,-4.22095 -2.6848,-6.29993 0,-7.9476 10.3131,-11.75039 15.9663,-5.8873 5.6834,5.8945 1.7471,14.70721 -6.5694,14.70721 -2.2149,0 -5.2354,-1.13398 -6.7121,-2.51998 z m 4.1493,-33.88991 c -2.2785,-0.77978 -19.9396,-10.90604 -47.8389,-27.42931 -5.1683,-3.06091 -10.358,-6.68467 -11.5326,-8.0528 -2.3657,-2.75535 -3.1181,-60.62466 -0.8282,-63.69112 1.6271,-2.17882 11.6275,-8.74962 18.9373,-12.44274 3.1549,-1.59406 7.3397,-4.30017 9.299,-6.01357 1.9595,-1.7134 4.2754,-3.11529 5.1465,-3.11529 0.871,0 6.788,-3.24733 13.1487,-7.21628 6.505,-4.05902 13.5691,-7.21629 16.1456,-7.21629 4.2367,0 40.9327,19.92704 58.1756,31.591 l 6.8341,4.62298 0.4861,28.79889 c 0.2674,15.83938 0.068,30.39632 -0.444,32.34876 -0.5341,2.03845 -4.3783,5.42523 -9.0288,7.95453 -4.4543,2.42257 -15.569,8.91644 -24.6996,14.43084 -14.9469,9.02726 -29.4303,16.76958 -30.7428,16.43405 -0.2724,-0.0696 -1.6484,-0.52127 -3.058,-1.00365 z m 15.3497,-35.08218 c 5.1105,-3.15902 12.5893,-7.55736 16.6192,-9.77409 l 7.3274,-4.03043 v -17.76207 c 0,-14.2774 -0.5547,-18.33741 -2.8276,-20.69468 -1.5551,-1.61294 -3.597,-2.93261 -4.5372,-2.93261 -0.9402,0 -4.2296,-1.80407 -7.3096,-4.00904 -3.08,-2.20498 -6.4202,-4.00905 -7.4226,-4.00905 -1.0024,0 -1.8272,-0.54122 -1.8332,-1.20272 -0.017,-1.83786 -10.0922,-6.81538 -13.7959,-6.81538 -1.8034,0 -3.2787,0.72163 -3.2787,1.60362 0,0.88199 -0.6827,1.60362 -1.517,1.60362 -0.8345,0 -8.1384,4.14313 -16.2311,9.20696 l -14.714,9.20697 v 17.7355 17.7355 l 12.3868,6.71109 c 6.8128,3.69108 14.309,8.14839 16.6582,9.90511 6.0523,4.52581 9.8972,4.06044 20.4753,-2.4783 z m -19.499,-131.48035 c -7.6937,-7.22132 2.8828,-18.36906 12.0684,-12.72006 4.4309,2.72502 5.5191,10.0038 1.9904,13.31569 -2.9028,2.72458 -10.8814,2.38656 -14.0588,-0.59563 z m -170.5403,169.2975 c 0.4005,-150.98832 0.2086,-164.33779 -2.4003,-167.04376 -1.5597,-1.61755 -3.3761,-2.941 -4.0364,-2.941 -0.6604,0 -9.52145,-4.69059 -19.69155,-10.42353 -10.1699,-5.73294 -19.0221,-10.42353 -19.6715,-10.42353 -0.6494,0 -9.169,-4.54645 -18.9323,-10.10322 -9.7634,-5.55678 -24.6623,-13.57812 -33.109,-17.82521 -8.4465,-4.24709 -17.2794,-9.00145 -19.6287,-10.56522 -3.8163,-2.54028 -14.7053,-8.2974 -66.7536,-35.29272 -8.0537,-4.17717 -17.8412,-9.48969 -21.7498,-11.80559 -3.9086,-2.3159 -7.4465,-4.21073 -7.8618,-4.21073 -0.9119,0 -48.99446,-25.94443 -63.38271,-34.20027 -5.63816,-3.23509 -10.83142,-5.88384 -11.54064,-5.8861 -0.70921,-0.002 -1.09363,74.74517 -0.85426,166.10541 l 0.43516,166.10956 12.81401,6.42881 c 7.0477,3.53585 16.47744,8.52654 20.95517,11.09041 4.47756,2.56388 8.50047,4.66161 8.93973,4.66161 0.4391,0 5.61732,2.76632 11.50681,6.14739 5.88963,3.38108 15.32163,8.54088 20.95983,11.46624 26.6635,13.83446 42.8819,22.45287 64.9243,34.50056 13.1557,7.19056 28.9169,15.53841 35.0249,18.55076 6.108,3.01236 11.8743,6.04945 12.814,6.74911 1.992,1.48322 40.3105,22.55585 58.9444,32.41561 7.0477,3.72914 18.5804,10.10914 25.6281,14.17776 7.0477,4.06864 13.58275,7.17768 14.52245,6.90896 1.1208,-0.32048 1.8582,-56.94088 2.1437,-164.59131 z m -156.42425,31.75058 c -3.6587,-3.43393 -2.4299,-10.59728 2.3188,-13.51765 4.1399,-2.54608 4.6103,-2.51808 8.9698,0.53388 5.7343,4.01458 6.6296,7.82465 2.777,11.82018 -3.3383,3.46226 -10.9462,4.09162 -14.0656,1.16359 z m -5.4674,-39.21928 c -20.2751,-11.15498 -48.9178,-28.46503 -50.8288,-30.7181 -1.5321,-1.80613 -2.1357,-10.76624 -2.1357,-31.70059 0,-31.3651 0.4729,-33.21593 9.7178,-38.01942 2.0559,-1.06822 14.427,-8.25647 27.4912,-15.97389 13.501,-7.97538 25.6011,-14.03167 28.0344,-14.03167 4.7272,0 9.4609,2.17481 23.8421,10.95392 5.3014,3.23625 14.5275,8.70038 20.5024,12.14253 5.9751,3.44214 12.9781,8.08732 15.5622,10.32264 l 4.6985,4.0642 v 30.69103 c 0,36.24216 2.8237,31.45072 -29.0451,49.2846 -35.5947,19.9189 -35.3543,19.85363 -47.839,12.98475 z m 20.7143,-28.67847 c 10.0189,-5.459 12.9739,-7.16538 21.5438,-12.44045 l 7.2894,-4.48699 V 731.3986 714.02419 l -11.5326,-6.85466 c -27.5212,-16.3578 -24.24,-15.03575 -30.1559,-12.15045 -2.9129,1.42063 -11.0625,6.03907 -18.1102,10.26321 l -12.814,7.68027 -1.2819,11.16688 c -0.7049,6.14179 -0.8245,14.59738 -0.2658,18.79022 0.9824,7.37195 1.3627,7.80568 11.5329,13.15299 5.7844,3.04131 13.1653,7.36832 16.4018,9.61557 7.2787,5.05378 8.1386,5.05437 17.3925,0.0128 z m -16.6642,-134.73119 c -2.7128,-3.88607 -2.6829,-4.327 0.5722,-8.41901 7.2857,-9.15938 20.4657,-2.51133 16.0778,8.10989 -1.506,3.64573 -2.8585,4.40996 -7.8044,4.40996 -4.532,0 -6.6771,-0.99443 -8.8456,-4.10084 z m 2.0573,-43.8755 c -6.984,-7.24333 1.8155,-16.60652 11.2866,-12.0096 5.9699,2.89761 6.4649,9.00844 1.0196,12.58823 -5.0504,3.3203 -8.713,3.1481 -12.3062,-0.57863 z m 212.68165,2.92394 c 22.9113,-12.43095 45.1404,-24.34427 49.398,-26.47404 8.9791,-4.49151 14.2207,-7.4713 15.4297,-8.77151 0.4698,-0.50533 2.0075,-1.40278 3.417,-1.99433 1.4096,-0.59154 3.7161,-1.79597 5.1256,-2.6765 3.4417,-2.15001 32.6057,-17.66288 33.2061,-17.66288 0.401,0 14.4742,-7.53669 35.9896,-19.27376 2.8191,-1.53787 11.6607,-6.22353 19.6481,-10.41259 7.9874,-4.18907 28.4246,-15.09916 45.4161,-24.24469 16.9914,-9.14552 31.7916,-16.62822 32.8893,-16.62822 1.0976,0 1.9957,-1.3298 1.9957,-2.95511 0,-1.91975 -2.8433,-4.29466 -8.1155,-6.77831 -4.4635,-2.10276 -15.0351,-7.5161 -23.4923,-12.02968 -23.3014,-12.43575 -31.803,-16.88732 -39.2963,-20.5759 -3.7588,-1.85029 -7.0905,-3.90538 -7.4036,-4.56687 -0.3134,-0.66149 -1.2134,-1.20271 -2.0005,-1.20271 -0.787,0 -8.6035,-3.8658 -17.37,-8.59066 -8.7667,-4.72487 -19.6507,-10.51472 -24.1867,-12.86633 -4.5362,-2.35163 -20.9053,-11.11434 -36.3761,-19.47269 -15.4706,-8.35836 -28.5183,-15.19701 -28.9952,-15.19701 -0.4767,0 -5.0734,-2.5257 -10.2148,-5.61267 -5.1414,-3.08696 -9.6902,-5.61266 -10.1084,-5.61266 -0.4184,0 -6.4593,-3.24733 -13.4245,-7.21629 -6.965,-3.96896 -13.0593,-7.21629 -13.5427,-7.21629 -0.4835,0 -8.035,-3.96896 -16.7812,-8.81991 -8.7463,-4.85095 -16.9029,-8.81991 -18.1257,-8.81991 -1.2229,0 -2.2235,-0.61203 -2.2235,-1.36007 0,-0.74803 -3.1626,-2.69867 -7.0282,-4.33473 -6.8184,-2.88591 -7.188,-2.88703 -12.3869,-0.0377 -2.9472,1.61535 -8.8184,4.75451 -13.047,6.97594 -11.05515,5.80764 -32.31775,17.07031 -39.29625,20.81513 -10.1999,5.47336 -67.1124,35.82256 -74.3212,39.63259 -3.7588,1.98656 -18.3668,9.58156 -32.4622,16.87776 -14.0954,7.29621 -32.932,17.38232 -41.8591,22.4136 -8.9271,5.03127 -21.6129,11.91455 -28.1908,15.29618 -16.80871,8.64119 -17.62983,9.0772 -28.77221,15.2779 -5.48815,3.05406 -12.40772,6.88198 -15.37681,8.50651 -2.96926,1.62451 -5.98072,3.46994 -6.6925,4.10095 -0.7116,0.63103 5.43912,4.65746 13.66828,8.94765 8.22932,4.2902 18.4221,9.60224 22.65072,11.80454 4.22862,2.20229 16.80432,8.93398 27.94602,14.95931 11.1417,6.02531 20.5379,10.95513 20.8803,10.95513 0.3426,0 6.4747,3.24733 13.6271,7.21629 7.1524,3.96896 13.2914,7.21629 13.6423,7.21629 0.3508,0 4.708,2.25948 9.6828,5.02107 4.9749,2.7616 13.6582,7.34009 19.2963,10.17442 5.6382,2.83435 22.7645,12.12093 38.0585,20.63684 15.2941,8.51592 28.1276,15.48349 28.5188,15.48349 0.3915,0 7.6526,3.96896 16.1361,8.81991 8.4836,4.85095 15.9056,8.81991 16.4935,8.81991 0.5881,0 3.1099,1.33313 5.6042,2.96252 2.4943,1.62939 8.78,5.12251 13.9681,7.76247 5.18805,2.63996 12.49205,6.67659 16.23105,8.97026 3.7389,2.29369 7.6342,4.21281 8.6561,4.2647 1.0219,0.0518 20.6036,-10.07644 43.5148,-22.50738 z m -53.9155,-67.16866 c -24.63785,-13.92638 -48.18305,-27.86396 -50.82885,-30.08828 -2.6557,-2.2325 -2.9899,-6.04369 -2.9899,-34.08882 0,-36.45088 -2.1106,-32.0139 21.3566,-44.89822 8.4573,-4.64331 20.5573,-11.59497 26.88895,-15.4481 13.5833,-8.26609 18.9854,-8.75406 29.0995,-2.6285 9.8135,5.94346 13.601,8.11195 16.6152,9.51281 5.2512,2.44048 30.0212,17.07228 32.8983,19.43321 2.6522,2.17635 2.99,5.91748 2.99,33.11872 0,35.71235 0.3605,34.77021 -16.7213,43.69526 -6.3082,3.29605 -18.5061,10.14051 -27.1066,15.20993 -8.6002,5.06943 -17.4419,9.62068 -19.6481,10.1139 -2.692,0.60184 -6.8208,-0.69133 -12.5538,-3.93191 z m 20.1093,-30.06742 c 10.215,-6.18667 13.6935,-8.16441 16.6242,-9.45162 1.4095,-0.61911 4.6771,-2.50064 7.2613,-4.18115 4.654,-3.02665 4.6984,-3.22571 4.6984,-21.0909 v -18.03543 l -5.5527,-2.63577 c -7.3956,-3.51055 -15.6008,-8.13993 -16.6582,-9.39861 -1.4229,-1.69368 -13.6432,-7.80306 -15.6082,-7.80306 -1.0097,0 -5.2535,2.16488 -9.4306,4.81085 -4.177,2.64598 -7.9774,4.81086 -8.4454,4.81086 -0.4678,0 -5.04235,2.51674 -10.16545,5.59275 l -9.3149,5.59276 v 18.38306 18.38306 l 11.5326,5.97946 c 6.34295,3.2887 13.83915,7.64579 16.65815,9.68242 6.6281,4.78837 9.6109,4.68483 18.4008,-0.63868 z m 147.5521,21.83179 c -3.5208,-4.7179 -1.1406,-10.09458 4.761,-10.75509 5.65,-0.63231 9.5365,2.14187 9.5365,6.80688 0,7.42973 -9.7005,10.10847 -14.2975,3.94821 z M 852.50415,485.53258 c -4.8299,-3.56345 -5.2857,-8.6453 -1.1039,-12.30213 2.0965,-1.83325 5.0335,-3.33316 6.5266,-3.33316 4.5977,0 10.3093,4.79912 10.3093,8.66231 0,7.17836 -9.6541,11.45738 -15.732,6.97298 z m 325.95295,-0.51545 c -8.0762,-7.58033 2.4599,-18.65595 12.8043,-13.4598 3.7883,1.90288 4.5932,10.92178 1.2545,14.05543 -2.9028,2.72458 -10.8814,2.38656 -14.0588,-0.59563 z M 538.06191,798.0106 c -6.69182,-4.76785 -1.87273,-15.4075 6.97851,-15.4075 9.71472,0 13.32127,13.45837 4.46166,16.64934 -4.23187,1.52423 -8.15586,1.09829 -11.44017,-1.24184 z m 943.24069,-80.69425 c -13.3851,-7.79399 -9.7683,-29.96403 5.6042,-34.35203 5.0561,-1.44319 7.2842,-1.25857 12.4205,1.02917 11.2097,4.99271 16.3423,14.92051 12.3502,23.88848 -4.7363,10.63933 -20.1067,15.41337 -30.3749,9.43438 z M 595.75791,709.8152 c -2.76133,-2.59182 -3.77347,-4.94348 -3.12644,-7.26535 1.01965,-3.65984 6.69625,-8.14582 10.30775,-8.14582 3.36018,0 9.01679,6.03599 9.01679,9.62172 0,3.80191 -5.73093,9.62171 -9.47467,9.62171 -1.45226,0 -4.47773,-1.72451 -6.72343,-3.83226 z m -72.6438,-72.74306 c -14.33374,-6.72301 -14.29325,-29.90469 0.0666,-37.86612 14.17126,-7.85716 34.10268,3.34374 34.10268,19.16483 0,9.76697 -13.04978,21.51391 -23.89282,21.50763 -2.36393,-10e-4 -6.98808,-1.26423 -10.27598,-2.80634 z m 91.4669,-9.95552 c -6.6843,-6.93251 2.56075,-17.17825 11.89754,-13.18535 3.30807,1.41473 4.27134,3.02773 4.27134,7.15296 0,2.92948 -0.92261,6.19228 -2.05024,7.25067 -3.13892,2.94603 -10.73541,2.29053 -14.11864,-1.21828 z m 918.63189,-56.2806 c -5.5186,-2.05791 -8.9883,-10.41857 -6.7855,-16.34979 3.264,-8.78815 17.962,-9.72718 22.5282,-1.43929 5.7156,10.374 -4.5428,21.9657 -15.7427,17.78908 z m -103.4584,-10.8614 c -6.046,-6.2705 -1.8056,-14.54717 7.509,-14.65621 5.6111,-0.0657 8.4572,2.68481 8.4572,8.17328 0,8.48579 -10.0863,12.58122 -15.9662,6.48293 z m -979.54115,-9.27933 c -2.62226,-3.75623 -2.66531,-4.63471 -0.41261,-8.419 2.80319,-4.70933 10.44871,-6.47556 14.47026,-3.34287 3.43962,2.67933 3.06716,10.13168 -0.66496,13.30173 -4.58332,3.89314 -10.03781,3.266 -13.39269,-1.53986 z M 1403.5414,424.87676 c -18.6045,-8.6437 -26.241,-31.14229 -16.6816,-49.14762 12.2383,-23.05078 41.2955,-26.59683 61.7299,-7.5333 9.9136,9.24853 11.8521,14.68949 10.2913,28.88359 -1.3685,12.44635 -10.168,23.35018 -23.193,28.73976 -8.4362,3.49076 -23.5588,3.04743 -32.1466,-0.94243 z m 25.7177,-24.0515 c 9.1638,-6.76554 3.3944,-19.12704 -8.9269,-19.12704 -7.5982,0 -12.2146,3.90426 -12.1449,10.27116 0.1196,10.9611 11.6546,15.80871 21.0718,8.85588 z M 608.861,389.65384 c -7.92264,-6.92785 -2.18009,-19.82241 8.82783,-19.82241 7.9944,0 13.06106,4.38871 13.06106,11.31352 0,10.60304 -13.49486,15.84889 -21.88889,8.50889 z m 151.39493,-46.2288 c -4.4169,-2.6692 -10.18321,-7.90885 -12.81401,-11.64367 -4.24554,-6.02736 -4.78304,-8.24485 -4.78304,-19.73007 0,-11.05404 0.60021,-13.75734 4.11945,-18.55216 10.91804,-14.87532 27.81596,-21.36037 43.94432,-16.86488 20.0657,5.59301 30.7719,19.12494 29.246,36.96571 -1.2014,14.04903 -5.5078,21.01808 -18.2493,29.53379 -4.719,3.15391 -8.425,4.00676 -19.6251,4.51626 -13.01374,0.59203 -14.269,0.34917 -21.83832,-4.22498 z m 26.50992,-21.30081 c 5.0944,-2.5168 6.2381,-4.47407 6.2685,-10.72823 0.044,-9.01212 -11.5046,-14.76752 -18.91572,-9.42686 -5.41332,3.90103 -7.15876,9.03825 -4.84882,14.27218 3.0441,6.898 10.42084,9.37834 17.49604,5.88291 z m 504.33255,-28.21525 c -8.9452,-1.93968 -13.9646,-11.29114 -11.2114,-20.88792 2.2381,-7.80109 7.8115,-11.59431 17.0359,-11.59431 12.4009,0 20.3565,11.50276 15.7466,22.76771 -2.7925,6.82335 -13.2289,11.52343 -21.5711,9.71452 z M 581.97893,276.73402 c -2.30652,-2.16489 -4.1936,-5.00442 -4.1936,-6.31008 0,-4.69266 3.3436,-10.48173 7.54711,-13.06686 3.59339,-2.2099 5.26519,-2.3294 10.38806,-0.74257 7.86575,2.43656 11.78136,7.91345 10.27136,14.3668 -2.29883,9.82353 -16.1424,13.13999 -24.01293,5.75271 z m 597.27707,-1.17707 c -4.1821,-4.21331 -4.313,-5.89084 -0.824,-10.56614 5.6776,-7.60826 19.2596,-2.20504 16.8748,6.71318 -2.0299,7.59146 -10.3563,9.59015 -16.0508,3.85296 z m 314.3037,0.30238 c -4.1123,-3.85979 -4.2726,-6.15819 -0.7574,-10.86852 3.1584,-4.23245 11.1728,-4.78448 15.1579,-1.04408 3.8534,3.6168 3.3163,9.71196 -1.1124,12.62348 -5.1108,3.35986 -9.1832,3.14199 -13.2881,-0.71088 z"
       id="path827"
       sodipodi:nodetypes="csssssssssssssssssssssssssscssssssssssssssssssssssssssssssssssssssssscccsssssssssssssssssssssssssssssssscsssssssssssssssssssssssssssssssssscsssssssssssssssssssssccscssssssssssssssscsssssssscssssssssssssssssssssssscsssssssssssssssssssssssssssssssssscscssssssssssssssssssssssssssssssssssscssssssssssssssssssssssssssssssssssssssssssssssssssssssssssssssssssssssssssssscsssssscssssssscsssssscssssssssssssssssssssssssssssssccsccscsssssssssssssssssssssssssscssssssssssssssssssssssssssssssssssssscssssssssssssssssssssssssssssssssssssssscssssssssssssssssssssssssscssssssssssssssssssssssssssscscsssssscsssssssssscccssssssssssssssssssscscsssssssssssssssssssssssssscssssscccssscsssssssssssssssssssssssssssssssssssssssssssssssssssssssssssssssssssssssssssssssssssssssscsssssscccssssssssssssssssssssssssssssssssssssssssssssssssssssssssssssssssssssssssssssssscsssssssssssssssssssssss" />
  </g>
</svg>
