<?xml version="1.0" encoding="UTF-8" standalone="no"?>
<!-- Created with Inkscape (http://www.inkscape.org/) -->

<svg
   version="1.1"
   id="svg2"
   width="2048"
   height="2048"
   viewBox="0 0 2048 2048"
   sodipodi:docname="Gemini_Generated_Image_2u225s2u225s2u22.jpeg.svg"
   inkscape:version="1.1.2 (0a00cf5339, 2022-02-04)"
   xmlns:inkscape="http://www.inkscape.org/namespaces/inkscape"
   xmlns:sodipodi="http://sodipodi.sourceforge.net/DTD/sodipodi-0.dtd"
   xmlns="http://www.w3.org/2000/svg"
   xmlns:svg="http://www.w3.org/2000/svg">
  <defs
     id="defs6" />
  <sodipodi:namedview
     id="namedview4"
     pagecolor="#ffffff"
     bordercolor="#666666"
     borderopacity="1.0"
     inkscape:pageshadow="2"
     inkscape:pageopacity="0.0"
     inkscape:pagecheckerboard="0"
     showgrid="false"
     inkscape:zoom="0.22224045"
     inkscape:cx="337.47232"
     inkscape:cy="906.67564"
     inkscape:window-width="1920"
     inkscape:window-height="946"
     inkscape:window-x="0"
     inkscape:window-y="0"
     inkscape:window-maximized="1"
     inkscape:current-layer="g8" />
  <g
     inkscape:groupmode="layer"
     inkscape:label="Image"
     id="g8">
    <path
       style="fill:#000000;stroke-width:1.84186"
       d="m 1026.9601,1854.7538 c -10.9035,-5.3692 -31.29455,-15.2496 -45.31335,-21.9563 -14.01877,-6.7069 -25.9135,-12.606 -26.43271,-13.1091 -0.51922,-0.5031 -7.31621,-3.9488 -15.10442,-7.6572 -7.78822,-3.7084 -23.50626,-11.4271 -34.92898,-17.1528 -11.42272,-5.7255 -37.76105,-18.7445 -58.52963,-28.9313 -20.76858,-10.1867 -38.61067,-19.1592 -39.6491,-19.9389 -1.03843,-0.7796 -18.88053,-9.7064 -39.64911,-19.8373 -20.76858,-10.1311 -39.88511,-19.742 -42.48118,-21.3578 -2.59607,-1.6159 -10.6675,-5.7439 -17.9365,-9.1734 -7.269,-3.4296 -14.06599,-6.8654 -15.10442,-7.6355 -1.03843,-0.7699 -15.05722,-7.8225 -31.15287,-15.6722 -50.97459,-24.8596 -57.40416,-28.0687 -72.76724,-36.3174 -17.28267,-9.2794 -40.50289,-21.0037 -82.05307,-41.43 -16.09565,-7.9128 -30.11444,-14.981 -31.15287,-15.7075 -1.03843,-0.7262 -14.63241,-7.5805 -30.20884,-15.2314 -15.57643,-7.6509 -29.17041,-14.5347 -30.20884,-15.297 -1.03843,-0.7626 -14.63241,-7.6524 -30.20884,-15.3105 -29.1657,-14.3396 -53.83405,-26.6415 -73.63405,-36.721 -6.23058,-3.1717 -13.02757,-7.3371 -15.10442,-9.2564 -3.7527,-3.468 -3.77913,-6.1556 -4.25964,-433.9271 -0.4435,-394.6971 -0.22808,-430.94994 2.59324,-436.60807 3.27993,-6.57782 6.5387,-8.543 48.86771,-29.46839 12.46115,-6.16018 30.30324,-15.02412 39.6491,-19.69765 9.34586,-4.67352 28.86097,-14.41058 43.36668,-21.63791 14.50572,-7.22733 31.4982,-15.81618 37.76106,-19.08636 6.26286,-3.27017 21.15751,-10.61792 33.09945,-16.32834 11.94193,-5.71044 22.13741,-10.78687 22.65663,-11.28099 0.51921,-0.49412 4.76733,-2.80164 9.44026,-5.12785 19.98541,-9.94876 45.04875,-22.62712 53.8095,-27.21972 5.19214,-2.72182 20.06056,-10.19409 33.04092,-16.60501 12.98036,-6.41092 32.94652,-16.33666 44.36924,-22.0572 11.42271,-5.72054 28.41519,-14.19705 37.76105,-18.83669 9.34586,-4.63962 23.36465,-11.68387 31.15287,-15.6539 7.78821,-3.97 24.78069,-12.45432 37.76105,-18.85404 12.98036,-6.39973 33.79614,-16.72161 46.25729,-22.93752 12.46114,-6.21592 32.4273,-16.15955 44.36923,-22.09698 21.17376,-10.52738 33.35113,-16.64304 62.30574,-31.29103 7.78821,-3.94 26.90475,-13.4548 42.48118,-21.144 15.57643,-7.68917 29.19893,-14.64725 30.27213,-15.46237 1.0731,-0.81512 10.41905,-5.64879 20.76855,-10.74149 10.3496,-5.0927 19.6245,-9.99034 20.611,-10.88363 2.9778,-2.69651 12.9535,-1.81773 18.9749,1.6715 5.1514,2.98513 19.0623,10.08092 62.3057,31.78109 8.3075,4.16881 30.3977,15.05271 49.0894,24.18648 18.6917,9.13376 39.0827,19.2999 45.3133,22.59142 18.7644,9.91291 56.8647,28.89653 85.9064,42.80296 15.0572,7.2101 40.1211,19.4664 55.6975,27.23626 44.2833,22.08943 55.5522,27.66525 87.3472,43.21942 16.3416,7.99435 39.0579,19.25729 50.4806,25.02876 22.2613,11.24778 38.4238,19.25921 83.0743,41.1784 15.5765,7.64654 36.817,18.17212 47.2013,23.39017 35.0476,17.61118 60.3224,30.24457 80.2423,40.10834 10.9035,5.39911 24.9861,12.48587 31.2944,15.74834 6.3086,3.26246 20.7522,10.44561 32.0969,15.96257 11.345,5.51695 22.8379,12.48177 25.5401,15.47738 l 4.9131,5.44656 -0.8306,433.41419 c -0.6177,322.4474 -1.3852,434.0518 -2.9972,435.9045 -3.2584,3.7449 -11.9941,8.669 -51.3117,28.9231 -19.7301,10.1639 -40.5459,20.8991 -46.2572,23.8561 -20.1945,10.4552 -33.2743,17.1065 -53.8095,27.3632 -11.4228,5.7052 -23.0239,11.8844 -25.7803,13.7313 -2.7563,1.8471 -5.5533,3.3582 -6.2156,3.3582 -0.6622,0 -11.5762,5.3915 -24.2532,11.9812 -12.6769,6.5896 -28.5717,14.8006 -35.3215,18.2465 -24.2369,12.3737 -31.2814,16.0084 -39.6491,20.458 -24.9836,13.2853 -44.5867,23.259 -84.0183,42.7467 -14.538,7.1849 -27.2824,13.6558 -28.3208,14.38 -2.7996,1.952 -24.1873,13.0391 -63.2497,32.7877 -13.1029,6.6245 -23.8014,12.1036 -48.1454,24.6575 -5.1921,2.6774 -16.2372,8.3583 -24.5447,12.6241 -8.3074,4.2656 -18.5029,9.5193 -22.6566,11.6743 -18.9494,9.8325 -83.1183,42.4837 -111.3951,56.6816 -10.3843,5.214 -23.1287,11.663 -28.3208,14.3313 -5.1921,2.6682 -16.7608,8.6036 -25.7081,13.1899 -8.9473,4.5862 -17.8683,8.3212 -19.8245,8.3003 -1.9563,-0.022 -12.4778,-4.4311 -23.3813,-9.8001 z m 8.5187,-443.4039 c -0.9474,-307.475 -1.7927,-407.0381 -3.4697,-408.6295 -1.2193,-1.1572 -9.0139,-5.48087 -17.3214,-9.60807 -8.3074,-4.1272 -15.95405,-8.1339 -16.99245,-8.9037 -1.0385,-0.7698 -23.5535,-11.9069 -50.03342,-24.7492 -71.25322,-34.5565 -118.29462,-57.75858 -150.10019,-74.03361 -8.30743,-4.25094 -44.84124,-22.0615 -81.18626,-39.57901 -62.58233,-30.16338 -91.87924,-44.48687 -139.71589,-68.30846 -21.95163,-10.93146 -51.55044,-25.54677 -103.12996,-50.92359 -17.26133,-8.49242 -38.50193,-18.98275 -47.20132,-23.31183 -8.69958,-4.32908 -28.5617,-14.16234 -44.13814,-21.85168 -15.57643,-7.68932 -32.64839,-16.23956 -37.93758,-19.0005 -5.28919,-2.76094 -10.9069,-5.28656 -12.48362,-5.61244 -2.54547,-0.52612 -2.96764,20.96226 -3.76496,191.66477 -0.49392,105.74155 -0.39876,287.94882 0.21127,404.90522 l 1.10942,212.6478 8.49624,4.5414 c 20.9453,11.1956 40.04843,20.2607 42.69642,20.2607 2.51734,0 2.8081,-4.8866 2.27926,-38.2986 l -0.60645,-38.2984 -8.28836,-8.8675 c -15.27283,-16.3397 -21.84212,-36.2129 -17.19374,-52.013 4.97087,-16.896 19.24794,-21.4469 36.9575,-11.7802 19.36311,10.5693 29.47401,26.7111 29.8401,47.6378 0.33627,19.2275 -4.48582,26.8981 -18.65886,29.6813 l -5.66416,1.1124 v 40.2943 40.2944 l 19.82455,10.5362 c 10.9035,5.7951 29.17041,15.2081 40.59313,20.9182 11.42272,5.7098 25.44151,12.8119 31.15287,15.7818 5.71136,2.9701 23.55345,11.8813 39.6491,19.8027 16.09565,7.9213 33.93775,16.8318 39.64911,19.801 5.71136,2.9692 16.75646,8.579 24.54468,12.4664 20.69759,10.3307 50.26109,25.2725 63.24976,31.9674 6.23058,3.2114 24.9223,12.5062 41.53716,20.655 16.61486,8.1489 31.05847,15.4153 32.09689,16.1475 1.03843,0.7322 15.90685,8.2182 33.04092,16.6356 40.25498,19.7758 69.82472,34.4923 84.01834,41.8149 33.0498,17.0507 89.40383,43.6773 90.41148,42.7185 0.6376,-0.6067 1.15908,-54.9872 1.15908,-120.8456 0,-93.1652 0.52393,-120.3381 2.36006,-122.4258 1.29804,-1.4757 6.18337,-5.0645 10.8563,-7.9748 4.67293,-2.9102 8.92105,-5.7776 9.44027,-6.3716 0.51921,-0.5942 6.679,-4.5096 13.6884,-8.701 l 12.7443,-7.6207 -0.06,-82.0423 c -0.051,-69.2924 -0.4909,-82.5846 -2.8321,-85.5303 -6.3231,-7.956 -1.4749,-22.6373 7.4329,-22.5086 12.03315,0.1743 21.06945,20.1162 13.45585,29.6958 -2.341,2.9453 -2.7858,16.3419 -2.861,86.1405 -0.049,45.4589 -0.8037,83.7257 -1.6773,85.037 -0.8736,1.3115 -11.26855,8.6128 -23.09985,16.2252 l -21.51131,13.841 -0.48504,122.2063 -0.48486,122.2063 13.70121,6.7344 c 7.5358,3.7039 23.8969,11.8969 36.35815,18.2064 12.4611,6.3096 24.218,11.5316 26.1263,11.6046 3.3611,0.1276 3.4304,-12.572 2.2169,-406.3928 z m -40.61565,344.1654 c -6.6994,-2.3307 -11.3283,-8.4011 -11.3283,-14.8561 0,-11.6176 7.2203,-14.2059 15.8145,-5.6689 5.68625,5.6482 7.12765,14.4414 3.12045,19.0365 -2.55175,2.9259 -3.14255,3.0414 -7.60665,1.4885 z M 712.9312,1547.6319 c -10.20191,-5.1385 -21.24701,-11.4082 -24.54469,-13.9329 l -5.99607,-4.5903 -0.94403,-28.5292 -0.94403,-28.529 -8.02422,-4.2068 -8.02422,-4.2067 v 23.0932 c 0,25.1519 -1.93526,31.0799 -10.1464,31.0799 -6.4983,0 -49.93163,-21.2347 -52.63853,-25.7352 -1.45096,-2.4125 -2.71464,-14.2419 -3.29691,-30.8639 l -0.94403,-26.9519 -40.9073,-19.7648 c -22.49898,-10.8706 -42.66093,-21.2908 -44.80425,-23.1559 -6.3093,-5.4899 -6.71806,-13.2206 -1.31314,-24.8296 5.4021,-11.6028 10.55856,-31.0842 10.55856,-39.8907 0,-6.2185 4.70578,-11.8461 9.90586,-11.8461 1.65015,0 7.37039,2.0888 12.7115,4.6419 5.34111,2.553 10.97091,4.182 12.51024,3.6198 2.44427,-0.8927 2.7288,-17.1432 2.24432,-128.1719 -0.55282,-126.6638 -0.57057,-127.1773 -4.665,-134.4569 -4.9382,-8.7795 -5.8556,-9.5214 -20.92944,-16.9218 -19.36613,-9.508 -19.32969,-9.4181 -19.32969,-47.75457 v -32.868 l 4.81,-3.6007 c 6.00231,-4.4932 6.05083,-4.478 45.15769,14.1425 16.5788,7.8939 31.23481,14.3526 32.56891,14.3526 1.85822,0 2.42577,-5.7912 2.42577,-24.7554 0,-26.8497 1.84123,-32.8467 10.01933,-32.6349 2.27755,0.059 14.25234,5.1124 26.61059,11.23 29.54405,14.6247 29.45192,14.4655 29.45192,50.892 v 27.24777 l 7.61036,3.7749 c 4.18562,2.0764 8.00893,3.7751 8.49624,3.7751 0.4873,0 0.88587,-10.944 0.88587,-24.32 0,-19.36137 0.62174,-25.22287 3.04921,-28.74867 5.09377,-7.3984 9.81069,-6.1118 42.50195,11.5932 19.64481,10.6392 20.53068,12.6591 20.53068,46.81357 v 26.7779 l 15.57643,9.7323 c 26.21901,16.3819 57.48026,49.8451 69.17297,74.0451 12.72943,26.3461 17.20544,44.9004 17.20544,71.3214 0,31.4098 -9.01394,52.2947 -27.32465,63.3095 -9.43989,5.6784 -9.96382,6.6566 -5.46875,10.2069 6.06726,4.7918 24.59208,29.6888 31.43797,42.2518 20.36265,37.3671 26.92268,85.2726 17.07026,124.6548 -5.39266,21.5556 -20.32526,40.5667 -38.36164,48.8391 -7.21274,3.3081 -11.80713,3.9014 -30.21866,3.9023 -14.59295,9e-4 -24.80807,-0.9327 -31.15287,-2.8472 -5.19214,-1.5665 -11.35192,-3.4209 -13.68838,-4.1208 l -4.24812,-1.2727 v 25.026 c 0,22.7017 -0.35741,25.3911 -3.84955,28.9583 -2.11745,2.1628 -5.72835,3.8503 -8.02422,3.7499 -2.29606,-0.1006 -12.52157,-4.3869 -22.72328,-9.5252 z m 11.94042,-45.2126 c 0,-13.4063 0.87945,-25.9389 1.95451,-27.8504 2.03268,-3.6144 9.18613,-4.6822 12.30029,-1.8363 3.81481,3.4863 32.01287,11.0609 45.09443,12.1133 28.02342,2.2544 42.9009,-5.6082 55.11528,-29.1279 6.61932,-12.7459 6.99372,-14.4425 7.84882,-35.5654 1.08998,-26.9277 -1.30181,-41.5001 -10.35974,-63.1195 -12.10827,-28.8999 -24.7873,-44.6984 -57.8084,-72.0317 -6.91801,-5.7264 -8.83193,-8.5017 -8.83193,-12.8068 0,-7.4805 2.76543,-9.1515 18.70607,-11.303 7.53163,-1.0166 15.53735,-2.7735 17.79056,-3.9044 25.32312,-12.7102 28.48335,-60.5122 6.83172,-103.3419 -13.75484,-27.2089 -34.32819,-47.808 -72.40115,-72.4917 l -15.29643,-9.9168 -0.51582,-30.814 -0.516,-30.8139 -8.3165,-4.6382 c -14.3339,-7.99417 -14.25234,-8.11457 -14.25234,21.0559 0,27.2104 -0.82546,30.0066 -8.85893,30.0066 -6.5827,0 -42.48572,-17.4169 -47.33669,-22.9633 -2.35063,-2.688 -4.13427,-6.9085 -3.9634,-9.3791 0.17181,-2.4706 0.17559,-15.4075 0.0189,-28.74877 l -0.29926,-24.2567 -7.43968,-4.0428 c -4.0916,-2.2236 -9.18292,-4.0428 -11.31359,-4.0428 -3.72607,0 -3.87409,0.9813 -3.87409,25.6942 0,27.31307 -0.80941,30.00647 -9.01753,30.00647 -2.4675,0 -19.20093,-6.8727 -37.18557,-15.2728 -17.98465,-8.39997 -34.06293,-15.27267 -35.72932,-15.27267 -2.52301,0 -3.02504,2.3296 -3.00106,13.92507 0.0189,7.6589 0.65308,14.7338 1.41604,15.722 0.76296,0.9883 4.78564,3.4139 8.93936,5.3904 10.59216,5.0402 20.89829,15.969 27.95753,29.6472 l 6.02742,11.6791 0.50052,133.8615 c 0.46729,124.9098 0.27773,134.2818 -2.83208,140.1482 -4.67104,8.8117 -12.25138,11.9577 -22.12571,9.1829 -13.24261,-3.7213 -13.07155,-3.8081 -14.59181,7.3924 -0.76769,5.6565 -2.7037,12.6911 -4.30193,15.6327 -1.59843,2.9415 -2.90628,5.7768 -2.90628,6.3006 0,0.5236 18.39076,9.6601 40.86822,20.3031 31.4255,14.88 41.71142,20.5963 44.51801,24.7414 3.29465,4.8657 3.55426,7.7823 2.66669,29.963 -0.78808,19.6977 -0.46031,24.9855 1.6528,26.6544 3.28068,2.5912 16.30069,8.9657 18.3126,8.9657 0.81885,0 1.48873,-10.6498 1.48873,-23.6662 0,-19.4999 0.54999,-24.2444 3.12473,-26.9519 1.7185,-1.8073 4.34705,-3.2858 5.84106,-3.2858 1.49402,0 12.42358,4.5786 24.28791,10.1747 29.00313,13.6799 29.05203,13.7607 29.05203,47.9497 v 26.2562 l 8.96825,4.4428 c 4.93254,2.4434 9.60547,4.4803 10.38429,4.5263 0.77882,0.047 1.41604,-10.885 1.41604,-24.2911 z m 9.44026,-79.2716 c -3.6345,-0.3998 -10.8563,-2.0125 -16.04844,-3.5836 -13.97801,-4.2296 -67.37743,-30.2338 -72.27711,-35.1971 l -4.23736,-4.2925 0.49618,-64.3259 c 0.47881,-62.0725 0.62853,-64.4082 4.27229,-66.6783 4.9769,-3.1007 14.01558,-0.034 49.51455,16.7974 31.39209,14.8843 41.05325,20.9055 55.28672,34.4575 21.47489,20.4465 30.00889,38.7446 31.60486,67.7661 1.10055,20.0113 -1.61428,32.0412 -9.54826,42.3097 -7.32168,9.4761 -22.82051,14.5334 -39.06343,12.7467 z m 17.21848,-25.8734 c 9.49501,-4.7261 12.28537,-31.3347 5.48366,-52.2918 -4.44467,-13.6949 -14.85973,-26.5146 -30.86966,-37.9971 -6.4747,-4.6438 -57.55445,-29.9461 -60.45431,-29.9461 -0.67989,0 -1.23328,20.8204 -1.22988,46.2675 v 46.2675 l 25.01103,12.0704 c 37.46312,18.0797 50.52202,21.3689 62.05274,15.6296 z m -31.37887,-160.9722 c -14.45248,-3.0265 -65.17293,-25.6647 -73.16204,-32.6546 l -5.19214,-4.5429 v -56.1347 c 0,-48.6357 0.3963,-56.5118 2.96688,-58.9581 5.1372,-4.8887 11.94061,-4.2187 23.46585,2.3114 4.67293,2.6476 17.41729,8.7842 28.32079,13.637 39.20598,17.4489 54.26943,32.3772 67.1788,66.576 5.05885,13.4013 4.75072,40.6977 -0.56774,50.3104 -9.47859,17.1317 -23.60103,23.52 -43.0104,19.4555 z m 15.15728,-24.2974 c 7.33622,-3.181 10.33143,-10.3271 10.33143,-24.6486 0,-17.3053 -5.28183,-30.0412 -17.6363,-42.5261 -7.93907,-8.0231 -14.53782,-12.1072 -35.68325,-22.0857 -14.26839,-6.7333 -26.37553,-11.8305 -26.90475,-11.327 -0.52903,0.5036 -0.96196,18.0761 -0.96196,39.0502 v 38.1345 l 18.40851,8.5436 c 18.0698,8.3863 40.74248,16.8931 45.22452,16.9679 1.24914,0.022 4.49886,-0.9281 7.2218,-2.1088 z M 522.7048,1526.9323 c -8.00421,-7.6172 -7.20386,-18.1062 1.38149,-18.1062 9.53976,0 17.87552,15.2324 11.60246,21.2022 -3.5671,3.3949 -7.03149,2.5687 -12.98395,-3.096 z m -35.05377,-16.2943 c -12.33484,-4.7371 -13.4099,-21.5766 -1.37752,-21.5766 8.54117,0 15.70425,15.5511 9.76614,21.2022 -2.59249,2.4671 -2.90345,2.481 -8.38862,0.3744 z m 505.78382,-234.0001 c -5.6128,-2.5756 -9.2823,-13.7473 -6.2729,-19.0984 2.6946,-4.7918 9.7718,-5.0368 14.09755,-0.4878 4.3071,4.5292 6.0824,15.6052 3.0572,19.0739 -2.7294,3.1298 -4.94995,3.2342 -10.88185,0.5123 z m -0.098,-50.7939 c -9.2701,-7.4233 -8.9243,-20.6766 0.5396,-20.6766 9.02325,0 16.42295,16.9341 10.04995,22.999 -3.1568,3.0042 -4.23225,2.7685 -10.58955,-2.3224 z m -607.37009,-35.1543 c -15.3308,-7.2142 -25.47512,-21.7898 -29.46665,-42.3383 -2.66442,-13.7164 0.38818,-24.4185 8.68202,-30.4389 3.32014,-2.41 7.81805,-4.3818 9.99516,-4.3818 2.17712,0 4.51962,-0.8641 5.20536,-1.9201 0.68574,-1.056 1.15587,-53.712 1.04466,-117.01337 l -0.20221,-115.09341 -7.42344,-7.06463 c -10.86216,-10.33715 -18.98777,-28.1416 -18.98777,-41.60491 0,-14.77068 11.46728,-28.14953 24.12742,-28.14953 12.43,0 31.87845,14.91027 39.53262,30.30775 6.67766,13.43343 8.2017,33.35474 3.12472,40.84406 -5.06829,7.47623 -10.20436,11.21568 -17.22338,12.53992 l -6.13617,1.15768 V 1002.5921 1117.65 l 8.32102,8.466 c 4.57664,4.6562 10.22645,12.017 12.55537,16.3575 5.16627,9.6291 7.01902,28.775 3.70832,38.3219 -4.42125,12.749 -21.2117,17.2563 -36.85705,9.8943 z m 16.85766,-20.6882 c 5.61469,-5.3435 2.07384,-18.0484 -7.9351,-28.4715 -10.94353,-11.3962 -20.99439,-6.8868 -18.31317,8.2164 1.76552,9.9448 13.516,22.2106 22.00016,22.9647 0.70462,0.063 2.61627,-1.1566 4.24811,-2.7096 z m 0.0529,-309.73252 c 2.94442,-3.09631 3.07186,-4.55035 1.08827,-12.41939 -3.96415,-15.72519 -21.17866,-27.66558 -26.4282,-18.331 -3.19723,5.68544 -2.25037,12.79769 2.79432,20.98979 7.89904,12.82725 16.20836,16.42462 22.54561,9.7606 z m 570.72843,248.89672 c -15.00545,-5.0957 -24.81275,-15.9712 -31.53969,-34.9745 -8.35464,-23.6016 1.50685,-45.11 20.68267,-45.11 29.13472,0 57.70757,49.9693 41.46897,72.5225 -7.33995,10.1941 -16.32505,12.4137 -30.61195,7.562 z m 10.7198,-20.084 c 4.1212,-1.505 3.8124,-14.0603 -0.5624,-22.8585 -3.7363,-7.5143 -12.0791,-13.7531 -18.41571,-13.7718 -9.40118,-0.027 -6.26871,21.5612 4.58421,31.5919 6.7141,6.2056 9.0035,7.0069 14.3939,5.0384 z M 828.76643,953.94083 c -6.31912,-6.0138 -7.40494,-12.8348 -2.74825,-17.2663 4.1052,-3.9068 6.99392,-3.5421 11.98423,1.5132 5.82766,5.9035 6.15883,14.9542 0.6763,18.4873 -3.91714,2.5244 -4.57815,2.3421 -9.91228,-2.7342 z m -39.15273,-17.393 c -8.45489,-5.6736 -7.31451,-20.66484 1.5718,-20.66484 6.59761,0 11.36193,6.62654 10.72848,14.92204 -0.65572,8.5887 -5.02184,10.6271 -12.30047,5.7428 z m -123.76223,-59.3687 c -8.01365,-7.07148 -6.33989,-18.79366 2.68349,-18.79366 8.75887,0 15.77638,19.44162 8.03763,22.26773 -4.52,1.6507 -5.14192,1.44919 -10.72112,-3.47407 z M 625.65955,859.0215 c -3.24122,-3.32833 -4.63007,-6.82116 -4.63007,-11.64495 0,-5.87201 0.70576,-7.05914 4.77357,-8.03075 10.48228,-2.50375 19.87477,17.77241 10.45509,22.57005 -5.0394,2.56657 -5.36793,2.47682 -10.59859,-2.89435 z m 453.09525,953.6598 c 0.5717,-0.8805 5.5071,-3.8306 10.9677,-6.5562 5.4607,-2.7257 15.8757,-7.9641 23.1447,-11.6409 7.269,-3.6768 21.7126,-10.94 32.0969,-16.1403 10.3843,-5.2002 26.1024,-13.2986 34.929,-17.9965 16.0577,-8.5466 56.2358,-28.9978 94.0926,-47.8947 11.074,-5.5279 22.0432,-11.1727 24.3761,-12.544 2.3329,-1.3715 11.6787,-6.2358 20.7686,-10.8097 9.0898,-4.5741 20.7752,-10.5053 25.9673,-13.1806 5.1921,-2.6754 31.744,-16.2569 59.0043,-30.1812 27.2601,-13.9244 54.8728,-28.0715 61.3617,-31.438 6.4887,-3.3665 21.5684,-11.1364 33.5103,-17.2663 11.9419,-6.1298 24.2615,-12.5744 27.3768,-14.321 3.1152,-1.7467 30.3032,-15.738 60.4176,-31.0918 30.1144,-15.354 58.5768,-29.9433 63.2498,-32.4209 4.6729,-2.4778 14.4436,-7.5512 21.7126,-11.2743 36.5113,-18.7015 46.4814,-23.7855 59.9806,-30.5866 8.0669,-4.0643 16.8389,-8.9513 19.4932,-10.86 l 4.826,-3.4705 -0.1152,-63.6122 c -0.064,-34.9867 -0.5037,-63.982 -0.9787,-64.4342 -0.867,-0.8251 -15.6852,5.9553 -35.0606,16.0425 -5.7114,2.9735 -16.0133,8.1914 -22.8932,11.5953 l -12.5089,6.1889 -1.2882,9.3771 c -1.7327,12.611 -8.8609,26.4524 -17.7523,34.4707 -9.9923,9.0111 -16.1783,11.7408 -26.6062,11.7408 -7.414,0 -9.7726,-0.8954 -14.3585,-5.4506 -12.8387,-12.7531 -5.9143,-49.111 12.9358,-67.9222 8.261,-8.2441 14.6698,-11.0767 25.0598,-11.0767 7.4531,0 9.7489,0.8876 14.4789,5.5979 l 5.6213,5.5979 21.0159,-10.1371 c 28.2515,-13.6273 42.4461,-21.2941 47.7515,-25.7913 l 4.4171,-3.7443 0.3861,-268.3079 c 0.3869,-268.79216 -0.1284,-384.32476 -1.7202,-385.98992 -0.8328,-0.87087 -23.2889,9.75366 -51.5314,24.38067 -7.7882,4.0336 -23.5062,12.04221 -34.9289,17.79694 -11.4228,5.75473 -34.3626,17.48708 -50.9775,26.07189 -49.4784,25.56524 -74.1539,38.05631 -119.8913,60.69037 -12.9803,6.42359 -27.6492,13.99756 -32.5972,16.83103 -4.9482,2.83346 -9.3105,5.15176 -9.694,5.15176 -0.6808,0 -39.9021,19.80461 -58.7196,29.65007 -5.1921,2.71658 -20.0605,10.21257 -33.0409,16.65775 -12.9804,6.44517 -30.8225,15.3623 -39.6491,19.81584 -8.8266,4.45354 -25.3943,12.77039 -36.817,18.48191 l -20.7686,10.38459 -0.944,32.91163 -0.9441,32.9116 -7.3062,12.4627 c -4.0185,6.8545 -11.5358,20.19567 -16.7054,29.64717 -5.1695,9.4513 -10.0518,17.993 -10.8497,18.9812 -0.7977,0.9882 -3.5783,5.4353 -6.1789,9.8824 -2.6008,4.4471 -9.0928,15.2345 -14.427,23.9721 l -9.6983,15.8868 0.4858,114.3566 c 0.4793,112.7877 0.5377,114.3648 4.2621,114.9313 15.5007,2.3579 20.5305,10.2541 19.5381,30.6729 -0.5102,10.4982 -1.9069,16.1268 -5.9462,23.9616 -6.281,12.183 -20.0311,25.6694 -29.0638,28.5064 -19.56,6.1434 -33.6998,-9.9173 -30.2541,-34.3643 1.2668,-8.989 10.4231,-27.4711 18.0937,-36.5224 l 5.9197,-6.9851 v -117.5003 -117.5002 l 6.8825,-12.0714 c 3.7853,-6.6392 7.6488,-13.0086 8.5855,-14.1544 0.9367,-1.1459 4.0742,-6.4015 6.9722,-11.6792 2.8982,-5.2778 9.765,-16.873 15.2594,-25.7672 10.0568,-16.27887 13.4719,-21.99947 24.345,-40.77997 5.8777,-10.1522 5.9252,-10.4446 5.9252,-36.3852 0,-14.3828 -0.6606,-26.15064 -1.4679,-26.15064 -0.8073,0 -3.1438,1.07957 -5.1922,2.39907 -3.4109,2.19725 -16.3875,8.74167 -75.4701,38.06117 -20.2043,10.0263 -29.7544,14.9358 -45.3133,23.2943 -4.1537,2.2314 -16.0485,8.3052 -26.4327,13.4973 -10.3843,5.192 -19.9426,10.2474 -21.2406,11.23407 -1.8732,1.4239 -2.3601,72.5423 -2.3601,344.7622 0,188.6326 0.6606,342.9684 1.468,342.9684 0.8073,0 3.1438,-1.093 5.1921,-2.4288 2.0484,-1.3357 17.3182,-9.0975 33.933,-17.2485 16.6149,-8.1508 31.0585,-15.4314 32.0969,-16.1789 2.3641,-1.7018 21.4779,-11.6779 33.985,-17.738 12.749,-6.1774 17.9365,-10.8499 17.9365,-16.1564 0,-2.4417 2.9738,-10.3235 6.6085,-17.515 7.4367,-14.7142 18.1138,-24.7624 29.8762,-28.1161 14.9328,-4.2577 27.7002,8.0597 27.706,26.7293 0,20.6563 -12.479,43.5608 -29.6443,54.381 -12.4891,7.8726 -19.7231,7.4746 -29.2689,-1.6098 l -7.4949,-7.1325 -12.5797,6.4803 c -6.9187,3.5641 -17.2526,9.088 -22.964,12.2752 -5.7113,3.1873 -27.5891,14.4841 -48.6173,25.1041 l -38.2331,19.3091 v 52.8104 c 0,44.7834 0.4135,52.8104 2.7207,52.8104 1.4963,0 3.1883,-0.7202 3.76,-1.6004 z m 292.8827,-264.7254 c -2.288,-3.1085 -2.9391,-9.0807 -2.9391,-26.952 0,-23.662 -0.8565,-26.0216 -7.4037,-20.3987 -1.6394,1.408 -7.6536,4.911 -13.3649,7.7847 -18.3228,9.2184 -32.8344,17.1339 -40.9334,22.3273 -10.5393,6.7581 -18.4776,6.735 -22.1725,-0.065 -2.5712,-4.7315 -2.3716,-6.2855 2.5955,-20.2139 6.4524,-18.0932 8.9005,-29.7744 10.5049,-50.1258 1.3845,-17.5617 3.1625,-20.4553 17.0378,-27.7305 18.7618,-9.8373 16.8465,5.4137 17.4524,-138.9717 0.2932,-69.8907 0.064,-128.8934 -0.5079,-131.117 -1.5063,-5.8487 -7.809,-5.1532 -19.9372,2.2 -12.03,7.2936 -13.7466,7.5439 -18.7931,2.7412 -3.4844,-3.316 -3.776,-5.9873 -3.7731,-34.5884 0,-34.706 1.6277,-40.7591 12.4585,-46.4253 3.2193,-1.6841 11.7155,-6.0694 18.8805,-9.7449 19.0308,-9.7625 32.7269,-16.954 41.82,-21.9585 l 8.0242,-4.4161 v -29.7525 -29.75247 l 7.3898,-6.462 c 7.6695,-6.7063 40.3764,-23.5757 45.655,-23.5476 7.3929,0.039 9.1246,5.4974 9.6754,30.4955 0.3478,15.77997 1.2582,24.25887 2.6519,24.69927 1.1674,0.3689 4.7202,-1.4095 7.8951,-3.952 l 5.7727,-4.6227 0.6012,-28.55287 c 0.7173,-34.0657 -0.1001,-32.6944 28.685,-48.0736 22.4282,-11.98245 24.7907,-12.66611 29.5639,-8.5552 3.3743,2.9061 3.714,5.6286 3.714,29.7661 0,14.9579 0.7886,27.0314 1.8049,27.6291 0.9928,0.5838 5.0285,-0.2258 8.9683,-1.7993 3.9398,-1.5734 13.9602,-3.3026 22.2677,-3.8427 12.6798,-0.8242 16.923,-0.3363 26.4327,3.0393 34.9548,12.4075 48.5141,55.29447 34.6389,109.56097 -3.9418,15.4171 -14.9167,39.4758 -19.7482,43.2919 -1.44,1.1375 -2.6184,3.1819 -2.6184,4.5432 0,1.3614 -0.6372,2.4803 -1.416,2.4865 -0.7788,0 -2.8602,2.4268 -4.6254,5.3789 -3.1309,5.2365 -3.1079,5.3869 0.9441,6.1647 2.2843,0.4384 6.2773,1.2202 8.8734,1.7371 7.8951,1.5721 22.1744,11.2608 28.1328,19.0885 3.0973,4.069 7.5928,12.8 9.9898,19.402 3.9408,10.8532 4.3505,15.1041 4.2736,44.3462 -0.074,27.7593 -0.7033,34.634 -4.4488,48.5135 -2.4001,8.8942 -5.123,16.9394 -6.0512,17.8782 -0.928,0.9388 -1.6873,2.8001 -1.6873,4.1364 0,3.7803 -14.1419,29.8299 -22.9389,42.2537 -15.9575,22.5361 -31.9066,38.5499 -56.3593,56.5876 -8.8267,6.511 -18.3849,13.8693 -21.2406,16.3517 l -5.1921,4.5134 v 25.8067 c 0,28.3863 -1.3553,33.2443 -11.1212,39.8621 -10.2869,6.9709 -37.7007,19.9051 -42.1882,19.9051 -8.1447,0 -8.9964,-2.7557 -8.9964,-29.1081 0,-22.4325 -0.3149,-24.792 -3.3041,-24.7559 -1.8172,0.022 -5.4211,1.5878 -8.0085,3.4797 -4.6392,3.392 -4.7064,3.8218 -4.8491,30.9548 -0.079,15.1334 -0.8119,28.9225 -1.6271,30.643 -1.9168,4.0444 -15.8497,13.6603 -30.9335,21.3491 -6.5478,3.3378 -13.7696,7.0674 -16.0485,8.2881 -6.1203,3.2786 -10.1779,2.7605 -13.4763,-1.7209 z m 30.8676,-33.1951 c 3.7325,-2.6656 7.4106,-5.6977 8.1735,-6.738 0.763,-1.0405 1.4002,-13.9434 1.4161,-28.6728 l 0.028,-26.781 7.2541,-6.5672 c 3.9898,-3.6119 12.2737,-9.1295 18.4085,-12.2611 24.6835,-12.5999 22.9372,-12.0174 28.1167,-9.3795 4.7235,2.4059 4.7503,2.5594 4.7503,27.2711 0,23.3477 0.2204,24.8515 3.6417,24.8515 2.0029,0 6.6758,-2.7233 10.3843,-6.0518 l 6.7426,-6.0518 v -27.7512 -27.7512 l 5.1922,-4.5839 c 2.8556,-2.5213 11.6304,-8.6674 19.4994,-13.6582 32.3946,-20.5457 62.5073,-52.384 76.9396,-81.3488 12.7138,-25.5161 20.03,-69.5606 15.6631,-94.2941 -3.8652,-21.8911 -9.3444,-31.074 -22.3258,-37.4181 -7.6289,-3.7282 -26.6806,-3.8782 -35.7263,-0.2814 -5.2114,2.0722 -7.6328,2.2133 -10.7957,0.6294 -11.3091,-5.6638 -9.6685,-12.8113 7.0334,-30.6413 14.8542,-15.8577 17.9737,-20.2589 28.3781,-40.0395 10.4479,-19.8633 13.2292,-31.3439 13.3076,-54.9294 0.066,-19.6438 -0.2445,-21.3738 -5.6187,-31.3744 -11.7975,-21.95287 -30.8373,-27.37317 -61.338,-17.4615 -8.8267,2.8684 -17.3473,5.7779 -18.9348,6.4656 -1.5874,0.6877 -4.4661,0.1509 -6.3972,-1.1929 -3.1663,-2.2034 -3.4831,-4.9857 -3.2258,-28.33917 0.1567,-14.2428 -0.448,-26.9609 -1.3445,-28.2625 -1.2731,-1.8483 -3.4885,-1.1728 -10.1163,3.084 l -8.4863,5.4505 -1.2774,29.2583 c -1.3934,31.91157 -2.4215,35.01157 -13.5283,40.79597 -3.0819,1.6051 -11.6002,6.3364 -18.9296,10.514 -14.8041,8.4379 -22.2407,9.5823 -25.4289,3.913 -1.2842,-2.2837 -1.8869,-12.8428 -1.5863,-27.7994 0.2666,-13.2643 -0.094,-24.66737 -0.8009,-25.34037 -0.7073,-0.673 -5.3334,1.157 -10.2805,4.0666 l -8.9949,5.29007 -0.516,30.7955 -0.516,30.7957 -5.4536,4.3669 c -2.9994,2.4018 -12.113,7.831 -20.2524,12.0646 -8.1396,4.2336 -15.2239,8.1864 -15.7431,8.7842 -1.1221,1.2917 -5.9227,3.8919 -20.4057,11.0523 -17.6458,8.7243 -17.3554,8.3089 -17.3554,24.8208 0,8.044 0.321,14.6255 0.7135,14.6255 0.3923,0 3.7637,-1.2128 7.4916,-2.6952 14.2935,-5.6836 23.4963,-2.5962 30.9518,10.3838 3.0883,5.3767 3.3243,15.1603 3.3243,137.8521 0,121.8097 -0.2623,132.8722 -3.3785,142.467 -3.7969,11.6906 -13.1252,21.9159 -25.0848,27.4962 l -7.3461,3.4277 -2.1488,16.1712 c -1.1819,8.8941 -2.7752,18.3947 -3.5406,21.1123 -0.9663,3.431 -0.6816,4.9412 0.9315,4.9412 2.6008,0 28.3877,-12.9811 36.1387,-18.1922 2.7563,-1.8532 5.4721,-3.3693 6.035,-3.3693 0.5628,0 6.0972,-2.83 12.2985,-6.2888 13.1354,-7.3264 14.1234,-7.4655 19.136,-2.6952 3.3889,3.2251 3.7761,5.9892 3.7761,26.9519 0,16.4713 0.6433,23.3584 2.1819,23.3584 1.2,0 5.2357,-2.1808 8.9682,-4.8461 z m 12.8166,-118.7478 c -2.675,-2.8131 -3.0811,-10.8469 -3.294,-65.1447 -0.1737,-44.1229 0.3961,-63.2712 1.9794,-66.578 2.5547,-5.3358 10.9751,-10.1765 49.0939,-28.2232 38.7653,-18.3529 55.8667,-20.5857 70.3923,-9.1912 4.4214,3.4682 8.1964,8.8902 10.8683,15.6102 3.6353,9.1421 3.984,12.7135 3.1115,31.858 -2.3674,51.9528 -23.4694,75.0578 -107.3516,117.542 -16.0747,8.1414 -20.3117,8.8465 -24.7998,4.1269 z m 26.1611,-30.7452 c 0.9865,-0.8864 8.5906,-5.0661 16.8981,-9.2882 34.0438,-17.3026 52.1808,-32.2029 62.2489,-51.1403 4.5283,-8.5175 5.6734,-13.2436 6.3181,-26.0758 1.2945,-25.7681 -4.1869,-34.0666 -22.5021,-34.0666 -6.1728,0 -13.6259,2.8393 -33.6066,12.8026 -14.1212,7.0414 -28.0112,14.3734 -30.8669,16.2935 l -5.1921,3.491 v 44.7976 c 0,35.5591 0.5062,44.7975 2.4545,44.7975 1.3499,0 3.2616,-0.7251 4.2481,-1.6113 z m -26.9992,-147.7446 c -1.7866,-1.7364 -2.36,-15.9809 -2.36,-58.6228 0,-60.6121 0.6087,-64.8046 10.0027,-68.897 4.1652,-1.8144 6.47,-2.9976 34.1528,-17.5312 38.0127,-19.957 58.5959,-19.4938 71.0157,1.5985 4.2407,7.2017 4.719,10.0238 4.7099,27.7808 0,17.1788 -0.7165,21.6455 -5.4077,34.1391 -8.0039,21.3157 -24.3693,40.4474 -45.2652,52.9161 -21.5408,12.8534 -53.4898,29.1491 -58.8239,30.0033 -3.3013,0.5286 -6.6488,-0.05 -8.0243,-1.3868 z m 36.1179,-37.511 c 6.8372,-3.9529 12.9181,-7.1872 13.513,-7.1872 2.0836,0 22.627,-14.0152 26.7023,-18.217 19.8567,-20.4734 27.3568,-56.7813 14.2968,-69.2103 -7.63,-7.2612 -11.4626,-6.1575 -54.4779,15.6911 l -15.2974,7.7697 -1.0828,37.7613 c -0.5955,20.7687 -0.671,38.3954 -0.168,39.1704 1.5525,2.3906 3.6613,1.6527 16.5136,-5.778 z m -347.7092,-80.0666 c -14.5892,-9.7248 -12.6849,-38.4196 4.1361,-62.3273 10.8197,-15.3779 24.3521,-21.7874 37.3686,-17.6992 10.2092,3.2064 13.8009,10.7954 13.6904,28.9269 -0.081,13.4853 -0.7801,16.5345 -5.9651,26.0535 -5.6606,10.392 -13.3429,18.6481 -23.1547,24.8837 -5.9213,3.763 -20.5371,3.8541 -26.0753,0.1617 z m 21.9059,-21.6068 c 10.3433,-6.8945 18.7727,-28.0049 13.5662,-33.9751 -3.666,-4.2038 -8.1856,-3.2289 -14.5312,3.1347 -8.0159,8.0385 -11.91,16.0384 -11.91,24.467 0,9.2319 4.9273,11.6711 12.875,6.3734 z m 589.7914,16.8645 c -6.3862,-6.0774 1.0282,-22.999 10.0772,-22.999 6.4776,0 9.2226,5.7338 6.5014,13.5804 -3.6336,10.478 -11.0425,14.6872 -16.5786,9.4186 z m 0,-50.3103 c -7.2339,-6.8842 3.2123,-25.0082 12.753,-22.1265 9.8802,2.9843 2.1154,24.2827 -8.8529,24.2827 -0.8989,0 -2.654,-0.9703 -3.9001,-2.1562 z M 1492.6585,855.0996 c -9.1548,-9.6269 2.2248,-33.12185 14.6095,-30.16372 4.3705,1.04386 8.585,-0.79728 54.277,-23.71056 14.1647,-7.10323 26.872,-12.91495 28.2386,-12.91495 1.3666,0 10.3152,4.44707 19.8859,9.88239 9.5708,5.43531 18.5288,9.86774 19.9067,9.84982 2.3357,-0.0304 9.2026,-3.47328 32.7143,-16.40249 5.1921,-2.85518 11.658,-6.0249 14.3683,-7.04382 4.0693,-1.52978 5.6583,-4.26377 9.1187,-15.68962 6.7925,-22.42772 16.2371,-33.68568 36.3639,-43.34528 5.5922,-2.68395 12.1319,-1.0407 19.4479,4.88677 17.458,14.14471 5.0888,58.92333 -20.6665,74.81631 -10.7656,6.64314 -20.9296,6.28697 -29.3456,-1.02834 -6.1807,-5.37234 -6.708,-5.50606 -11.2771,-2.86009 -8.9198,5.16539 -50.2587,24.6671 -52.2881,24.6671 -2.4787,0 -29.407,-13.97247 -30.7989,-15.98072 -1.9364,-2.79393 -8.939,-5.39837 -10.6275,-3.95265 -1.4879,1.27391 -25.9542,13.71249 -59.2361,30.1153 -5.6811,2.79996 -12.0533,7.0145 -14.1604,9.36561 -12.5999,14.05972 -15.1014,15.21831 -20.5306,9.50894 z m 224.6625,-71.77038 c 5.7752,-4.42334 11.9954,-17.14413 11.9954,-24.53121 0,-18.78192 -22.2466,-5.46022 -25.7557,15.42294 -1.0164,6.04902 -0.5974,7.90423 2.2286,9.87085 4.5225,3.14703 6.6075,3.00916 11.5317,-0.76258 z m -486.6799,845.67728 c 7.7101,-7.4852 10.8937,-16.6329 9.367,-26.9147 -1.0156,-6.8392 -8.02,-6.6097 -14.8297,0.4858 -8.4785,8.834 -12.4853,26.5851 -7.1474,31.665 3.3726,3.2096 4.3129,2.8192 12.6101,-5.2361 z m 423.193,-232.9946 c 12.2331,-11.6416 14.6098,-30.9813 3.9847,-32.4252 -5.6088,-0.7622 -12.1186,5.0012 -17.1463,15.1801 -4.2738,8.6524 -4.8916,15.2833 -1.917,20.5727 2.912,5.1782 7.1157,4.2506 15.0786,-3.3276 z m -1249.18942,-3.2262 c 1.97377,-4.8946 1.27104,-9.6466 -2.44635,-16.5449 -5.60657,-10.4043 -11.90606,-15.1075 -19.32969,-14.4313 -5.51179,0.502 -6.41598,1.2879 -6.90159,5.9998 -0.73143,7.0952 3.94943,17.5159 10.44112,23.2443 5.98928,5.2853 16.40491,6.2746 18.23651,1.7321 z m 788.24502,-26.9514 c 7.9487,-8.7001 11.5332,-15.9809 11.5403,-23.4412 0.019,-14.4182 -9.8883,-14.6685 -20.6564,-0.5221 -6.644,8.7284 -8.9843,18.1122 -6.047,24.2472 2.7756,5.7975 9.7257,5.6673 15.1631,-0.2839 z M 1058.2074,970.03103 c 1.7256,-1.494 15.6442,-8.8528 39.5547,-20.9131 12.8629,-6.488 82.9359,-42.51946 94.4026,-48.54182 13.7444,-7.21858 64.746,-32.98159 92.5146,-46.7328 10.3843,-5.1424 23.1286,-11.57878 28.3208,-14.30308 5.1921,-2.72429 19.6357,-10.02482 32.0968,-16.22339 12.4612,-6.19858 27.3296,-13.65394 33.041,-16.56748 5.7113,-2.91353 18.0309,-9.15709 27.3767,-13.87458 9.3459,-4.7175 19.5414,-10.0057 22.6567,-11.7516 3.1152,-1.74589 13.3107,-7.01545 22.6566,-11.71014 9.3459,-4.69469 25.0639,-12.59122 34.929,-17.54783 9.865,-4.95663 23.0342,-11.42016 29.2648,-14.36342 6.2306,-2.94326 16.8508,-8.37735 23.6006,-12.07574 6.7498,-3.69838 22.4679,-11.80689 34.929,-18.01894 12.4611,-6.21205 31.1528,-15.7224 41.5371,-21.13412 23.5835,-12.29034 33.9957,-17.67267 51.9215,-26.83923 7.7882,-3.9826 20.5325,-10.54213 28.3208,-14.57677 7.7882,-4.03462 20.3201,-10.38892 27.8487,-14.12067 7.5286,-3.73173 13.6884,-7.66988 13.6884,-8.75144 0,-1.08157 -10.8327,-7.20886 -24.0726,-13.61622 -21.9891,-10.64136 -48.5619,-23.70407 -110.9231,-54.52772 -24.5279,-12.12351 -47.9448,-23.85816 -71.746,-35.95325 -8.3074,-4.2216 -25.2999,-12.72356 -37.7611,-18.89324 -49.3508,-24.4343 -69.3155,-34.35708 -85.2861,-42.38889 -9.1678,-4.6106 -30.2627,-15.02367 -46.8775,-23.14015 -73.8374,-36.07011 -107.9457,-52.84943 -138.7719,-68.26773 -18.1725,-9.08934 -41.8511,-20.76076 -52.6193,-25.93651 -10.7679,-5.17574 -24.3619,-11.88545 -30.2088,-14.91049 -5.8467,-3.02501 -22.95,-11.54323 -38.0073,-18.92938 -15.0572,-7.38613 -34.5262,-17.09953 -43.2647,-21.58533 l -15.8878,-8.15596 -12.433,6.31144 c -17.6085,8.93887 -80.48299,40.42205 -104.00341,52.07779 -22.57015,11.18483 -28.32078,14.43017 -28.32078,15.98282 0,0.60094 12.2882,6.98223 27.3069,14.18065 l 27.30691,13.08801 19.69593,-0.83362 c 20.1541,-0.85303 27.4061,-3.0499 47.89805,-14.51002 l 6.0926,-3.40725 -3.7325,-6.96263 c -4.5323,-8.45468 -4.614,-12.2619 -0.3655,-17.03982 6.9367,-7.80117 17.1069,-10.72192 37.3476,-10.72564 16.4638,-0.004 20.2053,0.58484 28.0107,4.40108 11.8902,5.81327 16.8717,11.89188 15.4171,18.81272 -2.4543,11.67792 -19.001,19.00744 -42.9101,19.00744 -14.3864,0 -16.4943,0.52094 -32.9734,8.14941 -27.60975,12.78094 -30.37125,13.41216 -58.67748,13.41216 H 941.702 l -18.26068,-8.60753 c -10.04331,-4.73414 -23.99167,-11.6744 -30.99635,-15.42279 l -12.73567,-6.81527 -16.52914,8.51294 c -30.28361,15.59688 -60.77358,30.92658 -103.37957,51.97713 -33.92037,16.75923 -65.00546,32.24189 -84.01834,41.8473 -8.82664,4.45929 -23.27025,11.70908 -32.09689,16.11064 -8.82665,4.40158 -21.99581,11.05958 -29.26482,14.79555 -7.269,3.73599 -23.41185,11.84379 -35.873,18.01735 -12.46114,6.17356 -32.00249,15.88078 -43.42521,21.5716 -11.42271,5.69081 -32.66331,16.18309 -47.20131,23.31617 -14.53801,7.13307 -28.13198,13.97729 -30.20884,15.20937 -2.07686,1.23207 -10.99791,5.9085 -19.82455,10.39209 -8.82665,4.48356 -24.11988,12.2739 -33.98495,17.31185 -9.86508,5.03795 -26.64514,13.41299 -37.28885,18.61118 -10.6439,5.1982 -19.14013,9.99359 -18.88053,10.65641 0.25942,0.6628 16.61468,9.04694 36.34483,18.6314 19.73015,9.58446 40.12111,19.66433 45.31326,22.39972 5.19214,2.73538 31.53048,15.65969 58.52963,28.72068 26.99915,13.06099 53.33749,25.98302 58.52963,28.71561 35.23918,18.54614 97.54699,49.07165 104.37117,51.13283 4.1286,1.24705 4.19185,1.00969 4.19185,-15.70448 0,-11.4055 -0.77391,-17.56901 -2.36006,-18.79533 -1.29804,-1.00356 -10.43149,-5.86618 -20.29657,-10.80583 -9.86507,-4.93963 -23.03424,-11.6256 -29.26481,-14.85772 -6.23058,-3.23209 -19.39974,-9.86129 -29.26482,-14.73153 -9.86507,-4.87022 -24.12988,-12.09047 -31.69946,-16.04498 -7.92321,-4.13929 -15.03494,-6.72543 -16.76099,-6.0951 -5.7478,2.09902 -21.23116,-1.10453 -26.10214,-5.40062 -9.86225,-8.69818 -4.67067,-16.79973 13.50033,-21.06766 5.02751,-1.18082 9.14082,-2.81936 9.14082,-3.64116 0,-0.82182 -10.04444,-6.97322 -22.32075,-13.6698 -31.09434,-16.96137 -30.31155,-15.78937 -18.0292,-26.99023 8.16545,-7.44631 9.58319,-9.55097 7.2775,-10.80282 -4.73618,-2.57132 -12.5886,-10.00539 -14.88862,-14.09535 -3.71021,-6.59727 1.51969,-15.14918 12.33219,-20.16546 7.75895,-3.59967 12.14698,-4.27841 28.07667,-4.34266 16.02937,-0.0647 20.07339,0.53072 26.77995,3.94259 9.75726,4.96388 13.81318,10.25622 13.81318,18.0243 0,10.95845 -13.09742,19.28596 -33.52917,21.31828 -9.06908,0.9021 -12.18795,2.20945 -19.00439,7.96607 l -8.15468,6.88684 10.99167,5.46417 c 31.12644,15.47373 35.28487,18.70821 33.96947,26.4224 -1.2801,7.50634 2.65762,19.81744 7.30431,22.83726 5.06111,3.28906 37.90964,19.73261 82.05684,41.07663 20.24936,9.79003 38.51627,19.39288 40.59313,21.3397 3.40926,3.19582 3.7761,5.91742 3.7761,28.01717 v 24.4775 l 5.66416,3.02534 c 3.11529,1.66393 25.2055,12.57631 49.08937,24.24971 23.88386,11.67341 47.67937,23.41243 52.87888,26.08669 5.1995,2.67428 28.98897,14.37787 52.86547,26.008 23.8765,11.63011 50.20879,24.58078 58.51622,28.77925 8.30744,4.19848 33.79615,16.73275 56.64158,27.85392 22.8454,11.12116 47.0597,23.10676 53.80955,26.63456 44.0401,23.018 51.3907,25.9326 55.792,22.1226 z m 5.2378,-67.40898 c -28.4105,-8.83721 -33.6111,-27.75623 -10.6924,-38.89707 8.1275,-3.95073 11.5337,-4.44625 30.8489,-4.48768 l 21.7126,-0.0465 20.7685,-9.41772 c 11.4228,-5.17975 22.2439,-10.21227 24.047,-11.18341 4.5391,-2.44459 13.0453,-2.24156 45.9311,1.09635 l 28.4408,2.88677 20.6485,-10.29293 c 11.3567,-5.6611 38.4906,-18.98286 60.2976,-29.60387 21.807,-10.62104 44.7469,-21.94158 50.9775,-25.15675 6.2305,-3.21519 31.2727,-15.52936 55.6496,-27.36479 42.9056,-20.83178 62.8158,-30.85477 74.626,-37.56748 3.1153,-1.77069 9.2235,-4.86055 13.574,-6.86637 8.3952,-3.87082 10.6427,-6.15901 11.0358,-11.235 0.8021,-10.36107 20.3336,-15.29188 35.4187,-8.94154 9.3995,3.95687 13.0269,8.51344 11.4233,14.34917 -1.6817,6.11987 -9.3183,9.51014 -23.8946,10.60795 -7.4648,0.56221 -14.8467,1.92598 -16.4043,3.0306 -5.4407,3.85819 -25.1489,13.75892 -93.4586,46.95012 -20.7686,10.0913 -45.8325,22.42692 -55.6976,27.41252 -29.92,15.12089 -44.2794,22.22421 -93.0812,46.04541 l -46.8239,22.85577 -34.3954,-3.81004 -34.3954,-3.81002 -21.3291,10.19487 c -17.1341,8.18976 -21.0671,10.77406 -19.9966,13.1398 8.393,18.54719 -4.3183,30.85225 -33.0517,31.99555 -8.5982,0.34213 -17.4369,-0.40854 -22.1791,-1.88362 z m 30.5487,-13.69392 c 6.7341,-2.43654 5.7419,-8.9437 -1.896,-12.4347 -7.3836,-3.37474 -23.1166,-3.16755 -26.816,0.35315 -3.6674,3.49013 -1.593,9.99677 3.8533,12.08691 5.6389,2.16397 18.8711,2.16111 24.8587,-0.005 z m -77.4181,-107.83938 c -13.4996,-0.86499 -31.34175,-2.47278 -39.64915,-3.57289 -29.97568,-3.9695 -86.96975,-17.25452 -103.8429,-24.20522 -3.11529,-1.2833 -7.78822,-2.92247 -10.38429,-3.64257 -8.16677,-2.26533 -52.68158,-23.95699 -65.79561,-32.06166 -70.62242,-43.64575 -95.46995,-111.33904 -62.41978,-170.05209 7.33358,-13.0277 24.51372,-32.60977 39.85717,-45.42959 11.24184,-9.39266 42.55538,-28.25391 46.90735,-28.25391 0.99103,0 1.80176,-0.80856 1.80176,-1.7968 0,-0.98823 1.06203,-1.80017 2.36007,-1.80432 1.29804,-0.004 6.35556,-1.93679 11.23901,-4.29478 26.64326,-12.86494 78.09552,-25.54426 129.89292,-32.00941 24.0243,-2.99862 105.31225,-2.93817 128.38765,0.0954 33.738,4.43542 62.2257,9.50215 71.746,12.76063 2.596,0.88853 12.3667,3.77848 21.7126,6.42213 19.513,5.51962 50.6302,18.19866 69.8579,28.46443 42.1255,22.49104 79.07,58.47636 91.3053,88.93506 13.5151,33.64455 11.9759,64.15104 -4.85,96.12496 -12.852,24.4223 -40.6492,50.50161 -70.7112,66.34116 -31.221,16.45038 -45.5134,22.25696 -76.1618,30.94272 -53.7196,15.22415 -116.8834,21.16117 -181.253,17.03669 z m 91.5705,-29.59657 c 60.7665,-6.81752 105.3132,-20.02297 142.9598,-42.37903 32.4771,-19.28629 50.0687,-36.25585 61.3241,-59.15618 18.1074,-36.84114 8.1341,-76.84683 -27.5657,-110.57312 -13.3148,-12.57869 -35.0223,-29.57708 -37.7711,-29.57708 -0.5115,0 -4.5834,-2.29681 -9.0488,-5.10404 -22.5053,-14.14825 -79.6498,-33.55476 -116.6819,-39.62561 -44.9636,-7.37115 -94.5272,-10.26748 -128.38765,-7.50257 -36.50546,2.98091 -54.21124,6.23688 -102.88618,18.92019 -18.31619,4.77267 -67.22052,28.42541 -77.57781,37.52074 -1.30276,1.14404 -7.80087,6.52716 -14.44021,11.96247 -25.96695,21.25776 -37.70724,41.89454 -40.41395,71.03886 -1.99435,21.47374 3.41511,37.85923 19.85079,60.12735 9.465,12.82407 14.85426,18.03268 30.43824,29.41895 21.02441,15.36107 51.12035,30.61996 81.58578,41.36443 61.78123,21.78893 149.83889,31.28075 218.61459,23.56464 z m -70.7479,-10.53711 c -2.1426,-1.49105 -3.0377,-3.58119 -2.3082,-5.39039 1.6519,-4.09661 15.5398,-4.12253 17.1892,-0.0322 2.6799,6.64628 -7.6913,10.4255 -14.881,5.42248 z m 38.848,-1.00441 c -1.4495,-0.87336 -2.1133,-2.88238 -1.4753,-4.46448 1.49,-3.69513 15.5154,-4.02583 16.9773,-0.40029 2.1588,5.35411 -8.9203,8.83092 -15.502,4.86477 z m -79.66475,-3.04345 c -2.1411,-2.45514 -1.9796,-3.26564 1.0737,-5.39039 4.53345,-3.15469 8.73285,-3.1755 13.20225,-0.0654 2.1426,1.49105 3.0377,3.58119 2.3082,5.39039 -1.5752,3.90642 -13.19455,3.95224 -16.58415,0.0654 z m -74.30092,-13.16833 c -4.34743,-4.57179 -2.3155,-7.30041 5.43684,-7.30041 7.73214,0 12.096,4.09514 8.61594,8.08559 -3.26803,3.74748 -10.10561,3.36544 -14.05278,-0.78518 z m 162.31307,-0.48285 c -2.0502,-1.13143 -7.71,-6.00984 -12.5772,-10.84087 l -8.8495,-8.78374 -19.5197,5.37158 c -40.0856,11.03114 -45.00815,11.38324 -45.00815,3.21931 0,-5.96555 -4.5023,-15.40474 -10.3917,-21.78671 -4.3699,-4.73524 -4.5904,-5.57437 -1.9486,-7.41276 1.6384,-1.14018 6.3597,-2.58751 10.4917,-3.2163 4.13205,-0.62881 7.51285,-1.99068 7.51285,-3.0264 0,-1.03571 -4.46065,-6.42934 -9.91235,-11.98581 -14.07,-14.34028 -14.1582,-14.432 -29.04394,-30.2099 -7.4072,-7.85103 -16.32825,-17.45705 -19.82455,-21.3467 -3.49648,-3.88964 -11.87962,-12.65981 -18.62941,-19.48924 l -12.27234,-12.41716 -11.32832,0.89423 c -6.23057,0.49184 -13.24356,1.47375 -15.58436,2.18205 -3.59014,1.08623 -6.31535,-0.78418 -17.41162,-11.95056 -7.23559,-7.28109 -13.17937,-13.81228 -13.20844,-14.51375 -0.068,-1.65873 19.45034,-7.32497 38.90672,-11.29431 8.44734,-1.72336 16.44116,-3.77006 17.76412,-4.54818 1.75022,-1.02939 0,-4.02395 -6.39842,-10.99248 -4.8421,-5.26773 -8.52248,-10.38071 -8.17867,-11.36218 0.77524,-2.21355 26.36288,-8.53351 35.05529,-8.65844 3.52008,-0.0507 7.38398,1.05547 8.58629,2.45793 1.2025,1.40245 6.17809,6.15135 11.05682,10.55311 6.6973,6.04265 9.40344,7.49577 11.0468,5.93186 2.36063,-2.24656 -0.0208,-6.71273 -7.62754,-14.30912 -2.18542,-2.18221 -3.9736,-4.71194 -3.9736,-5.62161 0,-3.30463 21.47967,-9.14972 33.93017,-9.23316 5.4712,-0.0367 8.3537,1.65136 17.45415,10.22156 l 10.9005,10.26552 23.1957,-0.5339 c 27.1523,-0.62496 42.923,1.70286 59.2412,8.74437 13.1456,5.67234 29.2594,18.92726 32.7449,26.93521 2.0529,4.71677 1.9904,18.55096 -0.1133,24.9996 -0.6198,1.90042 3.5964,3.2754 17.2411,5.62259 22.0727,3.79697 37.0531,10.50381 50.0493,22.40736 11.8458,10.84996 17.878,21.6352 18.1043,32.37022 0.2963,14.03859 -9.8543,24.56474 -34.0882,35.35014 l -15.8428,7.05088 5.4585,5.73752 c 12.2748,12.90219 11.8357,16.0003 -2.5651,18.09096 -4.4131,0.64067 -11.843,2.39884 -16.5108,3.90701 -9.9878,3.22705 -13.1099,2.13228 -20.6115,-7.2274 -6.4732,-8.07678 -12.8979,-12.13765 -16.8937,-10.67838 -4.4951,1.64153 -3.8992,3.48636 3.7174,11.50945 3.7485,3.94861 6.3689,8.28665 5.8231,9.64011 -0.5474,1.35752 -8.4706,4.18404 -17.6718,6.30426 -19.2787,4.44239 -17.5151,4.3101 -22.2955,1.67223 z m 19.2265,-11.50912 c 0.3793,-1.098 -2.3154,-5.41945 -5.9884,-9.6032 -3.6728,-4.18373 -6.678,-8.71199 -6.678,-10.06275 0,-4.0298 31.98,-10.955 37.4482,-8.10929 1.7296,0.90024 6.5034,4.93502 10.6082,8.9662 6.1513,6.0408 8.7239,7.32943 14.6324,7.32943 3.943,0 7.1691,-0.48235 7.1691,-1.07188 0,-0.58953 -3.3985,-4.74617 -7.5522,-9.23696 -4.1537,-4.49079 -7.5522,-8.87713 -7.5522,-9.74743 0,-1.69294 1.3556,-2.30585 21.6765,-9.80045 14.6175,-5.39106 27.1489,-13.25456 30.6501,-19.23308 5.7203,-9.76772 0.696,-24.55221 -12.0688,-35.51318 -16.748,-14.3815 -31.2408,-19.21995 -62.4513,-20.84934 -23.4058,-1.22195 -28.3769,-3.33518 -21.156,-8.99367 10.0214,-7.85315 15.0115,-14.2177 15.02,-19.15686 0.019,-11.13071 -19.9963,-27.42716 -39.6591,-32.29039 -16.1472,-3.99376 -42.6781,-5.41215 -56.5279,-3.02213 l -12.1343,2.09405 -12.21145,-11.8517 c -9.6704,-9.38553 -13.0342,-11.61606 -16.1649,-10.71926 -7.5789,2.17091 -7.4652,4.11709 0.7356,12.58376 l 8.1335,8.39744 -4.318,3.09966 c -4.5827,3.28958 -19.69161,7.19324 -27.8412,7.19324 -3.48327,0 -8.13524,-3.1385 -16.18627,-10.92019 -8.71903,-8.42724 -12.20381,-10.68888 -15.26453,-9.90692 -2.18146,0.5573 -4.60345,1.02432 -5.38227,1.03782 -2.94876,0.051 -1.14492,3.07642 7.33451,12.30112 5.59468,6.0864 8.09635,10.14221 6.93671,11.24576 -1.55009,1.47526 -13.55546,4.90564 -50.1446,14.32824 l -7.08058,1.82343 3.96831,5.10793 c 3.92036,5.04647 4.15447,5.09687 19.4494,4.18879 19.32025,-1.1471 22.79691,0.40544 38.65429,17.2614 6.52889,6.94009 13.71311,14.54301 15.96499,16.89534 2.2517,2.35235 8.34218,8.74023 13.53434,14.19533 5.1921,5.45509 16.5718,17.35792 25.288,26.45076 21.97335,22.9225 26.63345,28.80685 26.63345,33.63005 0,4.70333 -4.9172,7.90174 -12.1483,7.90174 -2.6642,0 -4.8441,0.38264 -4.8441,0.85033 0,2.30389 8.5034,17.11764 9.8259,17.11764 0.8366,0 13.0038,-2.84977 27.0381,-6.33283 28.9727,-7.1905 27.4149,-7.42496 43.6527,6.56949 10.0516,8.66277 17.2617,10.88366 19.0001,5.85256 z m -49.7068,-54.90934 c -32.74,-36.25292 -32.9259,-36.53976 -24.7933,-38.25218 2.3364,-0.49196 11.8947,-2.60192 21.2405,-4.68878 44.1006,-9.84733 70.8239,-7.19713 90.1351,8.93885 16.0315,13.39538 12.7359,27.95362 -8.3352,36.82186 -13.3678,5.62615 -48.761,13.65802 -60.1852,13.65802 -1.7495,0 -9.8772,-7.41499 -18.0619,-16.47777 z m 57.809,-1.68802 c 12.8313,-3.55505 20.359,-7.39572 22.7181,-11.59098 2.1107,-3.75286 1.7795,-5.0002 -2.8647,-10.7949 -7.2078,-8.99308 -21.5723,-15.10915 -35.5388,-15.1315 -9.5473,-0.0162 -46.9899,6.12855 -50.8315,8.34079 -0.7582,0.43676 5.8732,8.73622 14.7366,18.44326 l 16.1157,17.64915 14.5282,-2.54247 c 7.9904,-1.39837 17.5018,-3.36637 21.1364,-4.37335 z M 990.55255,588.41666 c -21.1704,-20.94435 -25.30427,-26.03867 -22.87472,-28.18918 0.93307,-0.82606 12.69772,-3.70748 26.14372,-6.40316 33.50745,-6.71774 50.83355,-5.99153 66.01935,2.76712 7.6921,4.4366 11.6746,8.20662 14.4659,13.69382 3.5952,7.06767 3.653,7.93711 0.8702,13.05857 -1.6398,3.01772 -6.2098,7.05417 -10.1557,8.96987 -6.2636,3.04106 -48.9511,14.52013 -53.9962,14.52013 -1.021,0 -10.2338,-8.28773 -20.47255,-18.41717 z m 42.30465,2.49435 c 21.8559,-5.24962 28.0878,-8.25817 28.0878,-13.55993 0,-4.86862 -7.5594,-12.84895 -14.7553,-15.57692 -6.2311,-2.36221 -29.2948,-1.9315 -44.2693,0.82671 -7.02235,1.29342 -13.12715,2.69381 -13.56655,3.11199 -1.5468,1.47208 24.48435,28.42313 27.51095,28.48287 1.6856,0.0332 9.3322,-1.44484 16.9924,-3.28472 z m 139.9549,133.32147 c -3.2517,-1.2487 -2.985,-7.79401 0.3176,-7.79401 1.4727,0 3.8335,-0.42212 5.2463,-0.93805 1.4129,-0.51591 4.2115,0.20514 6.2193,1.60237 6.7602,4.70421 -2.8916,10.54414 -11.7832,7.12969 z m -287.436,-12.26313 c -3.50611,-4.02031 -0.87209,-8.10846 5.22406,-8.10846 7.01675,0 12.71603,3.99279 11.17047,7.82576 -1.52706,3.78705 -13.1635,3.98772 -16.39453,0.2827 z m 321.6141,0.88755 c -6.1569,-2.3641 -6.8347,-4.86167 -2.1646,-7.97467 5.3352,-3.55633 9.8065,-3.58736 12.8572,-0.0893 1.9476,2.23322 1.7648,3.37551 -1.0055,6.28879 -3.755,3.94875 -3.9385,3.98237 -9.6871,1.77511 z M 856.76474,697.76262 c -5.91545,-2.83186 -6.40333,-6.11853 -1.24026,-8.35727 5.95171,-2.58072 14.72719,0.52828 14.72719,5.21761 0,4.2168 -7.56033,5.9768 -13.48693,3.13966 z m 374.10506,-1.06529 c -4.102,-2.48851 -0.051,-7.95352 6.4407,-8.68825 6.9716,-0.78907 11.0694,2.58997 8.5576,7.05651 -2.0673,3.67587 -10.1749,4.55795 -14.9983,1.63174 z M 828.71451,679.97378 c -2.59607,-1.24992 -4.72013,-3.46155 -4.72013,-4.91471 0,-3.62915 12.1634,-4.43402 16.92129,-1.11974 3.15173,2.19554 3.32864,3.01202 1.18476,5.47037 -3.01843,3.46129 -7.01827,3.62985 -13.38592,0.56408 z M 1251.071,678.0936 c -1.4942,-3.70574 1.1326,-6.41313 7.3751,-7.60128 7.124,-1.35592 12.0618,2.99765 8.2967,7.31501 -2.9209,3.3493 -14.3524,3.55813 -15.6718,0.28627 z M 805.03928,657.71495 c -2.97633,-2.83253 -2.96217,-3.17182 0.226,-5.39039 1.87143,-1.30218 4.6599,-2.36759 6.19696,-2.36759 4.13805,0 9.59848,5.34863 8.42676,8.25442 -1.40849,3.49311 -10.99413,3.17265 -14.84972,-0.49644 z M 1266.7428,656.438 c 0,-2.36487 1.3439,-4.79055 2.9865,-5.39039 5.4004,-1.9722 12.2164,-1.1402 13.3325,1.62743 1.7204,4.26666 -2.9605,8.06271 -9.9419,8.06271 -5.4675,0 -6.3771,-0.6133 -6.3771,-4.29975 z M 792.06099,638.61377 c -5.94491,-4.13689 -2.54358,-8.75087 5.95756,-8.08169 6.15317,0.48434 7.09531,1.155 7.09531,5.05051 0,3.45398 -1.09111,4.61339 -4.72184,5.01736 -2.59701,0.28894 -6.34593,-0.60484 -8.33103,-1.98618 z m 488.27571,0.20306 c -3.1541,-3.00172 -2.8313,-8.53084 0.5706,-9.7732 1.5601,-0.56969 4.9586,-0.5289 7.5522,0.0906 6.3915,1.52658 6.3129,7.75629 -0.1265,10.08639 -5.9368,2.14808 -5.2794,2.18128 -7.9957,-0.40383 z m 1.391,-43.38233 c -6.5257,-3.0961 -6.095,-9.10076 0.7057,-9.84287 9.1527,-0.99877 14.5577,6.59482 7.3185,10.28192 -2.3191,1.1811 -4.908,1.03944 -8.0242,-0.43905 z m -495.35956,-9.39218 c -1.63166,-1.55294 -2.96689,-3.11231 -2.96689,-3.46525 0,-2.27058 6.6788,-6.28879 10.45283,-6.28879 6.13881,0 9.46348,5.94481 5.45703,9.75759 -3.78592,3.60296 -9.15479,3.60149 -12.94297,-0.004 z m 480.47446,-15.9282 c -4.202,-4.8186 -0.9544,-8.48376 6.9653,-7.86034 6.1531,0.48434 7.0953,1.155 7.0953,5.05051 0,3.7039 -1.022,4.5869 -5.8251,5.03295 -3.5284,0.32769 -6.7752,-0.54877 -8.2355,-2.22312 z m -469.93875,-6.19705 c -4.78754,-2.88741 -1.66829,-8.2492 5.16156,-8.87204 8.92388,-0.81383 11.87094,2.54254 6.14334,6.9964 -4.87646,3.79207 -7.4259,4.21506 -11.3049,1.87564 z m 456.15055,-12.92788 c -4.837,-2.68111 -4.1617,-8.26513 1.1156,-9.22519 10.0834,-1.83439 16.8777,5.2533 8.9207,9.3059 -4.462,2.27261 -5.8103,2.26175 -10.0363,-0.0807 z m -438.30128,-9.80581 c -3.71607,-3.53647 -3.71588,-3.51621 -0.0642,-6.9915 3.88617,-3.69833 13.79411,-3.6912 15.28699,0.0108 2.42237,6.00743 -10.17528,11.78414 -15.22299,6.98052 z m 412.36058,-10.69057 c -3.8615,-4.42788 -0.8311,-8.41228 5.9128,-7.77402 7.1485,0.67657 11.6429,6.02847 7.2835,8.67318 -4.219,2.55954 -10.5568,2.12769 -13.1963,-0.89916 z m -388.48691,-6.36765 c -5.53351,-2.11673 -5.37132,-4.55116 0.54942,-8.24306 3.84181,-2.39558 5.72231,-2.59046 9.44026,-0.97834 5.98815,2.59656 5.91886,6.35046 -0.16614,8.98897 -2.64498,1.14688 -4.98144,2.03397 -5.19215,1.97132 -0.21071,-0.0627 -2.29493,-0.84514 -4.63139,-1.73889 z m 357.49241,-11.82882 c -1.7825,-4.42023 1.2031,-6.43322 8.5497,-5.76484 4.9144,0.44708 6.3763,1.40398 6.3763,4.17367 0,4.92326 -13.0226,6.31152 -14.926,1.59117 z m -331.53169,-6.98156 c -3.24915,-3.72579 0.71482,-8.09467 7.31149,-8.05808 7.24389,0.0403 10.30725,2.45119 8.81173,6.93535 -0.96027,2.87973 -2.80905,3.81792 -7.52295,3.81792 -3.43739,0 -7.30752,-1.21284 -8.60027,-2.69519 z m 301.19839,-5.13056 c -5.3497,-3.72284 -2.4031,-8.34542 5.3198,-8.34542 8.2542,0 12.0345,3.83966 7.7729,7.89521 -3.7051,3.52608 -8.4386,3.68883 -13.0927,0.45021 z m -266.83583,-5.11119 c -5.2284,-4.97571 -1.3037,-8.62463 9.27638,-8.62463 6.89139,0 9.47802,4.84821 4.4524,8.34543 -4.33062,3.01346 -10.71904,3.14339 -13.72878,0.2792 z m 230.34243,-5.39039 c -1.2461,-1.18589 -2.2656,-3.61156 -2.2656,-5.39039 0,-2.46282 1.49,-3.23424 6.2473,-3.23424 3.4359,0 7.7784,1.06541 9.6497,2.36759 3.1882,2.21858 3.2023,2.55786 0.226,5.39039 -3.7038,3.52474 -10.6105,3.95667 -13.8574,0.86665 z M 983.06285,479.11729 c -1.8173,-1.00728 -3.3041,-3.40838 -3.3041,-5.33575 0,-2.95898 1.3314,-3.50431 8.5555,-3.50431 9.7773,0 13.47315,4.14625 7.4389,8.34542 -4.1224,2.86857 -8.126,3.02462 -12.6903,0.49464 z m 79.79025,-0.7316 c -3.5622,-4.0847 -0.8674,-8.10846 5.4304,-8.10846 11.7186,0 15.9373,5.68582 6.699,9.02846 -6.6622,2.41052 -9.4065,2.20237 -12.1294,-0.92 z m -36.2044,-0.33359 c -4.1586,-1.04817 -6.1161,-6.20541 -3.0567,-8.05291 4.0485,-2.44463 12.1936,-1.69352 14.8659,1.37087 2.1411,2.45514 1.9797,3.26564 -1.0737,5.39039 -3.6449,2.53643 -5.1013,2.71167 -10.7355,1.29165 z m 585.6077,160.15196 c -20.1169,-5.33745 -31.0751,-19.05848 -23.3301,-29.2122 2.0358,-2.66927 7.6707,-6.74788 12.5215,-9.06355 22.2139,-10.60432 62.1477,-0.37755 66.7561,17.09573 4.2283,16.03321 -28.5612,28.44631 -55.9475,21.18002 z m 27.5738,-12.46643 c 5.266,-2.09393 6.555,-3.52341 6.0756,-6.73799 -0.8936,-5.99196 -11.7639,-10.76522 -22.2063,-9.75104 -10.1525,0.98603 -14.0398,4.92017 -11.044,11.17714 3.5616,7.43925 15.8056,9.8326 27.1747,5.31189 z M 1333.4898,461.30526 c -5.593,-2.14757 -6.861,-4.69336 -4.4623,-8.95887 1.5122,-2.68871 3.9491,-3.63073 9.3929,-3.63073 12.5016,0 16.8983,8.87912 6.2961,12.71521 -5.3543,1.93733 -5.8692,1.93156 -11.2267,-0.12559 z m -38.7376,-19.18911 c -4.7754,-1.20361 -6.0763,-6.42124 -2.2626,-9.07507 3.4619,-2.40902 13.3936,-3.05585 18.468,-1.20276 1.6426,0.59985 2.9865,2.5928 2.9865,4.42878 0,5.62191 -9.0951,8.39383 -19.1919,5.84905 z M 524.30493,586.9435 c 16.11736,-5.34696 1.40395,-19.97956 -16.78517,-16.69311 -8.37483,1.51315 -11.1025,3.7341 -11.1025,9.03983 0,7.58824 15.36969,11.80618 27.88767,7.65328 z M 1072.3974,351.62539 c 4.6412,-2.3638 4.7668,-10.0234 0.2026,-12.34804 -1.8973,-0.9663 -7.6476,-2.28688 -12.7785,-2.93462 -7.5292,-0.95051 -10.1404,-0.53707 -13.5338,2.14287 -4.5919,3.62632 -4.1027,11.4062 0.7171,11.4062 1.4366,0 2.6119,0.80856 2.6119,1.7968 0,2.36938 18.1032,2.31914 22.7807,-0.0633 z"
       id="path827" />
  </g>
</svg>
