<?xml version="1.0" encoding="UTF-8" standalone="no"?>
<!-- Created with Inkscape (http://www.inkscape.org/) -->

<svg
   version="1.1"
   id="svg2"
   width="2048"
   height="2048"
   viewBox="0 0 2048 2048"
   sodipodi:docname="Gemini_Generated_Image_2f0taw2f0taw2f0t.jpeg.svg"
   inkscape:version="1.1.2 (0a00cf5339, 2022-02-04)"
   xmlns:inkscape="http://www.inkscape.org/namespaces/inkscape"
   xmlns:sodipodi="http://sodipodi.sourceforge.net/DTD/sodipodi-0.dtd"
   xmlns="http://www.w3.org/2000/svg"
   xmlns:svg="http://www.w3.org/2000/svg">
  <defs
     id="defs6" />
  <sodipodi:namedview
     id="namedview4"
     pagecolor="#ffffff"
     bordercolor="#666666"
     borderopacity="1.0"
     inkscape:pageshadow="2"
     inkscape:pageopacity="0.0"
     inkscape:pagecheckerboard="0"
     showgrid="false"
     inkscape:zoom="0.22949219"
     inkscape:cx="1024"
     inkscape:cy="1021.8213"
     inkscape:window-width="1920"
     inkscape:window-height="1016"
     inkscape:window-x="0"
     inkscape:window-y="0"
     inkscape:window-maximized="1"
     inkscape:current-layer="g8" />
  <g
     inkscape:groupmode="layer"
     inkscape:label="Image"
     id="g8">
    <path
       style="fill:#111111;stroke-width:1.57084;fill-opacity:1"
       d="m 993.88854,1949.988 c -6.35377,-2.9535 -6.37731,-2.9872 -81.35482,-116.4941 -62.75216,-94.9993 -83.59543,-126.3716 -124.1968,-186.9359 -83.65149,-124.7808 -108.18024,-161.5692 -152.67195,-228.9787 -27.76686,-42.0696 -60.76766,-91.9076 -73.33538,-110.7512 -130.11762,-195.0955 -132.62426,-198.9941 -132.61575,-206.2543 0.0155,-10.1211 10.30465,-20.0288 20.80703,-20.0288 6.09008,0 10.91924,2.9726 68.22332,41.9948 28.95608,19.7182 73.70918,50.0674 99.45144,67.4426 25.74227,17.3752 74.90814,50.5942 109.25748,73.82 34.3495,23.2259 92.934,62.6661 130.18809,87.6448 37.25409,24.9789 85.64078,57.6066 107.526,72.5063 21.88523,14.8995 40.296,27.323 40.9126,27.6076 0.6168,0.2845 29.8825,-19.3912 65.035,-43.7239 35.1527,-24.3328 83.076,-57.4765 106.4964,-73.6523 23.4204,-16.176 60.351,-41.7295 82.068,-56.7854 63.4628,-43.9975 108.2896,-74.7724 199.7505,-137.1352 76.3695,-52.0728 86.7471,-58.6817 93.1952,-59.3515 8.9514,-0.9298 16.7578,3.4413 20.4512,11.4514 4.3614,9.4583 3.3423,12.2884 -13.6584,37.9288 -8.8804,13.3935 -30.0858,45.506 -47.1231,71.3612 -17.0374,25.8552 -43.1792,65.2955 -58.0926,87.6449 -14.9135,22.3494 -40.6987,61.0725 -57.3004,86.0513 -31.2314,46.9905 -39.5872,59.4846 -95.3846,142.6221 -28.5197,42.4942 -46.5527,69.5066 -109.0416,163.338 -36.9853,55.5358 -102.6467,154.8363 -135.5486,204.9911 -21.3528,32.55 -40.658,60.4191 -42.9003,61.9311 -5.5413,3.7366 -14.24393,4.4951 -20.13796,1.7553 z M 979.2507,1488.204 c -4.96434,-4.3393 -40.98416,-28.7982 -145.39623,-98.7297 -31.93685,-21.3901 -74.63607,-49.991 -94.88705,-63.5576 -20.25099,-13.5662 -61.26719,-41.3103 -91.14709,-61.6534 -71.49008,-48.6722 -106.5607,-72.1703 -107.7132,-72.1703 -0.51642,0 0.11303,1.2549 1.39871,2.7887 1.28568,1.5338 20.33429,30.0383 42.33023,63.3434 39.89343,60.4044 138.16153,208.6481 156.33681,235.8442 5.27172,7.888 35.24373,52.7064 66.60456,99.5964 31.36083,46.89 67.95249,101.7476 81.31472,121.9059 13.36238,20.1583 30.14234,45.465 37.28908,56.2369 7.14658,10.7718 21.75175,32.8015 32.45574,48.955 10.70415,16.1533 20.80781,30.9001 22.45273,32.7706 2.95723,3.363 2.99533,1.3686 3.41914,-178.8288 l 0.42877,-182.2295 z m 53.01,355.2495 c 2.8449,-4.6014 14.0663,-21.8501 24.9367,-38.3303 l 19.7643,-29.9643 v -73.592 -73.5923 l -18.1702,-18.7479 c -18.1202,-18.6966 -18.1903,-18.7481 -25.5495,-18.7481 h -7.3793 v 130.6705 c 0,71.8687 0.2758,130.6704 0.6129,130.6704 0.3369,0 2.9403,-3.7647 5.7851,-8.366 z m 68.9445,-104.3893 c 1.8366,-3.2801 13.0129,-20.1965 24.8362,-37.592 l 21.4968,-31.6287 0.415,-24.9421 0.4148,-24.9423 -19.8315,-19.953 c -10.9073,-10.9742 -27.912,-28.0052 -37.7882,-37.8467 l -17.9565,-17.8935 h -23.5272 -23.5272 l 0.4498,13.1467 0.4497,13.1468 10.9869,0.7967 10.9869,0.7967 18.2518,17.5245 c 10.0385,9.6383 21.0298,20.7532 24.4253,24.6998 l 6.1735,7.1755 -1.1124,61.7498 c -0.6119,33.9624 -0.5209,61.7443 0.2022,61.7376 0.723,0 2.8174,-2.6958 4.6541,-5.9758 z m 74.2067,-112.3325 c 4.8939,-7.2307 11.983,-17.6314 15.7538,-23.1127 l 6.8559,-9.966 -14.8506,-15.7737 -14.8505,-15.7737 v -53.5623 -53.5625 l -17.4202,-17.4856 c -9.581,-9.6172 -17.8578,-17.3154 -18.3928,-17.1074 -0.535,0.2082 -24.749,16.8362 -53.8088,36.9512 l -52.836,36.5726 v 15.6159 15.6159 h 28.2593 28.2592 l 41.4212,42.5062 41.4211,42.5059 v 14.8553 c 0,8.1704 0.2904,14.8554 0.6454,14.8554 0.3549,0 4.6493,-5.9161 9.543,-13.1467 z m 35.7601,-54.9772 c 7.0016,-9.044 7.0583,-9.2753 3.6818,-14.975 -3.0563,-5.1591 -3.1653,-7.6675 -3.1709,-73.0239 v -67.6813 l 30.625,-31.5168 30.625,-31.5167 42.5394,-0.021 42.5395,-0.021 7.3551,-11.6359 c 4.0454,-6.3997 7.3556,-11.948 7.3563,-12.3294 5e-4,-0.3815 -24.9103,-0.335 -55.3573,0.1034 l -55.3582,0.7969 -56.2188,38.8728 -56.219,38.8727 18.6689,19.4335 18.6688,19.4336 v 53.778 53.7779 l 9.5361,10.2202 c 5.2449,5.6209 10.22,10.22 11.0558,10.22 0.8356,0 2.4907,-1.2549 3.6782,-2.7887 z m 33.6909,-49.3146 11.7193,-16.992 v -34.594 -34.5937 l 17.256,-16.5115 17.2561,-16.5114 17.1581,-0.7967 17.1584,-0.7967 9.8463,-14.342 9.8462,-14.3418 -31.436,-0.4325 -31.4359,-0.4325 -25.9866,26.7083 -25.9862,26.7083 v 57.8777 c 0,35.3439 0.5616,57.5203 1.4425,56.9601 0.7933,-0.5046 6.7161,-8.564 13.1618,-17.9096 z m 48.432,-72.5914 c 9.3246,-13.3658 17.4626,-25.1979 18.0843,-26.2934 0.8262,-1.4561 -0.5439,-1.992 -5.0932,-1.992 -5.5496,0 -7.5701,1.2509 -18.6617,11.5531 l -12.4381,11.5533 -0.015,14.7403 c 0,8.107 0.2538,14.7402 0.5775,14.7402 0.3238,0 8.2179,-10.9356 17.5425,-24.3015 z m 100.8155,-151.6641 c 4.4146,-6.5069 8.0266,-12.2437 8.0266,-12.7483 0,-0.5048 -16.6569,-0.9176 -37.0153,-0.9176 h -37.0151 l -16.7936,11.3254 c -9.2366,6.2289 -17.4555,11.9657 -18.2646,12.7483 -0.8652,0.8369 17.9907,1.423 45.7821,1.423 h 47.2535 z m 23.5111,-34.1248 c 0,-0.735 9.6892,-15.5823 21.5318,-32.994 24.0922,-35.4222 28.029,-41.7332 24.7576,-39.6889 -5.3478,3.3418 -104.5169,71.4119 -105.8274,72.6404 -0.8329,0.7807 11.7618,1.3789 29.0334,1.3789 16.7775,0 30.5046,-0.6014 30.5046,-1.3364 z m -427.37322,70.2928 c -8.22214,-5.438 -109.06718,-65.0524 -155.61957,-91.9944 -17.88464,-10.3508 -35.65315,-20.7755 -39.48557,-23.1661 -3.83242,-2.3908 -15.67809,-9.2439 -26.32371,-15.2293 -10.64562,-5.9853 -23.74275,-13.6268 -29.10457,-16.981 -5.36183,-3.3541 -19.99472,-12.0619 -32.51752,-19.3503 -31.52529,-18.3482 -103.99755,-60.9888 -146.64491,-86.2817 -19.58793,-11.6169 -42.23406,-25.0137 -50.32473,-29.7704 -8.09068,-4.7569 -30.3884,-17.861 -49.55052,-29.1205 -44.78158,-26.31307 -46.00594,-27.13277 -49.60517,-33.20767 -3.8527,-6.5026 -3.84836,-12.7586 0.0155,-20.94592 1.68117,-3.56339 18.72189,-30.143 37.86836,-59.06579 19.14632,-28.9228 55.46375,-84.13904 80.7054,-122.70277 63.442,-96.9257 120.47386,-183.70735 152.37557,-231.86043 14.80677,-22.34942 37.82685,-57.12848 51.15595,-77.28679 13.32909,-20.15831 33.99366,-51.35191 45.92124,-69.31911 11.92743,-17.96718 36.33462,-54.89753 54.23799,-82.06742 C 941.55114,161.80085 983.3185,99.12245 987.61283,94.50997 c 7.8296,-8.40983 20.73647,-9.91724 28.45657,-3.32349 2.5273,2.15867 22.1876,30.2696 61.1351,87.41364 14.0378,20.59654 34.5779,50.71449 45.6445,66.92878 11.0665,16.2143 34.3156,50.99336 51.6643,77.28681 17.3489,26.29345 38.2516,57.84559 46.4504,70.11587 14.546,21.76928 46.6586,70.54352 99.876,151.69654 14.4804,22.08173 43.3998,66.02247 64.2651,97.64611 56.3974,85.47595 71.1285,108.33164 80.3606,124.68106 9.6374,17.06729 26.0555,43.27352 80.4658,128.43757 47.6684,74.61157 48.8784,76.74689 47.705,84.18807 -1.4425,9.1481 -7.2606,15.0303 -26.7659,27.06057 -10.122,6.243 -37.2173,23.0272 -60.2118,37.2983 -22.9946,14.2709 -63.7576,39.1863 -90.5846,55.3675 -26.8269,16.1809 -64.8028,39.2542 -84.3906,51.2738 -33.5049,20.5594 -87.8067,53.3048 -113.8114,68.6311 -6.3874,3.7646 -24.8527,14.8651 -41.0341,24.6679 -28.112,17.0305 -46.649,28.1125 -110.7244,66.1948 -42.0102,24.9681 -47.0405,27.3786 -58.8312,28.1918 -9.07021,0.6256 -10.75353,0.2387 -17.03297,-3.9143 z m 66.97062,-72.0689 30.5819,-17.9091 v -135.569 -135.56907 l 20.7002,-21.64047 20.7001,-21.6405 -3.1838,-7.17094 c -4.9099,-11.05898 -4.4944,-27.06139 1.0029,-38.62469 8.1667,-17.17819 24.6987,-28.32275 41.9631,-28.28852 14.3361,0.0284 32.9663,11.55653 40.7787,25.23333 3.7203,6.51279 4.2378,9.07276 4.2378,20.96382 0,15.60796 -3.1797,24.18056 -12.7178,34.28759 -12.6282,13.38141 -34.4995,17.90203 -50.7723,10.4942 l -7.6107,-3.46459 -17.4454,17.98481 -17.4455,17.98476 -0.4258,126.28857 c -0.2429,72.059 0.1598,126.2885 0.9379,126.2882 0.7501,-2e-4 13.4535,-7.3506 28.2296,-16.3341 l 26.8658,-16.3338 0.029,-44.8184 0.03,-44.8184 -4.8199,-0.992 c -6.6924,-1.3774 -18.6674,-10.7916 -23.7181,-18.6462 -5.9924,-9.3187 -8.625,-18.0124 -8.625,-28.483 0,-18.5867 9.5398,-34.3212 25.7608,-42.4884 11.5053,-5.793 27.3246,-6.0893 37.7259,-0.7064 8.8814,4.5964 19.4698,15.0019 23.5993,23.1921 4.9034,9.7247 5.4407,26.3326 1.224,37.8286 -3.901,10.6353 -13.6589,21.5335 -23.807,26.5892 -6.4579,3.2172 -6.8345,3.7854 -7.7595,11.7106 -1.5287,13.097 -1.1804,69.6807 0.4289,69.6807 0.7854,0 6.8824,-3.4821 13.5489,-7.7379 l 12.1211,-7.738 0.7742,-37.025 c 0.9775,-46.7488 -1.9731,-42.9561 33.8505,-43.51 14.1707,-0.2192 40.2236,-0.1546 57.8954,0.145 l 32.1303,0.5434 v -70.6862 -70.68621 l -40.1869,-41.40514 c -32.695,-33.68594 -41.572,-41.97096 -47.615,-44.44014 -4.0854,-1.66925 -29.0288,-12.53492 -55.43,-24.14592 -26.4011,-11.61098 -53.9249,-23.61409 -61.164,-26.67357 -7.239,-3.05946 -20.0709,-8.50771 -28.5153,-12.10719 -8.4444,-3.59947 -15.935,-6.5445 -16.6459,-6.5445 -0.7108,0 -1.2924,14.16968 -1.2924,31.48819 v 31.48819 l -29.4206,30.24585 -29.4206,30.24585 v 181.37509 c 0,99.7564 0.5226,181.0767 1.1614,180.7119 0.6387,-0.365 14.9232,-8.7226 31.7432,-18.5726 z m 202,-214.233 c -20.209,-7.6975 -30.5088,-22.8194 -30.5088,-44.7923 0,-19.81627 8.065,-33.3838 25.0305,-42.10841 30.4962,-15.68285 65.3448,6.77384 65.3448,42.10841 0,19.021 -8.724,33.6431 -25.3402,42.4719 -8.5532,4.5447 -25.6672,5.6949 -34.5263,2.3204 z m 25.003,-32.087 c 13.352,-11.5621 1.4402,-33.17877 -15.4188,-27.98057 -7.5129,2.3163 -10.6724,6.9798 -10.6724,15.75257 0,14.3886 15.3099,21.564 26.0912,12.228 z m -298.61898,6.4172 c 0,-139.79338 -0.47707,-254.16988 -1.06022,-254.16988 -0.583,0 -16.43529,6.74343 -35.22733,14.98542 -18.79187,8.24198 -67.61368,29.14424 -108.49285,46.44947 -168.16592,71.18901 -318.0556,135.08849 -342.69351,146.09372 -7.93164,3.5429 -13.85247,7.0268 -13.15736,7.7423 1.622,1.6693 58.21147,35.15817 283.07356,167.52007 12.77474,7.5197 36.46607,21.5112 52.64741,31.0924 16.18135,9.581 55.20237,32.375 86.71339,50.6535 31.51103,18.2782 61.12521,35.6095 65.80928,38.514 4.68407,2.9045 9.3875,5.2827 10.45206,5.2849 1.5404,0 1.93557,-51.89 1.93557,-254.1659 z m 287.15418,111.7281 41.7241,-24.88 h -42.8854 -42.8857 l -0.015,12.35 c 0,6.7924 -0.4658,18.3871 -1.0239,25.7658 -0.8467,11.1941 -0.6528,13.2691 1.1706,12.53 1.2018,-0.4871 20.9612,-12.0818 43.9096,-25.7658 z m 98.813,-59.4753 5.8219,-3.7093 -0.4023,-75.23467 -0.4023,-75.23454 -36.3887,-15.6714 c -20.0137,-8.61927 -37.4337,-16.07849 -38.7112,-16.57606 -1.2775,-0.49756 9.7201,11.59157 24.4389,26.86477 l 26.7617,27.76942 0.5557,48.53401 c 0.3056,26.69367 0.6311,58.81107 0.7233,71.37197 l 0.1678,22.8379 5.8067,-3.6213 c 3.1936,-1.9918 8.4264,-5.2906 11.6285,-7.3308 z m -190.791,2.2754 c 4.5712,-3.7071 7.6712,-9.851 7.6712,-15.2035 0,-8.0324 -8.4135,-16.2183 -16.6692,-16.2183 -11.8884,0 -19.788,11.7414 -15.3139,22.7615 1.2295,3.0281 3.8577,6.6751 5.8404,8.1043 4.208,3.0332 15.0157,3.3586 18.4715,0.556 z m 226.6879,-25.2256 10.1545,-6.5522 v -53.76317 -53.7635 l -9.6779,-4.22751 c -5.3228,-2.32512 -10.2005,-4.22541 -10.8392,-4.2229 -0.6386,0.004 -1.1613,29.04688 -1.1613,64.54301 0,35.49607 0.3081,64.53837 0.6848,64.53837 0.3767,0 5.2543,-2.9485 10.8391,-6.5521 z m 46.3661,-28.3257 9.1137,-5.5908 -0.9843,-14.2716 c -0.5413,-7.84947 -0.9843,-21.58417 -0.9843,-30.52177 v -16.25008 l -11.1143,-5.05206 c -8.5517,-3.88711 -11.4026,-4.58487 -12.364,-3.02597 -0.6872,1.11435 -1.2603,20.93228 -1.2733,44.03981 l -0.024,42.01367 4.2582,-2.8752 c 2.342,-1.5814 8.3595,-5.3911 13.3719,-8.466 z m 43.709,-27.00637 c 12.4234,-7.7429 22.4216,-14.7346 22.2183,-15.5371 -0.3277,-1.2938 -36.192,-16.54857 -38.9886,-16.58366 -0.6109,-0.007 -1.3077,7.87698 -1.5485,17.52146 -0.241,9.6445 -1.0568,17.4712 -1.8133,17.3928 -0.7564,-0.078 -1.9651,0.8151 -2.6861,1.98547 -1.4261,2.3156 -1.8498,9.299 -0.5639,9.299 0.4368,0 10.9587,-6.335 23.3821,-14.07797 z M 510.2277,921.50116 c 38.79465,-16.96144 116.86767,-50.56545 143.23195,-61.64952 16.18134,-6.80296 55.89916,-23.67502 88.26185,-37.49347 32.36267,-13.81844 88.4554,-37.68909 124.65051,-53.04588 36.19509,-15.35682 77.30653,-32.86347 91.35875,-38.90372 l 25.54948,-10.98225 0.39161,-268.02278 c 0.23659,-161.89601 -0.17112,-268.02279 -1.02942,-268.02279 -1.65236,0 -7.06497,7.53154 -25.19504,35.05794 -7.21595,10.95559 -33.30661,50.39577 -57.97936,87.64482 -24.67276,37.24906 -62.11916,93.89948 -83.21436,125.88986 C 795.15863,463.96372 746.19281,538.18297 707.44091,596.905 668.689,655.62704 618.42,731.99756 595.73222,766.61727 c -59.6404,91.00607 -84.06709,128.10182 -94.28951,143.19326 -4.96218,7.32575 -9.9098,15.02322 -10.99449,17.10548 -2.3103,4.43492 -3.48417,4.75625 19.77948,-5.41485 z M 1478.97,872.65494 c -33.8336,-52.11823 -39.0144,-59.56422 -40.3506,-57.99259 -0.2609,0.30688 -0.7371,18.76149 -1.0582,41.01026 -0.5012,34.71686 -0.2548,40.64665 1.7386,41.82313 1.2775,0.75395 17.6108,7.86877 36.2966,15.81075 18.6856,7.94199 35.0546,15.06245 36.3757,15.82328 1.3211,0.76083 2.6926,1.08404 3.0482,0.71829 0.3554,-0.36577 -15.8672,-26.10268 -36.0503,-57.19312 z m -303.4602,45.93076 c 12.8976,-6.29855 12.7671,-23.61272 -0.2256,-29.95777 -7.1716,-3.50215 -13.4439,-2.1084 -18.5354,4.11859 -7.2331,8.84645 -4.3387,21.54017 5.9636,26.15456 6.2113,2.78204 6.4676,2.77574 12.7974,-0.31538 z m -129.8466,-50.43879 18.98,-19.57961 -0.4218,-30.93444 -0.4216,-30.93442 -18.4817,-8.44704 c -10.165,-4.64588 -19.0493,-8.44705 -19.7428,-8.44705 -0.6936,0 -1.2611,26.53248 -1.2611,58.96107 0,32.42859 0.5332,58.96107 1.1846,58.96107 0.6516,0 9.7255,-8.8108 20.1644,-19.57958 z m 371.9583,-21.51433 v -41.09392 l 4.5824,-5.51719 c 2.5203,-3.03448 4.6108,-6.07695 4.6454,-6.7611 0.11,-2.17224 -12.8107,-23.55768 -13.9557,-23.09881 -0.6033,0.24176 -5.7092,4.89686 -11.3463,10.34467 l -10.2496,9.9051 v 43.69128 43.6913 l 11.2263,4.83103 c 6.1745,2.65707 12.0974,4.89191 13.1619,4.96629 1.5018,0.10501 1.9356,-9.07374 1.9356,-40.95865 z m -44.908,-20.65586 v -44.2208 l 15.2942,-15.39703 15.2942,-15.39705 -8.7106,-13.60838 -8.7103,-13.60841 -50.4762,-0.4751 c -39.9828,-0.37633 -51.0081,-0.92977 -53.0345,-2.66213 -2.3173,-1.9786 -2.5612,-9.55929 -2.5612,-79.52997 v -77.3429 l -7.4757,-12.09872 c -4.1115,-6.65432 -19.6154,-30.07745 -34.453,-52.0514 -14.8376,-21.97395 -38.8232,-58.01182 -53.3012,-80.08418 l -26.3237,-40.13154 -0.4018,79.24507 -0.4017,79.24507 15.8586,16.37615 c 8.7222,9.00688 16.6351,16.37615 17.584,16.37615 0.9489,0 4.097,-1.25491 6.9958,-2.7887 7.7281,-4.08923 26.2776,-3.73375 35.6961,0.6841 16.5443,7.7603 26.6748,23.96987 26.711,42.73994 0.051,26.74659 -18.7924,46.92021 -45.1594,48.34563 -9.731,0.52606 -12.3772,0.0404 -19.6044,-3.59854 -22.5787,-11.36845 -32.6378,-39.30777 -22.6099,-62.79928 l 3.6247,-8.49095 -18.8244,-19.41906 -18.8243,-19.41907 v -99.4479 c 0,-81.96643 -0.3733,-99.89017 -2.1235,-101.96371 -1.1679,-1.3837 -12.4066,-17.57477 -24.9748,-35.98018 -12.5681,-18.40542 -23.4583,-34.14563 -24.2003,-34.97826 -0.7669,-0.86089 -1.3488,66.19999 -1.3488,155.47554 V 585.9605 l 8.8389,3.77022 c 18.6816,7.96856 29.2479,25.7432 27.9472,47.01284 -1.161,18.98526 -11.7992,34.15666 -28.4451,40.566 -30.2374,11.64273 -62.924,-10.15922 -62.924,-41.97032 0,-20.78717 8.5606,-35.32728 26.0016,-44.16346 l 9.9999,-5.06631 v -171.80601 -171.806 l -18.7486,-27.56641 c -10.3118,-15.16155 -19.0963,-28.46282 -19.5214,-29.55837 -0.4249,-1.09556 -1.3969,-1.99193 -2.1599,-1.99193 -0.8134,0 -1.2253,111.15666 -0.9957,268.73663 0.3453,236.93547 0.6665,268.89577 2.7143,270.08136 1.2775,0.7396 13.3155,6.12323 26.7509,11.96363 l 24.4284,10.6189 34.7698,-35.61238 c 19.1234,-19.5868 35.8792,-36.25121 37.2349,-37.03206 6.5633,-3.77987 14.5144,3.924 12.5143,12.12504 -0.5497,2.25373 -14.6027,17.61737 -32.9367,36.00859 -17.588,17.64272 -31.7037,32.30489 -31.3683,32.58257 0.3354,0.27769 6.881,3.08785 14.5459,6.24483 18.4072,7.58152 67.7458,28.73599 136.1949,58.39521 30.6214,13.26836 57.2741,24.53725 59.2283,25.042 3.1094,0.80313 3.5531,0.32513 3.5531,-3.82813 0,-4.11029 -6.0138,-10.83979 -44.9052,-50.24968 l -44.9052,-45.50382 v -30.39695 c 0,-28.27225 0.2166,-30.61975 3.0969,-33.58405 3.7657,-3.87518 8.8453,-4.09591 12.6529,-0.54979 2.5263,2.35287 2.8317,5.48549 2.8317,29.04739 v 26.4101 l 45.9063,47.33965 45.9064,47.33965 -0.8533,8.50792 c -1.328,13.24074 -0.2201,16.48717 6.3479,18.6005 3.1157,1.00254 11.2393,4.62084 18.0525,8.04064 6.8132,3.41982 12.9102,6.27888 13.549,6.35345 0.6387,0.0746 1.16,-19.76379 1.1585,-44.08523 z m -1.8145,-123.90449 c 0.2779,-0.27636 -10.223,-16.52256 -23.3354,-36.10265 -13.1126,-19.58011 -28.8235,-43.25359 -34.913,-52.60773 -6.0896,-9.35414 -11.7894,-17.46378 -12.6661,-18.02141 -1.711,-1.08832 -2.3647,95.19947 -0.7044,103.75047 l 0.8898,4.58143 35.1118,-0.54881 c 19.3115,-0.30185 35.3394,-0.77494 35.6173,-1.0513 z m -284.8711,-54.05435 c 4.8398,-2.57567 7.9667,-8.50958 7.9667,-15.11824 0,-9.796 -11.952,-17.97845 -21.0682,-14.42349 -7.9348,3.09425 -11.4493,7.7569 -11.4493,15.18958 0,13.33013 12.6143,20.70439 24.5508,14.35215 z m 135.6611,-20.71004 c 5.4468,-2.34211 10.118,-9.38909 10.118,-15.26419 0,-8.77145 -8.2399,-16.3338 -17.7972,-16.3338 -9.4518,0 -17.4246,11.41043 -14.7297,21.08065 3.2017,11.48851 11.3052,15.29184 22.4089,10.51734 z"
       id="path827" />
  </g>
</svg>
