<?xml version="1.0" encoding="UTF-8" standalone="no"?>
<svg
   version="1.1"
   viewBox="-5.0 -10.0 110.0 135.0"
   id="svg44"
   sodipodi:docname="banner-course.svg"
   inkscape:version="1.1.2 (0a00cf5339, 2022-02-04)"
   xmlns:inkscape="http://www.inkscape.org/namespaces/inkscape"
   xmlns:sodipodi="http://sodipodi.sourceforge.net/DTD/sodipodi-0.dtd"
   xmlns="http://www.w3.org/2000/svg"
   xmlns:svg="http://www.w3.org/2000/svg">
  <defs
     id="defs48" />
  <sodipodi:namedview
     id="namedview46"
     pagecolor="#ffffff"
     bordercolor="#666666"
     borderopacity="1.0"
     inkscape:pageshadow="2"
     inkscape:pageopacity="0.0"
     inkscape:pagecheckerboard="0"
     showgrid="false"
     inkscape:zoom="2.8962963"
     inkscape:cx="45.057545"
     inkscape:cy="57.314578"
     inkscape:window-width="1366"
     inkscape:window-height="661"
     inkscape:window-x="0"
     inkscape:window-y="0"
     inkscape:window-maximized="1"
     inkscape:current-layer="svg44" />
  <path
     d="M 97.202154,-3.191686 H 3.3332816 c -1.1786927,0 -2.1333835,0.8877505 -2.1333835,1.9837964 V 117.81989 c 0,1.09605 0.9546908,1.9838 2.1333835,1.9838 H 97.202154 c 1.178693,0 2.133384,-0.88775 2.133384,-1.9838 V -1.2078896 c 0,-1.0960459 -0.954691,-1.9837964 -2.133384,-1.9837964 z M 95.068771,115.8361 H 5.466665 V 0.77590675 h 89.602106 z"
     id="path2"
     style="stroke-width:0;fill:#111111;fill-opacity:1;stroke:none;stroke-opacity:1;stroke-miterlimit:4;stroke-dasharray:none" />
  <path
     d="m 14.000881,30.532852 c 2.778792,0 5.15207,-1.656486 6.032185,-3.967593 h 9.008271 c 0.07467,0.669527 0.181335,1.334127 0.320015,1.983797 h -4.693444 c -0.746691,0 -1.445376,0.366999 -1.829317,0.962138 l -3.296128,5.108228 c -0.410675,-0.07935 -0.837351,-0.119028 -1.274692,-0.119028 -3.530698,0 -6.40015,2.668254 -6.40015,5.951389 0,3.283136 2.869452,5.951389 6.40015,5.951389 3.530699,0 6.400151,-2.668253 6.400151,-5.951389 0,-1.438236 -0.549341,-2.757509 -1.466676,-3.789083 l 2.67202,-4.146102 h 4.84814 c 3.296129,6.997818 10.816288,11.902778 19.546571,11.902778 8.730283,0 16.245118,-4.90496 19.546572,-11.902778 h 4.848139 l 2.677345,4.146102 c -0.922686,1.031574 -1.472,2.350847 -1.472,3.789083 0,3.283136 2.869452,5.951389 6.40015,5.951389 3.530699,0 6.400151,-2.668253 6.400151,-5.951389 0,-3.283135 -2.869452,-5.951389 -6.400151,-5.951389 -0.43734,0 -0.864017,0.03968 -1.274691,0.119028 l -3.296129,-5.108228 c -0.384009,-0.595139 -1.077355,-0.962138 -1.829317,-0.962138 h -4.693443 c 0.144005,-0.649695 0.250667,-1.314321 0.320014,-1.983797 h 9.008272 c 0.880019,2.311107 3.253392,3.967593 6.032184,3.967593 3.530699,0 6.400151,-2.668254 6.400151,-5.951389 0,-3.283135 -2.869452,-5.951389 -6.400151,-5.951389 -2.778792,0 -5.15207,1.656486 -6.032184,3.967593 H 71.494617 C 71.419945,21.92814 71.313283,21.26354 71.174603,20.61387 h 4.693443 c 0.746692,0 1.445376,-0.366999 1.829317,-0.962138 l 3.296129,-5.108228 c 0.410674,0.07935 0.837351,0.119028 1.274691,0.119028 3.530699,0 6.400151,-2.668254 6.400151,-5.951389 0,-3.2831354 -2.869452,-5.9513891 -6.400151,-5.9513891 -3.530698,0 -6.40015,2.6682537 -6.40015,5.9513891 0,1.438236 0.549341,2.757509 1.466675,3.789083 l -2.67202,4.146102 H 69.814549 C 66.51842,9.6485105 58.99826,4.7435502 50.267977,4.7435502 c -8.730283,0 -16.245118,4.9049603 -19.546571,11.9027778 h -4.84814 l -2.677345,-4.146102 c 0.922687,-1.031574 1.472001,-2.350847 1.472001,-3.789083 0,-3.2831354 -2.869452,-5.9513891 -6.400151,-5.9513891 -3.530698,0 -6.40015,2.6682537 -6.40015,5.9513891 0,3.283135 2.869452,5.951389 6.40015,5.951389 0.437341,0 0.864017,-0.03968 1.274692,-0.119028 l 3.296128,5.108228 c 0.38401,0.595139 1.077356,0.962138 1.829317,0.962138 h 4.693444 c -0.144005,0.649695 -0.250668,1.314321 -0.320015,1.983797 h -9.008271 c -0.880019,-2.311107 -3.253393,-3.967593 -6.032185,-3.967593 -3.530698,0 -6.4001498,2.668254 -6.4001498,5.951389 0,3.283135 2.8694518,5.951389 6.4001498,5.951389 z m 4.266767,11.902778 c -1.178692,0 -2.133383,-0.88775 -2.133383,-1.983796 0,-1.096046 0.954691,-1.983796 2.133383,-1.983796 1.178693,0 2.133384,0.88775 2.133384,1.983796 0,1.096046 -0.954691,1.983796 -2.133384,1.983796 z m 66.135571,-1.983796 c 0,1.096046 -0.954691,1.983796 -2.133384,1.983796 -1.178692,0 -2.133383,-0.88775 -2.133383,-1.983796 0,-1.096046 0.954691,-1.983796 2.133383,-1.983796 1.178693,0 2.133384,0.88775 2.133384,1.983796 z M 82.269835,6.7279306 c 1.178693,0 2.133384,0.8877505 2.133384,1.9837964 0,1.0960459 -0.954691,1.983796 -2.133384,1.983796 -1.178692,0 -2.133383,-0.8877501 -2.133383,-1.983796 0,-1.0960459 0.954691,-1.9837964 2.133383,-1.9837964 z M 16.134265,8.711727 c 0,-1.0960459 0.954691,-1.9837964 2.133383,-1.9837964 1.178693,0 2.133384,0.8877505 2.133384,1.9837964 0,1.0960459 -0.954691,1.983796 -2.133384,1.983796 -1.178692,0 -2.133383,-0.8877501 -2.133383,-1.983796 z m 70.400972,13.887209 c 1.178693,0 2.133383,0.887751 2.133383,1.983797 0,1.096046 -0.95469,1.983796 -2.133383,1.983796 -1.178693,0 -2.133384,-0.88775 -2.133384,-1.983796 0,-1.096046 0.954691,-1.983797 2.133384,-1.983797 z M 33.739287,20.61514 H 39.6008 c 1.178693,0 2.133384,-0.88775 2.133384,-1.983796 0,-1.096046 -0.954691,-1.983797 -2.133384,-1.983797 h -4.106746 c 2.954788,-4.741305 8.469499,-7.9351852 14.773254,-7.9351852 6.303756,0 11.813552,3.1938802 14.773254,7.9351852 h -4.106746 c -1.178693,0 -2.133383,0.887751 -2.133383,1.983797 0,1.096046 0.95469,1.983796 2.133383,1.983796 h 5.861514 c 0.181334,0.644731 0.309337,1.309242 0.400011,1.983796 h -4.128046 c -1.178693,0 -2.133383,0.887751 -2.133383,1.983797 0,1.096046 0.95469,1.983796 2.133383,1.983796 h 4.128046 c -0.09067,0.674491 -0.224002,1.339078 -0.400011,1.983796 h -5.861514 c -1.178693,0 -2.133383,0.887751 -2.133383,1.983797 0,1.096046 0.95469,1.983796 2.133383,1.983796 h 4.106746 c -2.954787,4.741305 -8.469498,7.935186 -14.773254,7.935186 -6.303755,0 -11.813551,-3.193881 -14.773254,-7.935186 H 39.6008 c 1.178693,0 2.133384,-0.88775 2.133384,-1.983796 0,-1.096046 -0.954691,-1.983797 -2.133384,-1.983797 h -5.861513 c -0.181334,-0.64473 -0.309337,-1.309242 -0.400011,-1.983796 h 4.128045 c 1.178693,0 2.133384,-0.88775 2.133384,-1.983796 0,-1.096046 -0.954691,-1.983797 -2.133384,-1.983797 h -4.128045 c 0.09067,-0.67449 0.224001,-1.339078 0.400011,-1.983796 z m -19.739088,1.983796 c 1.178692,0 2.133383,0.887751 2.133383,1.983797 0,1.096046 -0.954691,1.983796 -2.133383,1.983796 -1.178693,0 -2.133384,-0.88775 -2.133384,-1.983796 0,-1.096046 0.954691,-1.983797 2.133384,-1.983797 z"
     id="path4"
     style="stroke-width:0;fill:#111111;fill-opacity:1;stroke:none;stroke-opacity:1;stroke-miterlimit:4;stroke-dasharray:none" />
  <path
     d="m 48.358937,37.372347 c 0.362682,0.669527 1.098696,1.096046 1.909327,1.096046 0.810631,0 1.546686,-0.426519 1.909327,-1.096046 l 6.40015,-11.902778 c 0.298674,-0.560427 0.298674,-1.215074 0,-1.77545 l -6.40015,-11.902778 c -0.362682,-0.669527 -1.104021,-1.096046 -1.909327,-1.096046 -0.805306,0 -1.546686,0.426519 -1.909327,1.096046 l -6.40015,11.902778 c -0.298674,0.560427 -0.298674,1.215074 0,1.77545 z m 1.909327,-5.321526 -2.186769,-4.071702 1.514736,0.471147 c 0.218677,0.06944 0.448018,0.0992 0.672019,0.0992 0.229341,0 0.453343,-0.03471 0.67202,-0.0992 l 1.514736,-0.471147 z m 0,-14.938462 2.186769,4.071702 -1.514736,-0.471147 c -0.43734,-0.133908 -0.912023,-0.133908 -1.349363,0 l -1.514737,0.471147 z"
     id="path6"
     style="stroke-width:0;fill:#111111;fill-opacity:1;stroke:none;stroke-opacity:1;stroke-miterlimit:4;stroke-dasharray:none" />
  <path
     d="M 67.334786,48.387654 H 33.20065 c -1.178693,0 -2.133383,0.887751 -2.133383,1.983797 0,1.096045 0.95469,1.983796 2.133383,1.983796 h 34.134136 c 1.178692,0 2.133383,-0.887751 2.133383,-1.983796 0,-1.096046 -0.954691,-1.983797 -2.133383,-1.983797 z"
     id="path8"
     style="stroke-width:0;fill:#111111;fill-opacity:1;stroke:none;stroke-opacity:1;stroke-miterlimit:4;stroke-dasharray:none" />
  <path
     d="m 58.801252,60.289163 c 1.178692,0 2.133383,-0.887751 2.133383,-1.983797 0,-1.096046 -0.954691,-1.983796 -2.133383,-1.983796 H 41.734184 c -1.178693,0 -2.133384,0.88775 -2.133384,1.983796 0,1.096046 0.954691,1.983797 2.133384,1.983797 z"
     id="path10"
     style="stroke-width:0;fill:#111111;fill-opacity:1;stroke:none;stroke-opacity:1;stroke-miterlimit:4;stroke-dasharray:none" />
  <path
     d="M 88.66862,64.258025 H 73.734253 c -1.178692,0 -2.133383,0.887751 -2.133383,1.983796 0,1.096046 0.954691,1.983797 2.133383,1.983797 H 88.66862 c 1.178693,0 2.133384,-0.887751 2.133384,-1.983797 0,-1.096045 -0.954691,-1.983796 -2.133384,-1.983796 z"
     id="path12"
     style="stroke-width:0;fill:#111111;fill-opacity:1;stroke:none;stroke-opacity:1;stroke-miterlimit:4;stroke-dasharray:none" />
  <path
     d="m 33.20065,66.241187 c 0,1.096046 0.954691,1.983796 2.133384,1.983796 h 32.001434 c 1.178693,0 2.133384,-0.88775 2.133384,-1.983796 0,-1.096046 -0.954691,-1.983797 -2.133384,-1.983797 H 35.334034 c -1.178693,0 -2.133384,0.887751 -2.133384,1.983797 z"
     id="path14"
     style="stroke-width:0;fill:#111111;fill-opacity:1;stroke:none;stroke-opacity:1;stroke-miterlimit:4;stroke-dasharray:none" />
  <path
     d="m 11.866815,68.224348 h 17.067068 c 1.178693,0 2.133384,-0.88775 2.133384,-1.983796 0,-1.096046 -0.954691,-1.983797 -2.133384,-1.983797 H 11.866815 c -1.178692,0 -2.133383,0.887751 -2.133383,1.983797 0,1.096046 0.954691,1.983796 2.133383,1.983796 z"
     id="path16"
     style="stroke-width:0;fill:#111111;fill-opacity:1;stroke:none;stroke-opacity:1;stroke-miterlimit:4;stroke-dasharray:none" />
  <path
     d="m 88.66862,72.193211 h -6.40015 c -1.178693,0 -2.133383,0.88775 -2.133383,1.983796 0,1.096046 0.95469,1.983796 2.133383,1.983796 h 6.40015 c 1.178693,0 2.133384,-0.88775 2.133384,-1.983796 0,-1.096046 -0.954691,-1.983796 -2.133384,-1.983796 z"
     id="path18"
     style="stroke-width:0;fill:#111111;fill-opacity:1;stroke:none;stroke-opacity:1;stroke-miterlimit:4;stroke-dasharray:none" />
  <path
     d="M 52.400419,76.159534 H 75.86832 c 1.178692,0 2.133383,-0.887751 2.133383,-1.983797 0,-1.096046 -0.954691,-1.983796 -2.133383,-1.983796 H 52.400419 c -1.178693,0 -2.133384,0.88775 -2.133384,1.983796 0,1.096046 0.954691,1.983797 2.133384,1.983797 z"
     id="path20"
     style="stroke-width:0;fill:#111111;fill-opacity:1;stroke:none;stroke-opacity:1;stroke-miterlimit:4;stroke-dasharray:none" />
  <path
     d="m 11.866815,76.159534 h 34.134136 c 1.178693,0 2.133383,-0.887751 2.133383,-1.983797 0,-1.096046 -0.95469,-1.983796 -2.133383,-1.983796 H 11.866815 c -1.178692,0 -2.133383,0.88775 -2.133383,1.983796 0,1.096046 0.954691,1.983797 2.133383,1.983797 z"
     id="path22"
     style="stroke-width:0;fill:#111111;fill-opacity:1;stroke:none;stroke-opacity:1;stroke-miterlimit:4;stroke-dasharray:none" />
  <path
     d="M 88.66862,80.128396 H 73.734253 c -1.178692,0 -2.133383,0.88775 -2.133383,1.983796 0,1.096046 0.954691,1.983797 2.133383,1.983797 H 88.66862 c 1.178693,0 2.133384,-0.887751 2.133384,-1.983797 0,-1.096046 -0.954691,-1.983796 -2.133384,-1.983796 z"
     id="path24"
     style="stroke-width:0;fill:#111111;fill-opacity:1;stroke:none;stroke-opacity:1;stroke-miterlimit:4;stroke-dasharray:none" />
  <path
     d="m 11.866815,84.094719 h 55.467971 c 1.178692,0 2.133383,-0.88775 2.133383,-1.983796 0,-1.096046 -0.954691,-1.983797 -2.133383,-1.983797 H 11.866815 c -1.178692,0 -2.133383,0.887751 -2.133383,1.983797 0,1.096046 0.954691,1.983796 2.133383,1.983796 z"
     id="path26"
     style="stroke-width:0;fill:#111111;fill-opacity:1;stroke:none;stroke-opacity:1;stroke-miterlimit:4;stroke-dasharray:none" />
  <path
     d="m 28.933883,90.046743 c 0,-1.096046 -0.954691,-1.983796 -2.133383,-1.983796 H 11.866133 c -1.178693,0 -2.1333837,0.88775 -2.1333837,1.983796 0,1.096046 0.9546907,1.983796 2.1333837,1.983796 H 26.8005 c 1.178692,0 2.133383,-0.88775 2.133383,-1.983796 z"
     id="path28"
     style="stroke-width:0;fill:#111111;fill-opacity:1;stroke:none;stroke-opacity:1;stroke-miterlimit:4;stroke-dasharray:none" />
  <path
     d="M 88.66862,88.063581 H 33.20065 c -1.178693,0 -2.133383,0.887751 -2.133383,1.983797 0,1.096046 0.95469,1.983796 2.133383,1.983796 h 55.46797 c 1.178693,0 2.133384,-0.88775 2.133384,-1.983796 0,-1.096046 -0.954691,-1.983797 -2.133384,-1.983797 z"
     id="path30"
     style="stroke-width:0;fill:#111111;fill-opacity:1;stroke:none;stroke-opacity:1;stroke-miterlimit:4;stroke-dasharray:none" />
  <path
     d="m 84.530198,105.92219 c -1.487975,-0.0794 -3.754755,-1.04149 -5.413401,-1.74079 -2.27743,-0.96213 -3.925426,-1.66143 -5.168181,-0.29261 -0.538678,0.59018 -0.949352,1.61675 0.149343,3.13941 0.208,0.28765 0.474683,0.55547 0.778682,0.84808 -0.314676,0.0198 -0.693346,0.0298 -1.141364,0.0298 -3.770729,0 -4.213381,-1.65649 -4.266767,-2.06315 0.01065,-0.51579 -0.202674,-0.90758 -0.586683,-1.28448 -0.106663,-0.10415 -0.213339,-0.2083 -0.320001,-0.30253 0.762679,-3.31792 0.458681,-5.579388 -0.890683,-6.978012 -0.613349,-0.634815 -1.999987,-1.62665 -4.394838,-1.10101 -4.250792,0.927426 -9.296227,6.164682 -10.794852,11.203462 -0.314676,1.05637 0.352005,2.14746 1.487975,2.44011 1.136025,0.29261 2.309379,-0.32733 2.624096,-1.38365 0.634677,-2.13259 2.197419,-4.47341 4.181432,-6.26879 1.872052,-1.6961 3.301453,-2.16231 3.76008,-2.172213 0.08534,0.198383 0.272008,0.818313 0.07467,2.246613 -0.677344,-0.0694 -1.269366,0.0149 -1.760092,0.15374 -2.624096,0.76375 -3.76008,3.63533 -4.016086,5.21246 -0.314676,1.91435 0.976018,3.70973 2.997387,4.18089 0.320014,0.0744 0.650678,0.11406 0.986695,0.11406 1.4507,0 3.002711,-0.71913 3.978811,-2.43019 1.269367,1.31432 3.440038,2.39541 6.938787,2.39541 2.538761,0 5.253517,-0.25789 6.12817,-2.18224 0.122664,-0.27277 0.197336,-0.53563 0.224002,-0.79352 1.386665,0.50587 2.837366,0.91255 4.192081,0.98693 1.178693,0.0694 2.186769,-0.76872 2.255993,-1.86483 0.064,-1.09109 -0.832026,-2.02849 -2.005448,-2.09286 z"
     id="path32"
     style="stroke-width:0;fill:#111111;fill-opacity:1;stroke:none;stroke-opacity:1;stroke-miterlimit:4;stroke-dasharray:none" />
  <path
     d="M 26.799817,95.998767 H 22.53305 c -1.178693,0 -2.133383,0.88775 -2.133383,1.983796 v 1.983797 c 0,1.09605 0.95469,1.9838 2.133383,1.9838 1.178693,0 2.133383,-0.88775 2.133383,-1.9838 h 2.133384 c 1.178693,0 2.133383,-0.887751 2.133383,-1.983797 0,-1.096046 -0.95469,-1.983796 -2.133383,-1.983796 z"
     id="path34"
     style="stroke-width:0;fill:#111111;fill-opacity:1;stroke:none;stroke-opacity:1;stroke-miterlimit:4;stroke-dasharray:none" />
  <path
     d="m 26.799817,107.90028 h -2.133384 c 0,-1.09605 -0.95469,-1.9838 -2.133383,-1.9838 -1.178693,0 -2.133383,0.88775 -2.133383,1.9838 v 1.98379 c 0,1.09605 0.95469,1.9838 2.133383,1.9838 h 4.266767 c 1.178693,0 2.133383,-0.88775 2.133383,-1.9838 0,-1.09604 -0.95469,-1.98379 -2.133383,-1.98379 z"
     id="path36"
     style="stroke-width:0;fill:#111111;fill-opacity:1;stroke:none;stroke-opacity:1;stroke-miterlimit:4;stroke-dasharray:none" />
  <path
     d="M 37.467417,95.998767 H 33.20065 c -1.178693,0 -2.133383,0.88775 -2.133383,1.983796 0,1.096046 0.95469,1.983797 2.133383,1.983797 h 2.133384 c 0,1.09605 0.95469,1.9838 2.133383,1.9838 1.178693,0 2.133383,-0.88775 2.133383,-1.9838 v -1.983797 c 0,-1.096046 -0.95469,-1.983796 -2.133383,-1.983796 z"
     id="path38"
     style="stroke-width:0;fill:#111111;fill-opacity:1;stroke:none;stroke-opacity:1;stroke-miterlimit:4;stroke-dasharray:none" />
  <path
     d="m 37.467417,105.91711 c -1.178693,0 -2.133383,0.88775 -2.133383,1.9838 H 33.20065 c -1.178693,0 -2.133383,0.88775 -2.133383,1.9838 0,1.09604 0.95469,1.98379 2.133383,1.98379 h 4.266767 c 1.178693,0 2.133383,-0.88775 2.133383,-1.98379 v -1.9838 c 0,-1.09605 -0.95469,-1.9838 -2.133383,-1.9838 z"
     id="path40"
     style="stroke-width:0;fill:#111111;fill-opacity:1;stroke:none;stroke-opacity:1;stroke-miterlimit:4;stroke-dasharray:none" />
  <path
     d="m 33.20065,103.93395 c 0,-1.09604 -0.954691,-1.98379 -2.133383,-1.98379 h -2.133384 c -1.178693,0 -2.133383,0.88775 -2.133383,1.98379 0,1.09605 0.95469,1.9838 2.133383,1.9838 h 2.133384 c 1.178692,0 2.133383,-0.88775 2.133383,-1.9838 z"
     id="path42"
     style="stroke-width:0;fill:#111111;fill-opacity:1;stroke:none;stroke-opacity:1;stroke-miterlimit:4;stroke-dasharray:none" />
</svg>
