<?xml version="1.0" encoding="UTF-8" standalone="no"?>
<svg
   version="1.1"
   viewBox="-5.0 -10.0 110.0 135.0"
   id="svg8"
   sodipodi:docname="thumbnail.svg"
   inkscape:version="1.1.2 (0a00cf5339, 2022-02-04)"
   xmlns:inkscape="http://www.inkscape.org/namespaces/inkscape"
   xmlns:sodipodi="http://sodipodi.sourceforge.net/DTD/sodipodi-0.dtd"
   xmlns="http://www.w3.org/2000/svg"
   xmlns:svg="http://www.w3.org/2000/svg">
  <defs
     id="defs12" />
  <sodipodi:namedview
     id="namedview10"
     pagecolor="#ffffff"
     bordercolor="#666666"
     borderopacity="1.0"
     inkscape:pageshadow="2"
     inkscape:pageopacity="0.0"
     inkscape:pagecheckerboard="0"
     showgrid="false"
     inkscape:zoom="2.0479908"
     inkscape:cx="79.834345"
     inkscape:cy="62.500282"
     inkscape:window-width="1366"
     inkscape:window-height="661"
     inkscape:window-x="0"
     inkscape:window-y="0"
     inkscape:window-maximized="1"
     inkscape:current-layer="svg8" />
  <path
     d="m 72.394392,65.599016 c 0,0.76102 -0.621273,1.381119 -1.383733,1.381119 H 16.281962 c -0.76246,0 -1.383732,-0.620099 -1.383732,-1.381119 0,-0.761019 0.621272,-1.381117 1.383732,-1.381117 h 54.733035 c 0.76246,0 1.383732,0.620098 1.383732,1.381117 z M 71.010659,49.978588 H 16.281962 c -0.76246,0 -1.383732,0.620098 -1.383732,1.381118 0,0.76102 0.621272,1.381117 1.383732,1.381117 h 54.733035 c 0.76246,0 1.383732,-0.620097 1.383732,-1.381117 0,-0.76102 -0.621272,-1.381118 -1.383732,-1.381118 z M 48.531872,38.506867 h 22.478787 c 0.76246,0 1.383733,-0.620098 1.383733,-1.381117 0,-0.76102 -0.621273,-1.381118 -1.383733,-1.381118 H 48.531872 c -0.76246,0 -1.383732,0.620098 -1.383732,1.381118 0,0.761019 0.621272,1.381117 1.383732,1.381117 z m 0,-14.239642 h 22.478787 c 0.76246,0 1.383733,-0.620099 1.383733,-1.381117 0,-0.76102 -0.621273,-1.381119 -1.383733,-1.381119 H 48.531872 c -0.76246,0 -1.383732,0.620099 -1.383732,1.381119 0,0.761018 0.621272,1.381117 1.383732,1.381117 z M 12.057158,30.0116 c 0,-9.498675 7.743304,-17.222301 17.254895,-17.222301 9.516652,0 17.254895,7.728677 17.254895,17.222301 0,9.498675 -7.743304,17.216529 -17.254895,17.216529 -9.516652,0 -17.254895,-7.72305 -17.254895,-17.216529 z m 2.761882,0 c 0,7.970979 6.500732,14.460152 14.491857,14.460152 7.991124,0 14.491855,-6.482824 14.491855,-14.460152 0,-7.970979 -6.500731,-14.464482 -14.491855,-14.464482 -7.991125,0 -14.491857,6.488453 -14.491857,14.464482 z m 5.693074,-0.580628 c 0.01132,-0.02819 0.02824,-0.05638 0.04518,-0.08456 0.01132,-0.02255 0.02259,-0.05074 0.03954,-0.07328 l 7.545654,-11.967869 c 0.254154,-0.400237 0.694693,-0.64264 1.169108,-0.64264 0.474417,0 0.914956,0.242403 1.169109,0.64264 l 7.545655,11.967869 c 0.01695,0.02255 0.02259,0.0451 0.03954,0.07328 0.01695,0.02819 0.02824,0.05074 0.04519,0.08456 0.01695,0.03383 0.02824,0.07328 0.03954,0.107106 0.01132,0.02819 0.02259,0.05074 0.02824,0.07892 0.01132,0.03946 0.0226,0.08456 0.02824,0.124018 0.0057,0.02255 0.01132,0.0451 0.01694,0.06764 0.0226,0.135293 0.0226,0.270587 0,0.400237 -0.0057,0.02255 -0.01132,0.0451 -0.01694,0.07328 -0.01132,0.03946 -0.01695,0.08456 -0.02824,0.124019 -0.01132,0.02819 -0.02259,0.05074 -0.02824,0.07892 -0.01132,0.03383 -0.02824,0.07328 -0.03954,0.107107 -0.01132,0.02819 -0.02824,0.05637 -0.04519,0.08456 -0.01132,0.02255 -0.02259,0.0451 -0.03954,0.07329 L 30.480705,42.71231 c -0.254153,0.400237 -0.694692,0.642639 -1.169109,0.642639 -0.474415,0 -0.914954,-0.242402 -1.169108,-0.642639 L 20.596832,30.750077 c -0.01695,-0.02255 -0.02259,-0.0451 -0.03954,-0.07329 -0.01695,-0.02819 -0.02824,-0.05073 -0.04518,-0.08456 -0.01694,-0.03383 -0.02824,-0.06764 -0.03954,-0.107107 -0.01132,-0.02819 -0.02259,-0.05073 -0.02824,-0.07892 -0.01132,-0.03946 -0.02259,-0.08456 -0.02824,-0.124019 -0.0057,-0.02255 -0.01132,-0.0451 -0.01695,-0.07328 -0.02259,-0.135294 -0.02259,-0.270586 0,-0.400237 l 0.01695,-0.06764 c 0.01132,-0.03946 0.01695,-0.08456 0.02824,-0.124018 0.01132,-0.02819 0.01695,-0.05074 0.02824,-0.07892 0.01132,-0.03383 0.02824,-0.07328 0.03954,-0.107107 z m 12.944931,3.376632 -3.642844,1.414945 c -0.163788,0.062 -0.333228,0.09583 -0.502668,0.09583 -0.169441,0 -0.338881,-0.03383 -0.502669,-0.09583 l -3.642843,-1.414945 4.14557,6.57302 z m -4.145571,-1.34729 3.727573,-1.448758 -3.727573,-1.454385 -3.727572,1.454385 z m -4.151208,-4.256076 3.642845,-1.414945 c 0.321935,-0.12402 0.6834,-0.12402 1.00532,0 l 3.642845,1.414945 -4.145571,-6.578648 z m 78.313564,13.050215 -6.133623,15.06771 c -0.220262,0.53553 -0.734223,0.8625 -1.282073,0.8625 -0.17508,0 -0.350173,-0.03383 -0.519614,-0.101469 -0.705984,-0.2875 -1.044865,-1.093618 -0.76246,-1.798283 l 5.61399,-13.788666 -0.626914,-0.253673 -6.822725,16.747512 v 50.272846 c 0,0.76101 -0.621271,1.38111 -1.383731,1.38111 h -6.308722 v 5.83458 c 0,0.76102 -0.621272,1.38112 -1.383732,1.38112 l -80.9117804,-0.0113 c -0.7624599,0 -1.3837312,-0.6201 -1.3837312,-1.38113 L 1.5743744,9.0005576 c 0,-0.7610188 0.6212713,-1.3811171 1.3837312,-1.3811171 H 9.2668155 V 1.7848989 c 0,-0.7610199 0.6212712,-1.38111819 1.3837315,-1.38111819 H 91.56811 c 0.76246,0 1.383732,0.62009829 1.383732,1.38111819 V 30.280924 c 1.468416,-0.76102 3.100648,-0.93014 4.574847,-0.332599 2.688431,1.093618 3.964841,4.368785 3.185371,7.689137 l 2.01061,0.811759 c 0.33888,0.135294 0.60998,0.405881 0.75118,0.744107 0.14119,0.338226 0.14684,0.715921 0.006,1.054162 z M 91.799671,35.524887 85.253828,51.591242 v 0.231131 l 5.845612,2.373226 6.624932,-16.264064 c 0.931901,-2.28303 0.361465,-4.76348 -1.248182,-5.417361 -1.604038,-0.653911 -3.744489,0.727206 -4.682129,3.01585 z M 90.060157,56.743212 84.129816,54.336073 70.7105,87.27405 76.640839,89.681188 Z M 69.236878,99.389117 75.16158,92.060764 70.117985,90.014407 Z M 12.029975,7.6205441 h 71.841899 c 0.76246,0 1.383733,0.6200983 1.383733,1.3811182 V 44.263076 l 3.981753,-9.780518 c 0.259808,-0.625726 0.57609,-1.20637 0.943193,-1.7306 V 3.1678124 H 12.030365 Z m 70.46255,75.0311629 -3.806661,9.346569 c -0.05083,0.12402 -0.118607,0.242402 -0.203317,0.343869 l -9.974122,12.334285 c -0.271098,0.3326 -0.666454,0.51298 -1.073102,0.51298 -0.175079,0 -0.350174,-0.0338 -0.519614,-0.1015 -0.564781,-0.23112 -0.914955,-0.80049 -0.858479,-1.4093 l 1.485332,-15.779174 c 0.01132,-0.135293 0.04518,-0.264944 0.09601,-0.388967 L 70.20266,81.213664 H 16.282203 c -0.76246,0 -1.383731,-0.620098 -1.383731,-1.381117 0,-0.76102 0.621271,-1.381118 1.383731,-1.381118 h 54.733036 c 0.101664,0 0.203317,0.01128 0.299336,0.03383 L 82.497436,51.036972 V 10.369597 l -78.1617547,0.0057 V 113.09138 H 82.491653 Z m 7.692409,-18.879013 -4.924889,12.097461 v 30.012755 h 4.924889 z M 58.358661,101.97088 c -5.709991,0.32132 -8.669523,-0.28186 -11.798509,-0.91887 -1.886414,-0.38335 -3.834854,-0.77794 -6.421642,-0.98651 -1.050505,-0.08457 -1.959864,0.30442 -2.688433,0.6201 -0.293683,0.12966 -0.734223,0.31568 -0.920609,0.32695 -0.09037,-0.0846 -0.429246,-0.49044 -0.790711,-1.97305 -0.118605,-0.490432 -0.497014,-0.873767 -0.988375,-1.003415 -0.491361,-0.129657 -1.010975,0.01694 -1.355494,0.383325 -1.389386,1.454383 -2.259157,2.15906 -2.767521,2.50296 0.06212,-1.27965 0.581727,-3.111677 1.078741,-4.887445 0.81895,-2.903143 1.59276,-5.648551 0.994029,-7.548287 -0.254153,-0.81176 -1.010974,-1.290922 -1.925886,-1.223282 -1.671703,0.129656 -4.315025,2.238004 -6.065817,4.002374 -1.530587,1.533324 -4.162487,4.57746 -4.625596,7.706021 -0.237207,1.617889 -0.04518,4.566209 3.964838,6.133299 0.163788,0.0676 0.333228,0.0958 0.502668,0.0958 0.55349,0 1.073103,-0.3326 1.287713,-0.87942 0.276752,-0.71029 -0.07342,-1.5108 -0.78506,-1.78702 -2.208262,-0.8625 -2.366439,-2.06887 -2.253518,-3.027253 0.389704,-3.39366 5.111406,-7.824499 7.342224,-9.121007 -0.08472,1.330392 -0.632564,3.269554 -1.095688,4.904331 -0.621271,2.204091 -1.208652,4.289989 -1.191707,5.969799 0.01694,1.6912 0.785059,2.34508 1.423276,2.59316 1.163468,0.45661 2.50206,-0.10151 4.53523,-1.96742 0.400995,0.79484 0.89237,1.31348 1.496754,1.61226 1.197345,0.59754 2.372078,0.0902 3.23063,-0.27623 0.497014,-0.21421 1.010974,-0.43407 1.378078,-0.40588 2.422972,0.1973 4.286686,0.575 6.094011,0.94141 3.16282,0.64264 6.43856,1.30784 12.504377,0.96959 0.76246,-0.0451 1.344202,-0.69338 1.304657,-1.45438 -0.04519,-0.76102 -0.694692,-1.34166 -1.457137,-1.3022 z"
     id="path2"
     style="stroke-width:1.44449" />
</svg>
